<svg id="Layer_1" data-name="Layer 1" xmlns="http://www.w3.org/2000/svg" viewBox="0 0 607.63 194.83"><defs><style>.cls-1{fill:#231f20;}.cls-2{fill:#e8d044;}.cls-3{fill:#ead845;}</style></defs><title>chivas-con-el-covid-grande</title><path class="cls-1" d="M18.53,85.5l-3.09-.13-1.36-.12-1.36-.37a8.75,8.75,0,0,1-3.21-2.72L1.73,71A11.71,11.71,0,0,1,0,64.37,16.61,16.61,0,0,1,1.48,57.7c.74-1.85,1.85-3.7,2.72-5.55a20.87,20.87,0,0,0,1.73-3.71c.62-1.36,1.11-2.84,1.73-4.2,1-2.35,4.2-9.76,7.41-16.8,2.72-5.8,5.68-12.35,7.53-14.82a7.2,7.2,0,0,1,.62-1.73,23.67,23.67,0,0,1,1.36-2.35,25.49,25.49,0,0,1,3-3.58,10.53,10.53,0,0,1,3.59-2.72c2.22-.86,6.3-1.11,9.75-1.36C44.59.76,48.42.76,50.52.76H67.44a9,9,0,0,1,2.23.37,8.69,8.69,0,0,1,1.48.74l1,1.48L78.93,13A3.59,3.59,0,0,1,80,15.46c0,2-4,12.72-7,14a11.11,11.11,0,0,1-3.71.62l-4.57.24h-7.9c-3.58,0-5.68,0-7.17,1.11a8.26,8.26,0,0,0-2.71,3.46c-1.48,2.72-2.72,5.81-4,8.65L38,55.36a35,35,0,0,1,4.33.24,12.16,12.16,0,0,1,2.84.62c.74.25,2.59,2.1,4.07,4.32l3.22,4.82c1.23,2.72,3.08,3.46,3.08,5.31,0,2.35-4.94,12.11-6.3,13.59l-.74,1-1.23-.13h-2.6c-4.57,0-9.26.38-13.83.38-2.47,0-4.82.12-7.29.12Zm-12.48-14c.62.37,5.44.37,9.76.37H23.1c5.43,0,11.11-.62,16.55-.37,1.23-1.36,5.68-10.62,5.68-12S41.26,57.83,38,57.83c-1.85,0-3.33.12-3.83.12-1.11,0-12.35.5-12.35-1.48l15.07-34c1-1.85,3.58-5.06,5.81-5.43a33.19,33.19,0,0,1,6.17-.37H54a61.4,61.4,0,0,0,9.63-.5c.13,0,.74-.12.74-.25,1.49-.49,5.44-9.88,5.44-11.61,0-.86-1.73-1.11-2.35-1.11H50.52c-3.46,0-15.19,0-18.4,1.36a7.8,7.8,0,0,0-2.85,2.1C28,7.93,25,11.88,25,13.61c-.74.61-1.48,2.59-1.85,2.71-.37.38-11.74,25.57-13.22,28.91-1.23,2.72-2,5.56-3.46,8.15-1.85,3.34-3.95,7-3.95,11C2.47,67.34,3.21,70.18,6.05,71.54Z"/><path class="cls-1" d="M63.73,86.24A3.68,3.68,0,0,1,61,82.66L55.7,75l-2.47-3.46c0-2.72,4.2-12.35,8-21.12,4.08-9.27,8.53-18.78,9.76-22.11,2.84-7.42,12.35-25.2,12.6-26.19L84.24.51l21.24.13L112.65,11a51,51,0,0,1,3.7-7.28L118,.27A42.71,42.71,0,0,1,124.75,0c.74,0,3.34,0,5.81.25A26,26,0,0,1,134,.64a17.19,17.19,0,0,1,1.73.74l1.48,2.1,6.3,9A3.13,3.13,0,0,1,145,15.09a4.05,4.05,0,0,1-.49,1.61l-.75,2-2.84,6.67L132.41,45.6c-6.3,14.82-12.6,29.89-13.09,31.13-1.11,2.34-1.73,4.07-2.47,5.31a6.49,6.49,0,0,1-3,3.33,8.89,8.89,0,0,1-4.32,1c-1.48.12-3.46,0-6,0a26.34,26.34,0,0,1-3.83-.25l-2.47-.49a3.39,3.39,0,0,1-2.6-3.09l-5.8-8.27L87.33,72l-.25.5-1.36,3.08c-.37,1-1.24,3.09-2.1,4.94l-1.36,3-.74,1.23-1.11,1.12-.62.49h-.86c-4.2,0-8.53.25-12.73.25A7,7,0,0,1,63.73,86.24ZM58.42,73c4.08,0,8.52-.25,12.72-.25,1.24-.86,4-7.9,4.57-9.26L82.63,47c.62-.74,3.09-1,5.44-1,1.6,0,3.21.12,3.83.12h8.39c-.74,1.36-2.84,6.3-3.45,7-.25,3-7.54,15.81-7.54,18.28.62,1.24,4.08,1.36,6.42,1.36,11,0,10.13.37,13.47-8.15a15.66,15.66,0,0,0,1.23-3.09c2.1-4.32,15.2-36.31,15.69-36.93.12-.37,6.79-15.81,6.92-16.55A38.44,38.44,0,0,0,134.76,4c0-1.36-5.81-1.36-6.67-1.36l-8.65-.24-1,2.59a83.6,83.6,0,0,0-4.2,8.89,23,23,0,0,1-3.09,6.92l-3.82,9.64H90.78C93.87,21.14,97.7,12,101.65,3.11L86,3c-.25.87-9.89,18.9-12.6,26.19-1.36,3.58-8,17.42-8,18.53-1.73,3.46-9.64,21.12-9.64,23.84C55.7,72.77,57.06,73,58.42,73Z"/><path class="cls-1" d="M129.81,85.62l-2-.74A3.62,3.62,0,0,1,126,82.41l-6-8.65a3.45,3.45,0,0,1-1.73-3c0-1.49,7-16.31,13.34-29.89l14.08-29.65c.37-.74,1.24-2.72,2.23-4.69a43,43,0,0,1,2.22-4.08,3.84,3.84,0,0,1,1.48-1.11A3.25,3.25,0,0,1,152.79,1c.37,0,.74-.13,11.85-.13a5.46,5.46,0,0,1,1.86.38,3.13,3.13,0,0,1,2.22,2.84l5.93,8.4a3,3,0,0,1,1.85,2.71c0,2.1-9.26,21.12-9.63,22.11-1.11,3.34-6.8,15.07-7.29,16.18L147.23,79.94A14.37,14.37,0,0,1,144,84.75l-.74.75h-1c-3.21,0-6.3.24-9.51.24C132.28,85.74,131.05,85.74,129.81,85.62ZM125,72.16c3.09,0,6.43-.25,9.52-.25a13.84,13.84,0,0,0,2.71-4.2c2.1-4.45,13-28.41,14.08-29.52,1-3.21,5.19-11,5.44-12.72.37-.87,9.51-19.27,9.51-21.37-.49-1.24-5.56-.87-6.79-.87s-5.93,0-6.92.37-4.2,7.78-4.69,8.77c-2.35,4.94-20.63,43.36-20.76,44.22-.61,1.11-6.42,13.22-6.42,14.21C120.67,72,123.27,72.16,125,72.16Z"/><path class="cls-1" d="M183.05,85.5c-4.7,0-9.39-.5-14.08-.5h-1.24L160,73.88l-2.1-3v-.74c0-6.67,10.38-51.63,11-56s1.36-9,3.09-12.22l.74-1.36h15.94a6.43,6.43,0,0,1,1.48.24,3.43,3.43,0,0,1,2.1,1.24l.12.25L200,13.24a2.79,2.79,0,0,1,.62,1.85,43.51,43.51,0,0,1-.62,4.57c1.73-2.84,3.09-5.81,4.82-8.65.86-1.48,2-2.71,2.84-4.2L209,4.34l1-1.6a6,6,0,0,1,1.11-1.48,4.46,4.46,0,0,1,2.22-.75A7.79,7.79,0,0,1,215,.39L228.5.64l3,.12,7.78,11.12-.74,3-.5,1.48-.74,1.24-1.36,2.22-1,1.49-1,2.59L208.12,72.4c-1.11,2.1-2.22,4.45-3.46,6.55A17.73,17.73,0,0,1,199,85.12l-.62.38ZM161.18,71.41c4.7,0,9.39.5,14.09.5h14.57c4.32-2.72,5.81-7.66,8.4-11.86C199,58.82,219.36,20.77,220,19.54c1.24-2.47,2.84-5.07,3.83-7.66.25-.62,1.61-4.45,2.22-4.57a23.33,23.33,0,0,0,2.35-4.2c-1.61-.13-6.92-.25-10.87-.25a25.87,25.87,0,0,0-4.82.25,53.11,53.11,0,0,0-3,5.06c-3.34,4.2-5.19,8.9-8,13.34-.25.37-17.91,29.77-18,30.51-.5,1.11-2.72,6.67-4.2,6.67-.75,0-1-1.73-1-2.22S190.34,6.57,190.34,4a.45.45,0,0,0-.13-.37c0-.37-1.36-.37-1.6-.49H174.15l-11,48.17c-1.36,6-2.72,12.6-2.84,18.9Z"/><path class="cls-1" d="M216.64,85.25l-2.22-.5a3.11,3.11,0,0,1-2.35-3l-5.8-8.28-2-2.84a2.65,2.65,0,0,1,.25-1.23l.37-1c.37-.62.74-1.48,1.23-2.47,1-2,2.35-4.45,3.71-6.92,2.72-5.06,5.56-10.13,6.3-11.24a16.73,16.73,0,0,1,1.48-2.22l1-1.61c.62-1.11,1-2.34,1.61-3.33,1.6-3.21,3.58-6.42,5.43-9.51l1.48-2,1-1.61C230.6,23,232.7,18.42,235.42,14c.86-1.48,2-3.09,3-4.57a4.83,4.83,0,0,0,1-1.24l.74-1c.62-.86,1-1.73,1.61-2.71a18.82,18.82,0,0,1,2.1-3.09l.74-.74h33.35l7.78,11.11v2.47a45.21,45.21,0,0,1-.37,5.81c-.12.74-.37,1.48-.49,2.1l-.5,1.36-2,8.77L281,37.45l-.5,2-.24.62a21.54,21.54,0,0,1-.62,3.21c-.37,1.11-.62,2.1-.87,3.09a22.78,22.78,0,0,0-.37,2.72l-.74,2.22-1.11,4.08c-.37,1.6-1.61,8.27-3.09,14.57-.74,3.21-1.48,6.43-2.22,8.77l-1,3.09L269.63,83a3.31,3.31,0,0,1-1.36,1.35,6,6,0,0,1-1.85.5l-1.73.12H250.24l-7.78-11.12V71.66l-1,.12-1,1.49-1.23,2.47c-1,1.73-1.73,3.21-2.35,4.32a12.79,12.79,0,0,1-2.47,3.21c-2.22,1.85-5.19,2.1-9.26,2.1-1.73,0-3.59.13-5.32.13A18.24,18.24,0,0,1,216.64,85.25Zm12.6-21.86A33.57,33.57,0,0,1,232,58.82c.62-.75,3.21-.87,5.81-.87,2.22,0,4.56.12,5.18.12a37.9,37.9,0,0,1,3.83.38,50.64,50.64,0,0,0-1.85,13h6.79c1.24,0,6.55.13,7.66-.37,2.22-1,6.55-28.78,8.77-33.59,0-3.09,1.73-6.06,1.85-9.14.74-.62,3.83-16.43,5.07-19.77,0-1.85.37-3.58.37-5.43H245.67a28.51,28.51,0,0,0-3.46,5.43c-4.82,5.93-8.4,13.34-11.86,20.14-.61,1.23-1.85,2.59-2.59,3.83-1.61,2.84-5.93,9.51-6.92,12.59C219,47,206.76,69.56,206.76,70.67s2.84,1.24,5.31,1.24C225.66,71.91,223.93,73,229.24,63.39Zm18.28-34c.62-1.24,5.31-9.88,6.92-9.88,1,0,.74,1.11.74,1.73a28.59,28.59,0,0,1-1.85,8.52,12.62,12.62,0,0,1-.87,3.09c-.61,2.84-.49,6-1.85,8.77,0,.37-.25,1.85-.74,2-.49.37-9,.74-10.38.74-.12-.12-.12-.12-.12-.24S246.41,31.39,247.52,29.42Z"/><path class="cls-1" d="M296.93,85.37a66.28,66.28,0,0,1-9.76-4,40.65,40.65,0,0,1-5.31-3l-2-1.6a7.58,7.58,0,0,1-1.11-1.48l-6.67-9.64a4.09,4.09,0,0,1-1.36-2.84,8.3,8.3,0,0,1,.37-1.85c.12-.5,6.18-11.49,6.67-12A3.57,3.57,0,0,1,280.25,48a3.79,3.79,0,0,1,2,.61,11,11,0,0,1,1.23,1l1,1.11.12.25c3.22,3.58,11.12,5.43,16.68,5.43a9,9,0,0,0,6.67-3c-3.21-2.59-6.42-5.93-12.6-10.13l-7.16-8.4a13.77,13.77,0,0,1-2.84-5.93,21.62,21.62,0,0,1-.25-4V21a13,13,0,0,1,.12-2.22v-1c.13-.37.13-.74.25-1s1.48-3.46,1.6-4.08c1.12-2.71,4-5.31,6.55-7,1.24-.86,2.35-1.48,3.21-2C301.25,1.63,309.65,1,313.85,1c7.66,0,19.14,4,24.46,10.37l1.11,1.49L347.2,24l-1,1.49-6.42,12.1-1.61,2.1-4.69-3.21-3.58-2.6a14.14,14.14,0,0,0-8.4-2.22c-2.23,0-4,.37-5.07,1.24l4.94,3.58a32.79,32.79,0,0,1,5.44,4.07,24.1,24.1,0,0,1,2.84,3.22l7.78,11.11a16.4,16.4,0,0,1,3,9.76,19.94,19.94,0,0,1-2.72,9.51,24.31,24.31,0,0,1-7.29,8c-5.06,3.58-11.24,4.94-17.66,4.94A62.57,62.57,0,0,1,296.93,85.37Zm-7.17-13.46a63.24,63.24,0,0,0,15.2,1.6c9.38,0,18-3.08,22.72-11.73a17.48,17.48,0,0,0,2.47-8.28c0-.49-.12-.86-.12-1.35-.86-9.27-8.28-12.48-15.44-17-2.35-1.48-10.13-6.55-10.13-9.76,0-5.56,4.57-7.29,9.27-7.29,9.38,0,14.32,6.8,16.3,6.92.49-.62,5.8-11.24,6.3-12C331.76,7.31,321,3.48,313.85,3.48c-4.08,0-12.35.62-15.93,2.47-2.72,1.36-7.42,4.82-8.53,7.78a20.51,20.51,0,0,1-1.6,3.83,36.09,36.09,0,0,0-.25,5.19v2.84c0,12,22.73,21.49,22.73,27.67,0,3.08-6.8,5.56-9.27,5.56-5.93,0-16.18-4.2-20.38-8.65-2.59,2.1-7.41,10.62-7.41,12.72C273.21,65.36,287.29,71.29,289.76,71.91Z"/><path class="cls-1" d="M374.37,85.5l-3.09-.13-1.36-.12-1.36-.37a8.75,8.75,0,0,1-3.21-2.72L357.57,71a11.71,11.71,0,0,1-1.73-6.67,16.61,16.61,0,0,1,1.48-6.67c.74-1.85,1.85-3.7,2.72-5.55a20.87,20.87,0,0,0,1.73-3.71c.62-1.36,1.11-2.84,1.73-4.2,1-2.35,4.2-9.76,7.41-16.8,2.72-5.8,5.68-12.35,7.53-14.82a7.2,7.2,0,0,1,.62-1.73,23.67,23.67,0,0,1,1.36-2.35,25.49,25.49,0,0,1,3-3.58A10.53,10.53,0,0,1,387,2.24c2.22-.86,6.3-1.11,9.75-1.36,3.71-.12,7.54-.12,9.64-.12h16.92a8.89,8.89,0,0,1,2.22.37,8.37,8.37,0,0,1,1.49.74l1,1.48,6.8,9.64a3.59,3.59,0,0,1,1.11,2.47c0,2-3.95,12.72-7,14a11.11,11.11,0,0,1-3.71.62l-4.57.24h-7.9c-3.58,0-5.68,0-7.17,1.11a8.26,8.26,0,0,0-2.71,3.46c-1.49,2.72-2.72,5.81-4,8.65l-4.94,11.86a35,35,0,0,1,4.33.24,12.16,12.16,0,0,1,2.84.62c.74.25,2.59,2.1,4.07,4.32l3.21,4.82c1.24,2.72,3.09,3.46,3.09,5.31,0,2.35-4.94,12.11-6.3,13.59l-.74,1-1.23-.13h-2.6c-4.57,0-9.26.38-13.83.38-2.47,0-4.82.12-7.29.12Zm-12.48-14c.62.37,5.44.37,9.76.37h7.29c5.43,0,11.11-.62,16.55-.37,1.23-1.36,5.68-10.62,5.68-12s-4.08-1.73-7.29-1.73c-1.85,0-3.33.12-3.83.12-1.11,0-12.35.5-12.35-1.48l15.07-34c1-1.85,3.58-5.06,5.81-5.43a33.19,33.19,0,0,1,6.17-.37h5.07a61.4,61.4,0,0,0,9.63-.5c.13,0,.74-.12.74-.25,1.49-.49,5.44-9.88,5.44-11.61,0-.86-1.73-1.11-2.35-1.11H406.36c-3.46,0-15.19,0-18.41,1.36a7.85,7.85,0,0,0-2.84,2.1c-1.23,1.24-4.32,5.19-4.32,6.92-.74.61-1.48,2.59-1.85,2.71-.37.38-11.74,25.57-13.22,28.91-1.23,2.72-2,5.56-3.46,8.15-1.85,3.34-3.95,7-3.95,11C358.31,67.34,359.05,70.18,361.89,71.54Z"/><path class="cls-1" d="M422.66,77.1l-4.94-7.17-2.84-4a11.82,11.82,0,0,1-1.24-5.68A19,19,0,0,1,415,53.5c15.44-35.32,16.43-37.18,16.92-38.29v-.12L433.53,12a22.16,22.16,0,0,1,1.85-3.33A14.62,14.62,0,0,1,441.56,3c3.21-1.6,9.26-2,14.7-2.22h14.57c3.21,0,6.3-.12,9.51-.12,1.49,0,3.71,0,5.93.12a29.87,29.87,0,0,1,6.67,1.11h.13a9.38,9.38,0,0,1,2.34.87l.62.37,3.21,3L507,17.19a9.48,9.48,0,0,1,1.6,5.43,13.76,13.76,0,0,1-2.1,7,45.12,45.12,0,0,0-2.35,4.08c-3.45,7.54-6.54,15.19-10.25,22.73L488.37,68.2c-2.22,4.57-4.81,9.64-6.54,11.24a20,20,0,0,1-5.81,4A15.9,15.9,0,0,1,471.7,85a32.19,32.19,0,0,1-4.2.25c-9,.37-18,.74-27.05.74C433.53,86,426.61,84.88,422.66,77.1ZM417.1,64.87c3.46,6.67,9.27,7.53,15.57,7.53,2.34,0,4.81-.12,7.28-.12,6.55,0,13.1-.37,19.64-.62,3.83-.12,4.2,0,7.66-1.6a18,18,0,0,0,5.07-3.59c2.34-2.1,9.51-17.91,11.61-22.23,3.7-7.53,6.79-15.19,10.25-22.73a24.61,24.61,0,0,1,2.47-4.32,11.71,11.71,0,0,0,1.73-5.68c0-3.58-2-5.44-4.94-7-3.83-1.12-8.15-1.36-13.22-1.36-3,0-6.05.12-9.39.12-2,0-5.06-.12-8.4-.12-7.16,0-15.93.37-19.88,2.1-4.33,2-6.42,7-8.4,11.11-.5,1-3.83,8.28-3.95,9.15S416.11,55.85,416.11,60.3A9.56,9.56,0,0,0,417.1,64.87Zm17.3-9.27c0-2,5.55-13.71,6.91-16.18,2.72-4.94,6.3-17.17,10-21,1.85-1.85,5.56-2.22,9-2.22,2,0,4,.12,5.32.12.74,0,2.71-.12,4.94-.12,3.58,0,7.9.37,7.9,3S469,40.66,466.76,45c-1.86,3.58-4,11.12-8.28,12.35-2.84.87-12,.87-15.19.87C441.31,58.2,434.4,58.82,434.4,55.6Zm15.43.13a43.85,43.85,0,0,0,7.91-.74c1.11-.37,2.35-1.73,3.58-4.08s2.23-5.19,3.21-7,4-7.66,6.55-13.34l.37-.62c-1.11,0-2.22-.12-3.33-.12a18.15,18.15,0,0,0-4.33.37,5.59,5.59,0,0,0-3,1.23c-1.24,1.12-3,4.57-4.7,8.9s-3.45,8.89-4.81,11.48c-.37.62-1.11,2.1-2,4Z"/><path class="cls-1" d="M496.4,85.87l-2-.37a3.15,3.15,0,0,1-2.35-3l-5.8-8.4-2-2.72a3.38,3.38,0,0,1,.25-1.35,8,8,0,0,0,.37-1.24c.37-.86.86-2.1,1.36-3.58,1.11-2.72,2.59-6.3,4.2-9.88,3-7.17,6.3-14.58,21.49-48.42,1-2.35,1.73-3.83,3-4.7s2.85-1.11,5.56-1.11h13.59l7.78,11.12.5,1.85c.74-1.6,1.48-3.58,2.47-5.43a38.44,38.44,0,0,1,2.34-4.57,9.27,9.27,0,0,1,1.36-1.73,3.66,3.66,0,0,1,2.6-1.24c3.7,0,7.53-.12,11.24-.12a13.09,13.09,0,0,1,2,.12,7.28,7.28,0,0,1,1.61.62l1.48,2.1,6.3,9a3,3,0,0,1,1.48,2.59,10.51,10.51,0,0,1-.37,1.61l-.62,1.23-.86,1.85-8.28,20.14-12.47,29L551,73.14l-1.11,3.34-2,4-1.23,2.35-.74,1-1.36,1a7.48,7.48,0,0,1-2.22.62h-13.1a5.59,5.59,0,0,1-4.07-2.47l-7.29-10.5-.12-.12c-2.72,5.93-4.95,10.87-5.44,11.61a4.24,4.24,0,0,1-2.84,1.73,9.92,9.92,0,0,1-2.59.37ZM495,72.28c.49,0,1.85.12,3.21.12,1.85,0,3.83-.24,4.2-1,1.48-3.21,14.33-31.12,14.45-32.85l.25-.13c.86,0,1.11,3.71,1.11,7,0,2.59-.12,4.94-.12,5.18,0,3.71.49,7.41.74,11,.74,10.25-1.73,10.37,8.89,10.37,1.36,0,7,0,8-.62,1-.12,3.21-5.92,4-7a29.23,29.23,0,0,0,1.11-3.08c3-6.92,5.69-14,9-20.76.12-2.1,10.62-24.08,10.62-25.19.37-.87,2.72-6.18,2.72-7,.25-.37,1.73-3.83,1.73-4,0-.74-1.61-.86-2.59-.86-3.71,0-7.54.12-11.24.12-1.49,0-4.7,7.29-5.19,8.28-.87,1.73-1.24,3.95-2.35,5.43-.62,1.86-6.67,16.18-7.78,18-.12.12-.37.49-.62.49s-.49-.62-.62-1c-.86-2.59-1.11-9.88-1.11-12.84V16.32A48.47,48.47,0,0,0,532.22,3.6l-15-.12c-3.46,5.8-30.51,66.08-30.51,67.93C486.76,72.77,494.17,72.28,495,72.28Z"/><path class="cls-1" d="M47.72,194.83,44,191.55,33.63,176.81l.49-2a11.35,11.35,0,0,1,1.15-3.27c.49-.82,1-1.64,1.47-2.62l7.7-18.84a76.54,76.54,0,0,0,3.77-8.36c2-5.07,4.1-10.15,10.16-22.93a15.38,15.38,0,0,1,.65-2.29c.66-1.64,1.8-3.44,9.5-22.61l1-1.8.32-.82,1-2.13c1.14-3.11,3.76-5.74,5.73-7.37l1-.82h1.31c9.51.49,19,.49,28.67.49h14.25a30.46,30.46,0,0,1,4.76.33,11.51,11.51,0,0,1,3.27.65c.66.33,3.11,1.31,3.11,4.1l7.54,10.81a4.48,4.48,0,0,1,2.79,3.93c0,3.44-7.38,17.53-9,19.66l-1,1.31H115.38l1,1.47L124.22,135a4.16,4.16,0,0,1,2.46,3.93l-.33,2-.65,1.81-1.81,4.75c-1.31,3.27-2.78,6.71-3.27,7.86l-.49,1.31L119,158.3a5.72,5.72,0,0,1-4.75,2.62H101.29l7.86,11.3.82,2.13a12.45,12.45,0,0,1-1,4.26l-3.44,6.88L104.4,188l-.82,2.62-1,1.8a4.39,4.39,0,0,1-2.46,1.81l-2.13.65Zm-9.18-18H85.72c1.32,0,3.12,0,3.12-.49,1,0,2-3.28,2.13-4.1,1-3.27,5.24-9.33,5.4-12.28l-.32-.66c-1.32-1-26-1-20.48-1-2.13,0-5.24-.16-5.24-1.15,0-3.11,4.25-11.63,6.22-14.25,6.39,0,12.94.16,19.33.16,2.62,0,5.41-.16,8-.16,1.8,0,2.78-2.13,3.44-3.6,1-2.46,5.73-13.44,5.73-15.07a1.18,1.18,0,0,0-.49-1c-2.62,0-27.36-.33-28-.65,0-1.31,7.7-17.37,9-18.84,4.58.16,9.17.49,13.76.49h13.92c1.64-2.13,8.36-15.56,8.36-17.69,0-1.81-6.72-1.81-7.87-1.81H107.35c-9.5,0-19,0-28.67-.49-1,.82-4.75,4.59-4.75,6.07-1,2-20,45.21-22.61,52.58-2.13,5.9-13.27,29.32-14.09,32.76Z"/><path class="cls-1" d="M170.74,158l10.49,14.75-.17,1.47c-.16,2.62-1.63,6.39-2.94,9.67-1.32,3.44-3,6.88-3.94,8.84l-.82,1.8L130.61,194c-1.15,0-3.77,0-6.39-.16l-3.93-.49-1.8-.5a7.79,7.79,0,0,1-2.13-1.63L106,176.48l.32-3.44c.33-.32,1.48-4.26,1.81-4.75l4.91-8.68c1.8-4.59,14.58-33.42,19-43.25,2.13-5.08,4.1-10.32,6.56-15.4,5.73-13.1,7.37-16.71,10.48-18.51a5.26,5.26,0,0,1,1.8-.65c.49,0,1-.17,1.64-.17l13.6-.33a5.45,5.45,0,0,1,3,.82l2.29,3.12,8,11.63a4.24,4.24,0,0,1,2.29,3.93,15.5,15.5,0,0,1-1.15,5.08l-1.8,3.93c-6.55,15.07-13.43,30-20,45.05,1.14,0,6.55.49,8.19.65Zm-9.83,18.51c1.64-3.44,6.39-13.59,6.56-17.2-.82-.82-4.92-1.14-9.34-1.14-5.08,0-10.48.32-12.94.32-.82,0-7.7,0-7.7-1.47,0-1.64,2.29-5.08,3.11-6.39,1.64-2.46,3.28-8.19,4.59-11.14,6.55-15.23,13.6-30.47,20.31-45.71.82-2,2.62-5.4,2.62-7.69,0-.33-.16-1.32-.65-1.32h-5.08c-4.75,0-11,0-11.63.5-2,1.14-3.44,3.93-4.1,6.06l-5.08,11.14c-2.45,5.08-4.26,10.15-6.55,15.23-4.26,9.83-25.72,56.68-26.37,56.85.82,1.47,10,1.47,11.63,1.47Zm-18.18-23.1a15.79,15.79,0,0,0-1,1.64Z"/><path class="cls-1" d="M221,193.85l-4.09-.17-1.81-.16-1.8-.49a11.63,11.63,0,0,1-4.26-3.61l-10.32-14.74a15.6,15.6,0,0,1-2.29-8.85,22,22,0,0,1,2-8.84c1-2.46,2.46-4.92,3.61-7.37a26.84,26.84,0,0,0,2.29-4.92c.82-1.8,1.48-3.77,2.3-5.57,1.31-3.11,5.57-12.94,9.82-22.28,3.61-7.7,7.54-16.38,10-19.65a9.33,9.33,0,0,1,.82-2.3,29.27,29.27,0,0,1,1.8-3.11A33.22,33.22,0,0,1,233,87a14.08,14.08,0,0,1,4.75-3.61c2.95-1.14,8.36-1.47,12.94-1.8,4.92-.16,10-.16,12.78-.16H285.9a11.91,11.91,0,0,1,3,.49,10.65,10.65,0,0,1,2,1l1.31,2,9,12.78a4.74,4.74,0,0,1,1.47,3.27c0,2.62-5.24,16.88-9.33,18.51a14.55,14.55,0,0,1-4.92.82l-6.06.33H271.81c-4.75,0-7.53,0-9.5,1.48a10.87,10.87,0,0,0-3.6,4.58c-2,3.61-3.6,7.7-5.24,11.47l-6.56,15.73a46.07,46.07,0,0,1,5.74.32,16,16,0,0,1,3.77.82c1,.33,3.44,2.79,5.4,5.74l4.26,6.39c1.64,3.6,4.1,4.58,4.1,7,0,3.11-6.56,16.05-8.36,18l-1,1.31-1.64-.16h-3.44c-6.06,0-12.29.49-18.35.49-3.27,0-6.39.16-9.66.16Zm-16.54-18.51c.81.49,7.2.49,12.94.49h9.66c7.21,0,14.75-.82,21.95-.49,1.64-1.81,7.54-14.09,7.54-15.89,0-2-5.41-2.3-9.67-2.3-2.45,0-4.42.17-5.07.17-1.48,0-16.39.65-16.39-2l20-45c1.31-2.46,4.75-6.72,7.7-7.21a44.21,44.21,0,0,1,8.19-.49h6.72a83.16,83.16,0,0,0,12.78-.65c.16,0,1-.17,1-.33,2-.66,7.21-13.11,7.21-15.4,0-1.15-2.3-1.48-3.12-1.48H263.46c-4.59,0-20.15,0-24.41,1.81a10.39,10.39,0,0,0-3.77,2.78c-1.63,1.64-5.73,6.88-5.73,9.18-1,.81-2,3.44-2.46,3.6-.49.49-15.56,33.91-17.53,38.33-1.63,3.61-2.62,7.38-4.58,10.81-2.46,4.43-5.25,9.34-5.25,14.58C199.73,169.77,200.72,173.53,204.49,175.34Z"/><path class="cls-1" d="M285.08,182.71l-6.55-9.5L274.76,168a15.67,15.67,0,0,1-1.64-7.53,25.24,25.24,0,0,1,1.8-9c20.48-46.85,21.79-49.31,22.45-50.78v-.17l2.13-4.09A28.83,28.83,0,0,1,302,92c2-3,4.42-5.89,8.19-7.53,4.25-2.13,12.28-2.62,19.49-3H349c4.26,0,8.36-.17,12.61-.17,2,0,4.92,0,7.87.17a39.65,39.65,0,0,1,8.84,1.47h.17a12.45,12.45,0,0,1,3.11,1.15l.82.49,4.26,3.93L397,103.26a12.5,12.5,0,0,1,2.13,7.2,18.32,18.32,0,0,1-2.79,9.34,58.13,58.13,0,0,0-3.11,5.41c-4.59,10-8.68,20.15-13.6,30.14l-7.37,15.56c-3,6.06-6.39,12.78-8.68,14.91a26.53,26.53,0,0,1-7.7,5.24,20.77,20.77,0,0,1-5.73,2.13,40.76,40.76,0,0,1-5.57.33c-12,.49-23.92,1-35.88,1C299.5,194.5,290.32,193,285.08,182.71Zm-7.37-16.22c4.59,8.85,12.29,10,20.64,10,3.11,0,6.39-.16,9.67-.16,8.68,0,17.36-.49,26-.82,5.08-.16,5.57,0,10.16-2.13a23.88,23.88,0,0,0,6.72-4.75c3.11-2.79,12.61-23.75,15.39-29.49,4.92-10,9-20.15,13.6-30.14a33,33,0,0,1,3.28-5.73,15.62,15.62,0,0,0,2.29-7.54c0-4.75-2.62-7.21-6.55-9.34-5.08-1.47-10.81-1.8-17.53-1.8-3.93,0-8,.16-12.45.16-2.62,0-6.72-.16-11.14-.16-9.5,0-21.13.49-26.37,2.79-5.74,2.62-8.52,9.33-11.14,14.74-.66,1.31-5.08,11-5.25,12.12-.16,1.31-18.67,40.3-18.67,46.2A12.66,12.66,0,0,0,277.71,166.49Zm22.93-12.29c0-2.62,7.38-18.18,9.18-21.46,3.6-6.55,8.35-22.77,13.27-27.85,2.45-2.45,7.37-2.94,12-2.94,2.62,0,5.24.16,7,.16,1,0,3.6-.16,6.55-.16,4.75,0,10.49.49,10.49,3.93s-12.62,28.5-15.57,34.24c-2.45,4.75-5.24,14.74-11,16.38-3.77,1.14-15.89,1.14-20.15,1.14C309.82,157.64,300.64,158.46,300.64,154.2Zm20.48.17c4.75-.17,8.85-.49,10.49-1,1.47-.49,3.11-2.29,4.75-5.4,1.8-3.28,2.94-6.88,4.26-9.34,1.31-2.62,5.24-10.16,8.68-17.69l.49-.82c-1.47,0-3-.16-4.42-.16a24.07,24.07,0,0,0-5.74.49,7.26,7.26,0,0,0-3.93,1.64c-1.64,1.47-3.93,6.06-6.22,11.79-2.46,5.73-4.59,11.8-6.39,15.24-.49.81-1.48,2.78-2.62,5.24Z"/><path class="cls-1" d="M411.05,193.85c-6.22,0-12.45-.66-18.67-.66h-1.64l-10.32-14.74-2.78-3.93v-1c0-8.84,13.76-68.47,14.57-74.21s1.81-11.95,4.1-16.21l1-1.81h21.14a8.37,8.37,0,0,1,2,.33,4.51,4.51,0,0,1,2.79,1.64l.16.33L433.5,98a3.74,3.74,0,0,1,.82,2.46,57.94,57.94,0,0,1-.82,6.06c2.29-3.77,4.09-7.7,6.39-11.46,1.14-2,2.62-3.61,3.76-5.57l1.81-3.28,1.31-2.13a8.3,8.3,0,0,1,1.47-2,6,6,0,0,1,2.95-1,10.29,10.29,0,0,1,2.29-.16l17.86.32,3.93.17,10.32,14.74-1,3.93-.66,2-1,1.64-1.8,3-1.31,2-1.31,3.44-34.24,64.38c-1.48,2.79-2.95,5.9-4.59,8.69a23.8,23.8,0,0,1-7.53,8.19l-.82.49Zm-29-18.68c6.22,0,12.45.66,18.67.66h19.33c5.74-3.61,7.7-10.16,11.14-15.73,1-1.64,28-52.09,28.84-53.73,1.63-3.28,3.76-6.72,5.07-10.16.33-.82,2.13-5.89,2.95-6.06.66-1,2.95-4.59,3.12-5.57-2.13-.16-9.18-.33-14.42-.33a35.58,35.58,0,0,0-6.39.33,71,71,0,0,0-3.93,6.72c-4.42,5.57-6.88,11.79-10.65,17.69-.33.49-23.75,39.48-23.92,40.46-.65,1.48-3.6,8.85-5.57,8.85-1,0-1.31-2.29-1.31-3,0-.82,15.73-66.18,15.73-69.62a.6.6,0,0,0-.16-.49c0-.5-1.81-.5-2.13-.66H399.26l-14.58,63.89c-1.8,8-3.6,16.71-3.77,25.06Z"/><path class="cls-1" d="M458.39,194l-2.62-1a4.78,4.78,0,0,1-2.45-3.28l-8-11.47a4.57,4.57,0,0,1-2.29-3.93c0-2,9.33-21.62,17.69-39.64l18.67-39.32c.49-1,1.64-3.6,2.95-6.22a57.65,57.65,0,0,1,2.95-5.41,5,5,0,0,1,2-1.47,4.27,4.27,0,0,1,1.63-.49c.5,0,1-.17,15.73-.17a7.44,7.44,0,0,1,2.46.49A4.16,4.16,0,0,1,510,85.89L517.86,97a4.06,4.06,0,0,1,2.46,3.61c0,2.78-12.29,28-12.78,29.32-1.47,4.42-9,20-9.66,21.46l-16.39,35.06a18.82,18.82,0,0,1-4.26,6.38l-1,1h-1.31c-4.26,0-8.36.33-12.61.33A39.23,39.23,0,0,1,458.39,194ZM452,176.16c4.09,0,8.51-.33,12.61-.33a18,18,0,0,0,3.6-5.57c2.79-5.9,17.2-37.68,18.68-39.15,1.31-4.26,6.88-14.58,7.21-16.88.49-1.14,12.61-25.55,12.61-28.34-.65-1.64-7.37-1.15-9-1.15s-7.86,0-9.17.5c-1.48.65-5.57,10.32-6.23,11.63-3.11,6.55-27.36,57.5-27.52,58.64-.82,1.48-8.52,17.53-8.52,18.84C446.27,176,449.71,176.16,452,176.16Z"/><path class="cls-1" d="M498,193.19l-1.64-.82-.82-1-9.5-13.76-.33-.16a4.41,4.41,0,0,1-.66-4.43c.17-.49.49-1.14.66-1.8.49-1.31,1.31-3.11,2.13-5.08,1.8-4.09,4.26-9.34,6.71-14.74,4.92-10.65,10.16-21.63,11.31-24.08,1.31-3,3-5.9,4.09-8.85.66-1.47,1.15-3.11,1.81-4.75.65-1.31,3.11-7.37,5.73-13.1,1.31-3,2.62-5.74,3.77-8a21.48,21.48,0,0,1,1.47-2.79,4.41,4.41,0,0,1,.49-.82c.49-2.29,2-5.4,4.59-6.71a5.78,5.78,0,0,1,2.62-.49,15.36,15.36,0,0,1,2.95-.17c2.29-.16,5.41-.16,8.52-.16h13.92c5.08,0,10.16-.17,15.24-.17h7.21a48.05,48.05,0,0,1,8.19,1.15c3.27,1,6.55,2.62,8.68,5.57l10.32,14.74a13.26,13.26,0,0,1,2.13,7.54c0,4.1-3.93,13.11-7.7,21-3.93,8.35-8.19,16.71-10,20.48-2.3,4.75-4.26,9.5-6.56,14.25-1.63,3.28-3.6,6.55-4.91,9.83l-.82,2.29a12.8,12.8,0,0,1-1.64,2.62l-2,2.79c-1.8,2.46-4.92,5.73-7.38,6.06l-1,.65a18.55,18.55,0,0,1-6.55,2.3c-1.8.32-3.77.49-5.9.65-13.43,1.15-26.86,1.15-40.3,1.15A77.56,77.56,0,0,1,498,193.19Zm17.2-17c9.17,0,18.18-.17,27.35-1,3.94-.33,7.7-.33,11.14-2.45a13.5,13.5,0,0,1,2.13-1.15c1.15,0,5.9-4.92,6.06-6.06a19.06,19.06,0,0,0,3.12-5.57c1.47-3.44,3.44-6.88,5.08-10.16,2.29-4.59,4.26-9.5,6.55-14.25,3.6-7.7,17.36-33.75,17.36-40,0-6.72-4.42-9.18-10.32-10.32a87.28,87.28,0,0,0-12.61-.66c-5.57,0-11.47.16-15.24.16H548c-7.37,0-17.53,0-18.68.5-1.47.49-2.78,3.6-2.94,5.08-1,.32-13,27-13.27,29.48-2.62,5.08-25.07,52.75-25.07,55,0,.17,0,.17.17.33,0,.17.16,0,.32.17a74,74,0,0,0,14.09,1C507.21,176.32,511.63,176.16,515.24,176.16Zm13.1-46.69c1.64-3.77,3.44-7.54,5.08-11.31,1.15-2.78,2.29-5.89,3.6-8.51a47.71,47.71,0,0,0,2.46-5.08c.66-1.64,1.15-2.13,3.11-2.13h12.13c1.14,0,3.11-.17,5.4-.17,3.77,0,7.87.49,7.87,3.77,0,1.8-16.55,36.86-19.33,42.76-1.81,3.77-3.12,6.06-7,7.53-3.44,1.31-15.56,1.15-19.82,1.15-1.64,0-3.44-.49-5.08-.66C518.51,152.24,528.34,130.94,528.34,129.47Zm10,24.24a13.83,13.83,0,0,0,2.13-.49c2.79-1,3.61-2.29,5.25-5.9,1.14-2.45,6.06-12.61,10.48-22.44l2.13-4.42h-5.41v.16l-2.62,5.24c-1.31,2.79-2.29,5.57-3.44,8.36-1.64,3.77-3.6,7.37-5.08,11.14Z"/><path class="cls-2" d="M14.2,71.1c-4.33,0-9.15,0-9.76-.37C1.6,69.37.85,66.53.85,63.57c0-4,2.11-7.66,4-11C6.29,50,7,47.14,8.27,44.42c1.48-3.33,12.84-28.53,13.21-28.9.37-.13,1.11-2.1,1.86-2.72,0-1.73,3.08-5.68,4.32-6.92a7.76,7.76,0,0,1,2.84-2.1c3.21-1.36,15-1.36,18.4-1.36H65.83c.61,0,2.34.25,2.34,1.12,0,1.72-4,11.11-5.43,11.61,0,.12-.62.24-.74.24a61.53,61.53,0,0,1-9.64.5H47.3a33.35,33.35,0,0,0-6.18.37c-2.22.37-4.81,3.58-5.8,5.43l-15.07,34c0,2,11.24,1.48,12.35,1.48.49,0,2-.12,3.83-.12,3.21,0,7.29.25,7.29,1.73s-4.45,10.62-5.69,12c-5.43-.25-11.11.37-16.55.37Z"/><path class="cls-2" d="M54.09,70.73c0-2.72,7.9-20.38,9.63-23.84,0-1.11,6.67-14.94,8-18.53C74.47,21.08,84.1,3,84.35,2.18L100,2.3c-4,8.89-7.78,18-10.87,27.3h16.55L109.55,20a23.52,23.52,0,0,0,3.09-6.91,81,81,0,0,1,4.2-8.9l1-2.59,8.64.25c.87,0,6.67,0,6.67,1.35a35,35,0,0,1-1.73,4.08c-.12.74-6.79,16.18-6.91,16.55-.5.62-13.59,32.61-15.69,36.94a16.54,16.54,0,0,1-1.24,3.08C104.24,72.34,105.1,72,94.11,72c-2.35,0-5.81-.13-6.42-1.36,0-2.47,7.28-15.32,7.53-18.28.62-.75,2.72-5.69,3.46-7h-8.4c-.62,0-2.22-.13-3.83-.13-2.35,0-4.82.25-5.43,1L74.1,62.7c-.62,1.36-3.34,8.4-4.57,9.27-4.2,0-8.65.24-12.72.24C55.45,72.21,54.09,72,54.09,70.73Z"/><path class="cls-2" d="M119.06,70c0-1,5.8-13.09,6.42-14.21.12-.86,18.4-39.27,20.75-44.22.49-1,3.58-8.27,4.69-8.77s5.69-.37,6.92-.37,6.3-.37,6.8.87c0,2.1-9.15,20.5-9.52,21.37-.24,1.73-4.44,9.51-5.43,12.72-1.11,1.11-12,25.07-14.08,29.52a13.44,13.44,0,0,1-2.72,4.2c-3.09,0-6.42.25-9.51.25C121.65,71.35,119.06,71.22,119.06,70Z"/><path class="cls-2" d="M173.65,71.1c-4.69,0-9.39-.49-14.08-.49l-.86-1.24c.12-6.3,1.48-12.84,2.84-18.9l11-48.17H187c.25.12,1.61.12,1.61.49a.47.47,0,0,1,.12.37c0,2.6-11.86,51.88-11.86,52.5s.25,2.22,1,2.22c1.48,0,3.71-5.55,4.2-6.67.12-.74,17.79-30.13,18-30.51,2.84-4.44,4.7-9.14,8-13.34a55.46,55.46,0,0,1,3-5.06,26.66,26.66,0,0,1,4.81-.25c4,0,9.27.13,10.87.25a23.88,23.88,0,0,1-2.34,4.2c-.62.12-2,3.95-2.23,4.57-1,2.59-2.59,5.19-3.82,7.66-.62,1.23-21,39.28-21.74,40.51-2.6,4.2-4.08,9.14-8.4,11.86Z"/><path class="cls-2" d="M205.15,69.87c0-1.12,12.22-23.72,14.08-25.57,1-3.09,5.31-9.76,6.91-12.6.75-1.24,2-2.6,2.6-3.83,3.46-6.79,7-14.21,11.86-20.13a28.26,28.26,0,0,1,3.46-5.44h29.76c0,1.85-.37,3.58-.37,5.44-1.23,3.33-4.32,19.14-5.06,19.76-.13,3.09-1.85,6-1.85,9.14-2.23,4.82-6.55,32.61-8.77,33.6-1.12.49-6.43.37-7.66.37h-6.8a50.66,50.66,0,0,1,1.86-13,38.45,38.45,0,0,0-3.83-.37c-.62,0-3-.13-5.19-.13-2.59,0-5.19.13-5.81.87a34.55,34.55,0,0,0-2.71,4.57c-5.31,9.63-3.59,8.52-17.17,8.52C208,71.1,205.15,70.85,205.15,69.87Zm43.1-27.06c.5-.12.75-1.6.75-2,1.35-2.72,1.23-5.93,1.85-8.77a12.61,12.61,0,0,0,.86-3.09,28.3,28.3,0,0,0,1.86-8.52c0-.62.24-1.73-.75-1.73-1.6,0-6.29,8.64-6.91,9.88-1.11,2-8.15,14.58-8.15,14.7s0,.12.12.25C239.24,43.56,247.76,43.19,248.25,42.81Z"/><path class="cls-2" d="M288.15,71.1c-2.47-.62-16.55-6.55-16.55-9,0-2.1,4.81-10.62,7.41-12.72,4.2,4.45,14.45,8.65,20.38,8.65,2.47,0,9.26-2.47,9.26-5.56,0-6.18-22.73-15.69-22.73-27.67V21.94a36.09,36.09,0,0,1,.25-5.19,21.23,21.23,0,0,0,1.61-3.83c1.11-3,5.8-6.42,8.52-7.78,3.58-1.85,11.86-2.47,15.93-2.47,7.17,0,17.91,3.83,22.48,9.51-.49.74-5.8,11.37-6.29,12-2-.12-6.92-6.91-16.31-6.91-4.69,0-9.26,1.73-9.26,7.28,0,3.22,7.78,8.28,10.12,9.76,7.17,4.57,14.58,7.78,15.45,17.05,0,.49.12.86.12,1.36A17.47,17.47,0,0,1,326.07,61c-4.7,8.65-13.34,11.74-22.73,11.74A62.61,62.61,0,0,1,288.15,71.1Z"/><path class="cls-2" d="M370,71.1c-4.32,0-9.14,0-9.75-.37-2.84-1.36-3.59-4.2-3.59-7.16,0-4,2.1-7.66,4-11,1.48-2.59,2.22-5.43,3.46-8.15,1.48-3.33,12.84-28.53,13.21-28.9.37-.13,1.11-2.1,1.85-2.72,0-1.73,3.09-5.68,4.33-6.92a7.76,7.76,0,0,1,2.84-2.1c3.21-1.36,15-1.36,18.4-1.36h16.93c.61,0,2.34.25,2.34,1.12,0,1.72-3.95,11.11-5.43,11.61,0,.12-.62.24-.74.24a61.53,61.53,0,0,1-9.64.5h-5.06a33.29,33.29,0,0,0-6.18.37c-2.22.37-4.82,3.58-5.8,5.43l-15.07,34c0,2,11.24,1.48,12.35,1.48.49,0,2-.12,3.83-.12,3.21,0,7.29.25,7.29,1.73s-4.45,10.62-5.69,12c-5.43-.25-11.11.37-16.55.37Z"/><path class="cls-2" d="M415.49,64.06a9.53,9.53,0,0,1-1-4.57c0-4.45,14-33.84,14.08-34.83s3.46-8.15,3.95-9.14c2-4.08,4.08-9.14,8.4-11.12,3.95-1.73,12.73-2.1,19.89-2.1,3.33,0,6.42.12,8.4.12,3.33,0,6.42-.12,9.39-.12,5.06,0,9.38.25,13.21,1.36,3,1.6,4.94,3.46,4.94,7A11.71,11.71,0,0,1,495,16.38a25.26,25.26,0,0,0-2.47,4.32c-3.45,7.54-6.54,15.2-10.25,22.73-2.1,4.33-9.26,20.14-11.61,22.24a18.27,18.27,0,0,1-5.06,3.58c-3.46,1.6-3.83,1.48-7.66,1.6-6.55.25-13.1.62-19.64.62-2.47,0-4.94.12-7.29.12C424.75,71.59,419,70.73,415.49,64.06Zm41.38-7.53c4.32-1.24,6.42-8.77,8.27-12.36,2.23-4.32,11.74-23.22,11.74-25.81s-4.33-3-7.91-3c-2.22,0-4.2.13-4.94.13-1.36,0-3.33-.13-5.31-.13-3.46,0-7.17.37-9,2.23-3.7,3.83-7.28,16.05-10,21-1.36,2.48-6.92,14.21-6.92,16.19,0,3.21,6.92,2.59,8.89,2.59C444.88,57.39,454,57.39,456.87,56.53Z"/><path class="cls-2" d="M493.42,71.47c-.86,0-8.27.5-8.27-.86,0-1.86,27.05-62.13,30.51-67.94l14.94.12a48.51,48.51,0,0,1,1.24,12.73V21.2c0,3,.24,10.25,1.11,12.84.12.38.25,1,.62,1s.49-.37.61-.49c1.12-1.85,7.17-16.18,7.79-18,1.11-1.49,1.48-3.71,2.34-5.44.5-1,3.71-8.28,5.19-8.28,3.71,0,7.54-.12,11.24-.12,1,0,2.59.12,2.59.87,0,.12-1.48,3.58-1.72,4,0,.86-2.35,6.17-2.72,7,0,1.11-10.5,23.1-10.62,25.2-3.34,6.79-6.06,13.83-9,20.75a31.84,31.84,0,0,1-1.11,3.09c-.74,1.11-3,6.91-4,7-1,.61-6.67.61-8,.61-10.63,0-8.16-.12-8.9-10.37-.25-3.58-.74-7.29-.74-11,0-.25.12-2.6.12-5.19,0-3.34-.24-7-1.11-7l-.24.12c-.13,1.73-13,29.65-14.46,32.86-.37.74-2.34,1-4.2,1C495.28,71.59,493.92,71.47,493.42,71.47Z"/><path class="cls-3" d="M36.93,176l-1.31-1.14c.82-3.44,12-26.87,14.09-32.77,2.62-7.37,21.62-50.62,22.6-52.58,0-1.48,3.77-5.24,4.76-6.06,9.66.49,19.16.49,28.66.49h14.42c1.15,0,7.86,0,7.86,1.8,0,2.13-6.71,15.56-8.35,17.69H105.73c-4.58,0-9.17-.32-13.76-.49-1.31,1.48-9,17.53-9,18.84.66.33,25.39.66,28,.66a1.17,1.17,0,0,1,.49,1c0,1.64-4.75,12.61-5.74,15.07-.65,1.47-1.63,3.6-3.44,3.6-2.62,0-5.4.17-8,.17-6.39,0-13-.17-19.33-.17-2,2.62-6.23,11.14-6.23,14.26,0,1,3.11,1.14,5.24,1.14-5.57,0,19.17,0,20.48,1l.33.65c-.17,3-4.43,9-5.41,12.29-.16.82-1.14,4.09-2.13,4.09,0,.49-1.8.49-3.11.49Z"/><path class="cls-3" d="M156.51,157.33c4.43,0,8.52.33,9.34,1.15-.16,3.6-4.91,13.76-6.55,17.2l-40.63-.49c-1.64,0-10.81,0-11.63-1.48.66-.16,22.12-47,26.38-56.84,2.29-5.08,4.09-10.16,6.55-15.24l5.08-11.14c.65-2.13,2.13-4.91,4.09-6.06.66-.49,6.88-.49,11.63-.49h5.08c.49,0,.66,1,.66,1.31,0,2.29-1.8,5.73-2.62,7.7-6.72,15.23-13.76,30.47-20.32,45.7-1.31,2.95-2.95,8.69-4.58,11.14-.82,1.31-3.12,4.75-3.12,6.39,0,1.48,6.88,1.48,7.7,1.48C146,157.66,151.44,157.33,156.51,157.33Zm-16.38-3.11a13.89,13.89,0,0,1,1-1.64Zm1.64-2.62a3.62,3.62,0,0,1-.65,1Z"/><path class="cls-3" d="M215.81,175c-5.73,0-12.12,0-12.94-.49-3.77-1.8-4.75-5.57-4.75-9.5,0-5.24,2.78-10.16,5.24-14.58,2-3.44,2.95-7.21,4.59-10.81,2-4.43,17-37.85,17.53-38.34.49-.16,1.47-2.78,2.45-3.6,0-2.29,4.1-7.54,5.74-9.17a10.14,10.14,0,0,1,3.77-2.79c4.26-1.8,19.82-1.8,24.4-1.8h22.45c.82,0,3.11.33,3.11,1.47,0,2.3-5.24,14.75-7.21,15.4,0,.17-.82.33-1,.33a83.16,83.16,0,0,1-12.78.65h-6.71a43.4,43.4,0,0,0-8.2.5c-2.94.49-6.38,4.75-7.69,7.2l-20,45.05c0,2.62,14.91,2,16.38,2,.66,0,2.62-.16,5.08-.16,4.26,0,9.66.32,9.66,2.29,0,1.8-5.89,14.09-7.53,15.89-7.21-.33-14.74.49-22,.49Z"/><path class="cls-3" d="M276.09,165.68a12.66,12.66,0,0,1-1.31-6.06c0-5.89,18.51-44.88,18.68-46.19.16-1.15,4.59-10.82,5.24-12.13,2.62-5.4,5.41-12.12,11.14-14.74,5.24-2.29,16.87-2.79,26.38-2.79,4.42,0,8.51.17,11.14.17,4.42,0,8.51-.17,12.45-.17,6.71,0,12.45.33,17.52,1.81,3.94,2.13,6.56,4.58,6.56,9.33a15.6,15.6,0,0,1-2.3,7.54,32.31,32.31,0,0,0-3.27,5.73c-4.59,10-8.69,20.15-13.6,30.15-2.78,5.73-12.29,26.7-15.4,29.48a23.54,23.54,0,0,1-6.72,4.75c-4.58,2.13-5.07,2-10.15,2.13-8.68.33-17.37.82-26.05.82-3.28,0-6.55.17-9.66.17C288.38,175.68,280.68,174.53,276.09,165.68Zm54.88-10c5.74-1.64,8.52-11.63,11-16.38,2.95-5.74,15.56-30.8,15.56-34.24s-5.73-3.93-10.48-3.93c-2.95,0-5.57.16-6.56.16-1.8,0-4.42-.16-7-.16-4.59,0-9.5.49-12,3-4.91,5.08-9.66,21.29-13.27,27.85-1.8,3.27-9.17,18.84-9.17,21.46,0,4.26,9.17,3.44,11.79,3.44C315.08,156.84,327.21,156.84,331,155.69Z"/><path class="cls-3" d="M399.12,175c-6.23,0-12.45-.65-18.68-.65l-1.14-1.64c.16-8.36,2-17,3.76-25.07l14.58-63.89h19.17c.33.17,2.13.17,2.13.66a.61.61,0,0,1,.16.49c0,3.44-15.72,68.81-15.72,69.62,0,.66.33,3,1.31,3,2,0,4.91-7.37,5.57-8.84.16-1,23.59-40,23.92-40.47,3.76-5.89,6.22-12.12,10.64-17.69a72.37,72.37,0,0,1,3.94-6.72,35.87,35.87,0,0,1,6.38-.32c5.25,0,12.29.16,14.42.32-.16,1-2.46,4.59-3.11,5.57-.82.17-2.62,5.25-2.95,6.07-1.31,3.44-3.44,6.88-5.08,10.15-.82,1.64-27.85,52.1-28.83,53.73-3.44,5.57-5.41,12.13-11.14,15.73Z"/><path class="cls-3" d="M444.66,173.55c0-1.31,7.7-17.37,8.51-18.84.17-1.15,24.41-52.1,27.53-58.65.65-1.31,4.75-11,6.22-11.63,1.31-.49,7.54-.49,9.18-.49s8.35-.49,9,1.14c0,2.79-12.13,27.2-12.62,28.35-.33,2.29-5.9,12.61-7.21,16.87-1.47,1.47-15.89,33.25-18.67,39.15A18.05,18.05,0,0,1,463,175c-4.09,0-8.51.33-12.61.33C448.1,175.35,444.66,175.19,444.66,173.55Z"/><path class="cls-3" d="M486.92,174.53c-.17-.16-.33,0-.33-.16-.16-.17-.16-.17-.16-.33,0-2.3,22.44-50,25.06-55,.33-2.45,12.29-29.15,13.27-29.48.16-1.48,1.47-4.59,3-5.08,1.15-.49,11.3-.49,18.67-.49h7.87c3.77,0,9.66-.17,15.23-.17a88.81,88.81,0,0,1,12.62.66c5.89,1.15,10.32,3.6,10.32,10.32,0,6.23-13.76,32.27-17.37,40-2.29,4.75-4.26,9.67-6.55,14.25-1.64,3.28-3.6,6.72-5.08,10.16a19.26,19.26,0,0,1-3.11,5.57c-.16,1.15-4.92,6.06-6.06,6.06a13.08,13.08,0,0,0-2.13,1.15c-3.44,2.13-7.21,2.13-11.14,2.46-9.18.82-18.19,1-27.36,1-3.6,0-8,.16-12.61.16A74,74,0,0,1,486.92,174.53Zm53.08-19c3.93-1.48,5.24-3.77,7-7.54,2.78-5.9,19.33-40.95,19.33-42.75,0-3.28-4.09-3.77-7.86-3.77-2.3,0-4.26.16-5.41.16H541c-2,0-2.46.49-3.11,2.13a49.72,49.72,0,0,1-2.46,5.08c-1.31,2.62-2.46,5.73-3.61,8.52-1.63,3.76-3.44,7.53-5.07,11.3,0,1.48-9.83,22.77-11.63,27.36,1.63.16,3.44.65,5.07.65C524.43,156.67,536.56,156.84,540,155.53Z"/></svg>