<svg id="Capa_1" data-name="Capa 1" xmlns="http://www.w3.org/2000/svg" xmlns:xlink="http://www.w3.org/1999/xlink" viewBox="0 0 225.68 182.04"><defs><style>.cls-1{fill:none;}.cls-2{clip-path:url(#clip-path);}.cls-3{fill:#ead846;}.cls-4{fill:#231f20;}.cls-5{fill:#c13736;}.cls-6{fill:#4aa8c5;}</style><clipPath id="clip-path"><rect class="cls-1" width="225.68" height="182.04"/></clipPath></defs><title>descargar</title><g class="cls-2"><path class="cls-3" d="M199.1,86.11c4.41-2.42,5.5-6.68,6.25-11.12.15-2.63-.66-5.07-1.23-7.55-1.57-6.89-5.55-11.65-12.34-13.87a11.78,11.78,0,0,0-3.43-.61c-1-7.2-6.38-15.54-13.62-17-3.09-.62-10.21-1-14.64.9a18.79,18.79,0,0,0-.83-2A9.67,9.67,0,0,0,152,29a13.35,13.35,0,0,0-4-.38c-2.18.28-3.27-.73-4.05-2.53a10.51,10.51,0,0,0-2.88-3.87c-3.75-3.15-8.19-3.92-12.88-3.87a20.89,20.89,0,0,0-6.59,1.36c-3.31,1.12-6.48,2.38-9,4.9-.49.5-1.2.79-1.65,1.31-.63.73-1.1.42-1.57-.07a46.52,46.52,0,0,0-3.59-3.57,24.06,24.06,0,0,0-15-5.41c-4.55-.17-8.78,1.2-12.91,2.95a14.2,14.2,0,0,0-3,1.55,44.1,44.1,0,0,0-7,7,32.53,32.53,0,0,0-3.09,5.28,15.12,15.12,0,0,0-1.23,2.89A5.15,5.15,0,0,0,62,36.6c-2.48.48-5-.09-7.55.31a23.17,23.17,0,0,0-6.66,2.29,39.63,39.63,0,0,0-10.37,7.62c-5.91,6.19-6.68,14.85-3.5,22.56a3.58,3.58,0,0,0-1.47,1.69c-.29.66-.74,1.2-1.08,1.81-2,3.58-3,7.28-1.39,11.32.68,1.68.52,2.26-1,3.11a13.77,13.77,0,0,0-5.45,6.07C20.36,99.53,19.45,105.9,22,112.6a15.6,15.6,0,0,0,11.24,10.22c2.63.67,2.64.64,2.45,3.25,0,.14,0,.29,0,.61a8.74,8.74,0,0,0,.83,5.13,7,7,0,0,0,4.67,4,4.6,4.6,0,0,0,.38,3.38c2.39,4.74,6,6.7,11.3,7,3.69.2,7.49,0,10.51-2A23.22,23.22,0,0,0,65.24,148a10.86,10.86,0,0,0,12.48,4.67,2.9,2.9,0,0,1,3,.29A25.94,25.94,0,0,0,91,157.22a19.49,19.49,0,0,0,14.35-2.14,29.31,29.31,0,0,0,8-7,11.46,11.46,0,0,0,4.29,3.06c4.43,1.63,8.81,2.49,13.63,1.21a32.94,32.94,0,0,0,12.74-6.42,4.24,4.24,0,0,1,3.43-1.11,35.48,35.48,0,0,0,8.23-.33,11.5,11.5,0,0,0,5.1-2,3.36,3.36,0,0,0,.83.53,9.46,9.46,0,0,0,8.63.17,14.74,14.74,0,0,0,5.16-5.1,3.65,3.65,0,0,0,.5-1.1,4.51,4.51,0,0,0,.52,0,24.14,24.14,0,0,0,11.27-3.12c4.18-2.5,5.15-6.29,5.09-10.59a2.75,2.75,0,0,1,1.3-2.79c1.61-1,3.15-2.17,4.65-3.35,2.31-1.82,3.5-4.36,4.44-7.07a21.14,21.14,0,0,0-1-16.43,25.69,25.69,0,0,0-4.1-5.64c-.44-.51-.42-.83,0-1.2a6.78,6.78,0,0,1,1-.74"/><path class="cls-4" d="M15.34,24.81c-2.35-2.55-4.81-5-6.95-7.72A3,3,0,0,0,5.21,16,6.51,6.51,0,0,0,.4,22c.47,3.42,3.11,4.16,4.35,5.13C8.3,30,12.11,32.42,15.44,35.5A40,40,0,0,0,20.19,39a142.16,142.16,0,0,1,12.5,9.4,39.86,39.86,0,0,0,5.64,4.39c1.37.79,2.05.65,2.92-.54a3,3,0,0,0,.6-2.56,5.47,5.47,0,0,0-2.08-3.09A169.37,169.37,0,0,1,25.94,34.5,41.78,41.78,0,0,0,20.89,30a37.78,37.78,0,0,1-5.55-5.18"/><path class="cls-4" d="M163.79,134.45a4.27,4.27,0,0,0-2.8,1.79,6.49,6.49,0,0,1-4.05,2.85,12.27,12.27,0,0,1-9.29-.49c-2.71-1.29-5.18-.22-6.09,2.54a6,6,0,0,1-1.89,2.75c-6.34,5.36-17.4,5.62-22.58-2.81a3.09,3.09,0,0,0-5.12-.24,6.42,6.42,0,0,0-1.75,3.09c-.14.89-.9,1.4-1.43,2s-1,1-1.43,1.56a13.34,13.34,0,0,1-9.43,5c-2.64.29-5.05-.54-7.49-1.15a6.17,6.17,0,0,1-3.73-2.65,13.64,13.64,0,0,0-1.8-2.08c-2.14-2.27-3.65-2.4-6.09-.57a4.89,4.89,0,0,1-7.45-1.33,12.85,12.85,0,0,1-1.23-2.69c-.48-1.43-.58-2.91-.92-4.36s-1-2.07-2.43-2.08c-1.24,0-1.47.25-2,2a7.69,7.69,0,0,0-.2,3.13A17.25,17.25,0,0,0,67,147.29,10.87,10.87,0,0,0,79.51,152a2.9,2.9,0,0,1,3,.29,25.88,25.88,0,0,0,10.28,4.31,19.46,19.46,0,0,0,14.34-2.14,29.31,29.31,0,0,0,8-7,11.42,11.42,0,0,0,4.3,3.06c4.42,1.63,8.8,2.48,13.63,1.21a33.08,33.08,0,0,0,12.74-6.42,4.18,4.18,0,0,1,3.42-1.11,35.55,35.55,0,0,0,8.24-.33c3.89-.5,6.57-2.73,8.89-5.6a2.46,2.46,0,0,0,0-3.14c-.64-1-1.53-.89-2.46-.65"/><path class="cls-4" d="M161.05,34.17a9.7,9.7,0,0,0-7.27-5.85,13.32,13.32,0,0,0-4-.38c-2.18.28-3.26-.73-4.05-2.53a10.43,10.43,0,0,0-2.88-3.87c-3.74-3.15-8.19-3.92-12.87-3.87a20.93,20.93,0,0,0-6.6,1.35c-3.31,1.13-6.48,2.39-9,4.91-.49.49-1.19.79-1.65,1.31-.62.72-1.1.42-1.57-.07a44.67,44.67,0,0,0-3.58-3.57,24,24,0,0,0-15.06-5.41c-4.55-.17-8.78,1.2-12.9,2.95a14,14,0,0,0-3,1.55,44.87,44.87,0,0,0-7,7A32.62,32.62,0,0,0,66.46,33c-1.54,2.72-1.9,5.74-2.54,8.25C63.8,43.37,64,44,65,44.4a2.89,2.89,0,0,0,3.23-1,3.61,3.61,0,0,0,1.09-2.25c.16-3,1.61-5.67,2.73-8.4.73-1.78,2.27-2.87,3.39-4.31a18.71,18.71,0,0,1,6.46-5.34C86.24,20.92,91,20.86,95.75,21a3.08,3.08,0,0,1,.81.23,19.91,19.91,0,0,1,8.49,5.34c1.52,1.57,3.07,3.11,4.57,4.69a2,2,0,0,0,2.1.68,4.73,4.73,0,0,0,2.71-1.5c3.39-4.06,7.47-7.08,12.8-8.07a16.26,16.26,0,0,1,8.78.44,9.59,9.59,0,0,1,6.34,8.08c.35,2.29,1.25,3,3.58,2.82a9.74,9.74,0,0,0,1.86-.38,21.28,21.28,0,0,1,2.49-.55,3.91,3.91,0,0,1,3.47,1.08c1.95,1.75,3.47,3.66,3.82,6.36a2,2,0,0,0,2,1.88,3,3,0,0,0,3-3.52,19.56,19.56,0,0,0-1.48-4.41"/><path class="cls-4" d="M185.81,129.93a13.76,13.76,0,0,1-7.57,1.44,6.88,6.88,0,0,0-3.54.38,2,2,0,0,0-1.38,1.72,2,2,0,0,0,1.18,1.89,7,7,0,0,0,3.63,1,24.1,24.1,0,0,0,11.26-3.12c4.18-2.51,5.15-6.29,5.1-10.59a2.71,2.71,0,0,1,1.3-2.79c1.61-1,3.15-2.17,4.65-3.35,2.31-1.82,3.49-4.36,4.43-7.07a21.09,21.09,0,0,0-1-16.43,25.73,25.73,0,0,0-4.11-5.64c-.44-.51-.41-.83,0-1.21a7.38,7.38,0,0,1,1-.73c4.42-2.42,5.51-6.68,6.25-11.12.15-2.63-.66-5.07-1.22-7.55-1.58-6.89-5.56-11.65-12.34-13.87a10.7,10.7,0,0,0-5.24-.47,2.23,2.23,0,0,0-2,1.87,2.18,2.18,0,0,0,1.48,2.12,4.58,4.58,0,0,0,1.64.39,11.67,11.67,0,0,1,10.16,6.92,30.18,30.18,0,0,1,1.73,4.32,13.52,13.52,0,0,1-.23,9.72c-.86,2-2,4-4.17,4.83a4.94,4.94,0,0,0-3.4,3.92,2.69,2.69,0,0,0,.92,3c1.74,1.22,2.72,3,3.95,4.62,2.66,3.53,2.8,7.39,2.34,11.47-.25,2.2-1.54,3.92-2.51,5.79a9.31,9.31,0,0,1-4,3.94,20,20,0,0,1-4.84,1.42c-3,.79-3.85,2.32-2.07,4.88.08.12.2.21.28.32a5.23,5.23,0,0,1-1.79,7.92"/><path class="cls-4" d="M30.74,86.65a13.72,13.72,0,0,0-5.44,6.06c-3.15,6.16-4.07,12.53-1.49,19.23a15.6,15.6,0,0,0,11.24,10.22c2.64.67,2.64.64,2.46,3.25a4.1,4.1,0,0,0,0,.6,8.61,8.61,0,0,0,.83,5.14c1.82,4.41,7.46,5.08,10.47,3.87a1.91,1.91,0,0,0,1.21-2.57,2.5,2.5,0,0,0-2.23-1.39c-3.62-.32-5.26-3.16-4.14-6.74.38-1.23,1-2.33,1.48-3.51A2.64,2.64,0,0,0,42.51,117c-.77,0-1.53.27-2.3.37-3.07.43-5.87,0-8.19-2.33-4.74-4.78-5.57-13.08-2.84-18.13.33-.62.67-1.25.95-1.9a10,10,0,0,1,7.93-6.23,2.5,2.5,0,0,0,2.37-2,2.41,2.41,0,0,0-1.18-2.68,6.94,6.94,0,0,1-2.47-6.42c.29-2.83,1.69-5.22,4.77-6.15,1.28-.39,1.77-1.24,1.53-2.15a2.74,2.74,0,0,0-2.38-1.76c-1.33.16-2.65.4-4,.69a3.58,3.58,0,0,0-2.52,2.11,19.21,19.21,0,0,1-1.08,1.81c-2,3.58-3,7.28-1.38,11.32.67,1.67.51,2.26-1,3.11"/><path class="cls-4" d="M13.94,179.23a5,5,0,0,0,3.29.49,6.93,6.93,0,0,0,1.78-.55A16.43,16.43,0,0,0,23.19,176q14.67-13.74,29.32-27.5a7.51,7.51,0,0,0,2.39-3.21c.38-1.3-.2-3-1.51-3.3-1.13-.28-2.22.51-3.13,1.24q-11.4,9.3-22.74,18.68-5.67,4.69-11.31,9.42c-2.18,1.82-6.74,5.33-2.27,7.9"/><path class="cls-4" d="M216.87,2.22a11.08,11.08,0,0,0-4.57,2.93q-13.76,12.41-28,24.25a73.52,73.52,0,0,0-8.62,7.92c-.88,1-5.83,6.52-1.62,6.73h.05a5,5,0,0,0,3.2-1.65q19.59-17.29,40.84-32.59c1.87-1.35,4-3.34,3.29-5.53-.55-1.75-2.76-2.49-4.54-2.06"/><path class="cls-4" d="M222.08,21.74c-2.1-.23-4.11.78-6,1.77-3.24,1.72-6.47,3.47-9.7,5.21L187.2,39.08c-1.69.92-5.5,2.39-6.35,4.23a3,3,0,0,0,2.39,4.07c1.75.23,3.42-.68,4.95-1.55a349.35,349.35,0,0,1,33.92-16.95c1.42-.61,3-1.37,3.45-2.84a2.17,2.17,0,0,0,.07-.24c.42-1.93-1.53-3.84-3.55-4.06"/><path class="cls-4" d="M173.87,34.36,196.61,7.24c1.27-1.52,2.63-3.48,1.9-5.33s-3.29-2.34-5.1-1.54-3,2.5-4.2,4.11q-7,9.79-14.4,19.33c-2.41,3.11-4.88,6.16-7.3,9.26C166,35,166.15,37.84,169,37.65a4.39,4.39,0,0,0,.82-.12c1.71-.4,3-1.83,4.09-3.17"/><path class="cls-4" d="M24,8A3.25,3.25,0,0,0,23.09,8a5.18,5.18,0,0,0-3.94,3.27c-.54,1.84,1,3.61,2.23,4.81A182.16,182.16,0,0,1,41.86,40.67a33.14,33.14,0,0,0,5.71,7,2.73,2.73,0,0,0,1.76.8A2.06,2.06,0,0,0,51,46.16a6,6,0,0,0-1.29-2.84L27.82,11.38C26.84,10,25.58,8.38,24,8"/><path class="cls-4" d="M204.81,167.78Q192.55,155.36,180.28,143a5.88,5.88,0,0,0-2-1.52,2.13,2.13,0,0,0-.33-.11c-2.93-.87-2.35,3.32-1.41,4.91a17.37,17.37,0,0,0,3,3.38c8.36,8.11,15,17.82,22.69,26.55a3.35,3.35,0,0,0,1.58,1.19,2.54,2.54,0,0,0,2.12-.61,4.9,4.9,0,0,0,1.66-5,9.59,9.59,0,0,0-2.77-3.95"/><path class="cls-4" d="M168.35,142.08c-1.47,1.56,0,4.59.73,6.22a253,253,0,0,1,10.63,29.86c.39,1.35.86,2.83,2.07,3.53a3.34,3.34,0,0,0,4-.89,4.81,4.81,0,0,0,1.08-2.57,6.84,6.84,0,0,0,0-1.63,16.11,16.11,0,0,0-1.32-4.25l-5-12.06c-1.69-4.09-3.39-8.18-4.67-12.41-.59-1.93-1.15-4-2.61-5.38-1.17-1.1-3.67-1.75-4.93-.42"/><path class="cls-4" d="M0,44.28a3.21,3.21,0,0,0,.3,1c.6,1.2,2,1.79,3.2,2.32C13.75,52,23,58.33,32.77,63.56c1.26.67,3,1.27,4,.24a2.32,2.32,0,0,0,0-2.79A6.85,6.85,0,0,0,34.5,59.1Q20.37,50.42,7.12,40.43a7.24,7.24,0,0,0-3.27-1.69C1.33,38.43-.28,41.91,0,44.28"/><path class="cls-4" d="M215.68,156.8,189,138.71a6.59,6.59,0,0,0-2.8-1.3c-3.08-.36-3.24,2.92-1.31,4.45L210,161.71a7,7,0,0,0,3.25,1.71,2.67,2.67,0,0,0,.89,0,4.29,4.29,0,0,0,2.62-2,3.3,3.3,0,0,0,.65-2.77,3.92,3.92,0,0,0-1.7-1.79"/><path class="cls-4" d="M57.18,31.21q-3.49-9.67-7-19.37a5,5,0,0,0-1-1.9,2.75,2.75,0,0,0-1.37-.74,3.78,3.78,0,0,0-2,.12C43,10.26,42.24,12.43,43.4,15L53.78,38.39a7.35,7.35,0,0,0,1.44,2.37,2.53,2.53,0,0,0,2.54.72c1.56-.57,1.63-2.74,1.27-4.36a51.81,51.81,0,0,0-1.85-5.91"/><path class="cls-4" d="M45.75,178.7c.88.26,1.8.4,2.42.53,2,.17,3.08-.36,3.46-2a37.9,37.9,0,0,1,1.55-4.14c2-5.9,4.81-11.42,7.43-17a6,6,0,0,0,.18-4.82,2.48,2.48,0,0,0-1.86-1.82,2.07,2.07,0,0,0-2.27,1.2c-.85,1.38-1.73,2.75-2.49,4.19-2.23,4.25-4.41,8.53-6.62,12.79-1.24,2.38-2.57,4.71-3.71,7.14a2.83,2.83,0,0,0,1.91,4"/><path class="cls-4" d="M9.41,153A1.81,1.81,0,0,0,8,154.39c-.26,1.58,2.17,4.39,3.85,4.44a3.16,3.16,0,0,0,1.94-.74c3.84-2.68,8.13-4.52,12.34-6.49a38.73,38.73,0,0,0,5-2.6c1.65-1.08,9.21-4.45,11.24-5.28,1-.42,1.8-.92,1.74-2.09a3.13,3.13,0,0,0-1.62-2.8c-1.32-.72-2.45-.1-3.59.45-1.72.82-3.28,1.93-5,2.71-2.91,1.29-5.87,2.42-8.81,3.63-2.47,1-4.77,2.45-7.27,3.42-2.89,1.12-5.33,3.16-8.39,3.93"/></g><path class="cls-5" d="M65.52,66.08a14.15,14.15,0,0,1-5.19,3c-.25.07-.7.22-1.34.44s-.8.3-.78.3a.4.4,0,0,1-.51-.38,22.06,22.06,0,0,1,.2-3.08l.33-3.22a1,1,0,0,1-.13-.39q-.14-1,1.65-2.49a12.51,12.51,0,0,1,1.61-1.2,7.06,7.06,0,0,1,2.58-1,3.39,3.39,0,0,1,2.55.57,3.1,3.1,0,0,1,1.29,2.22Q68.17,63.62,65.52,66.08Zm-.68-5.59a2.34,2.34,0,0,0-1.69-.34A5.74,5.74,0,0,0,60,62a28,28,0,0,0-.48,5.56c3-.75,5-2,5.82-3.75a3.05,3.05,0,0,0,.35-1.8A2.08,2.08,0,0,0,64.84,60.49Z"/><path class="cls-5" d="M78.2,60.65c-.06.32-.4.55-1,.71a39.13,39.13,0,0,0-6.11,2c-.08.93-.11,1.83-.1,2.7a13.3,13.3,0,0,0,2.56-.67L76,64.48a2.31,2.31,0,0,1,.44-.12c.39-.06.61,0,.65.34a1.33,1.33,0,0,1-.24.83,2.13,2.13,0,0,1-.61.7,10.54,10.54,0,0,1-2.85,1.33,17.81,17.81,0,0,1-3.1.71c-.7.1-1.09-.07-1.15-.49a9.44,9.44,0,0,1,0-2c.07-.65.15-1.32.21-2a.68.68,0,0,1-.4-.54A1.42,1.42,0,0,1,69.57,62l.31-2.86a6.13,6.13,0,0,1,.1-.62,1.45,1.45,0,0,1,.37-.5,3.67,3.67,0,0,1,.7-.37c1-.46,1.65-.72,1.86-.81a8.49,8.49,0,0,1,2-.5,5.29,5.29,0,0,1,.92-.07,1.24,1.24,0,0,1,1.14,1c.07.48-.25.81-1,1-.5.13-1.26.31-2.28.59a9.92,9.92,0,0,0-2.21,1c-.09.44-.17.91-.23,1.39a21.86,21.86,0,0,1,5.26-1.49,2.58,2.58,0,0,1,.63,0,1.48,1.48,0,0,1,.59.2.8.8,0,0,1,.44.56A.38.38,0,0,1,78.2,60.65Z"/><path class="cls-5" d="M89,60.69a9.49,9.49,0,0,1-3.07,3.88,9.26,9.26,0,0,1-4.49,2,1.87,1.87,0,0,1-2.22-1,3,3,0,0,1-.42-1.17,2.09,2.09,0,0,1,0-.87c.08-.36.26-.57.53-.6a.73.73,0,0,1,.72.42,2.73,2.73,0,0,0,.71.9,2.86,2.86,0,0,0,2,.26,5.45,5.45,0,0,0,2.17-.79,4.05,4.05,0,0,0,1.55-1.67,1.31,1.31,0,0,0,.21-.66c0-.05-.08-.1-.19-.13a9.52,9.52,0,0,0-2.94-.06c-.7.06-1.73.16-3.12.27-.65,0-1-.19-1.08-.68-.09-.67.36-1.57,1.36-2.71a10.09,10.09,0,0,1,6.22-3.59c.56-.08.86.07.91.44a6.8,6.8,0,0,1,.08,1.66,1.37,1.37,0,0,1-.52.72,1.86,1.86,0,0,1-.8.43c-.33,0-.54-.13-.6-.53l-.07-.39h-.17a5,5,0,0,0-2.25.83,5.86,5.86,0,0,0-1.72,1.68c.08,0,.38-.08.9-.15l.22,0c.57-.08,1.54-.16,2.9-.23a13.9,13.9,0,0,1,2.86,0,.63.63,0,0,1,.47.61A2.21,2.21,0,0,1,89,60.69Z"/><path class="cls-5" d="M99.23,54.26a6.59,6.59,0,0,0,.1,1,1.16,1.16,0,0,1-.56,1.07,1.79,1.79,0,0,1-.8.44c-.31,0-.51-.22-.58-.79,0-.06,0-.22,0-.46a9,9,0,0,0-4.2,2.63q-1.78,2.09-1.59,3.48a1.16,1.16,0,0,0,.76,1,2.54,2.54,0,0,0,1.29.1A6.33,6.33,0,0,0,95.67,62c.33-.18,1-.6,2-1.24a5.27,5.27,0,0,1,1.21-.68c.26,0,.4.1.44.39a1.15,1.15,0,0,1-.3,1,8.79,8.79,0,0,1-.84.69,11.86,11.86,0,0,1-5.35,2.8,2.3,2.3,0,0,1-2.85-2.14,4.91,4.91,0,0,1,0-1.27A9.23,9.23,0,0,1,92.81,56a9.72,9.72,0,0,1,5.54-2.83c.57-.08.86,0,.91.36C99.27,53.61,99.25,53.85,99.23,54.26Z"/><path class="cls-5" d="M109.27,62a1.66,1.66,0,0,1-.88.47c-.27,0-.5-.14-.68-.53a8.2,8.2,0,0,1-.29-.94c-1.53.58-3.4,1.21-5.62,1.93-.37.75-.71,1.15-1,1.19a.78.78,0,0,1-.73-.29,1.45,1.45,0,0,1-.31-.74,1.59,1.59,0,0,1,.34-1l.63-.92a32.34,32.34,0,0,0,2.19-4l1.9-4.16A1.48,1.48,0,0,1,106,52a.6.6,0,0,1,.67.34c0,.08.09.34.19.81a32.05,32.05,0,0,0,2.21,6.59l.34.66a2.6,2.6,0,0,1,.26.68A1,1,0,0,1,109.27,62Zm-3.65-6.91c-.4.78-1.29,2.64-2.66,5.54a29,29,0,0,0,3.88-1.53C106.56,58.12,106.15,56.79,105.62,55.07Z"/><path class="cls-5" d="M118.67,56.52A13,13,0,0,1,115,58.7a9.92,9.92,0,0,0,1.92.63c.21,0,.52.07.92.15.24.07.38.19.4.36a.76.76,0,0,1-.26.63,1.22,1.22,0,0,1-.65.36,7.45,7.45,0,0,1-2.11-.12,11.79,11.79,0,0,1-2-.51,9.19,9.19,0,0,1,0,1.17,1.08,1.08,0,0,1-.45.64,1.63,1.63,0,0,1-.74.32c-.43.06-.66-.09-.71-.44a12.93,12.93,0,0,1,.1-1.92c.06-.8.2-2.16.4-4.07a.87.87,0,0,1-.5-.75,1.48,1.48,0,0,1,.45-1.11q2.48-3.07,5.09-3.44a3.67,3.67,0,0,1,2.29.37,2.4,2.4,0,0,1,1.26,1.86A4.14,4.14,0,0,1,118.67,56.52Zm-1-3.76a2.53,2.53,0,0,0-1.32-.15,5.15,5.15,0,0,0-2.76,1.73c-.18,1-.3,2.08-.38,3.15,2.19-.39,3.65-1,4.39-1.83a2.54,2.54,0,0,0,.88-1.95A1.19,1.19,0,0,0,117.67,52.76Z"/><path class="cls-5" d="M129.63,57.33c-2.22,2-4.13,3.08-5.75,3.3a2.32,2.32,0,0,1-2.94-2.15,4.77,4.77,0,0,1,0-1.36,9.14,9.14,0,0,1,2.89-5.44,9.64,9.64,0,0,1,5.51-2.79c.55-.08.85,0,.89.37a4.31,4.31,0,0,1,0,.65,6.46,6.46,0,0,0,.08,1,1.2,1.2,0,0,1-.55,1.19,1.84,1.84,0,0,1-.77.43c-.25,0-.42-.12-.53-.46a4.57,4.57,0,0,1-.13-.8,9.07,9.07,0,0,0-5.11,3.85,3.63,3.63,0,0,0-.72,2.29,1.11,1.11,0,0,0,.67.94,2.08,2.08,0,0,0,1.22.14,8.88,8.88,0,0,0,3.16-1.28,13.89,13.89,0,0,0,1.22-.83c.65-.49,1-.82.95-1s-.17-.19-.44-.15a25.47,25.47,0,0,0-4.92,1.41,3.15,3.15,0,0,1-.5.14c-.31,0-.49-.07-.53-.36a1.45,1.45,0,0,1,.34-1,2.84,2.84,0,0,1,.79-.73,7.78,7.78,0,0,1,2-.71,19,19,0,0,1,2.07-.42c2-.28,3,0,3.12.77S131.06,56.06,129.63,57.33Z"/><path class="cls-5" d="M141.28,57.49a1.64,1.64,0,0,1-.87.47c-.28,0-.5-.14-.69-.52a7.79,7.79,0,0,1-.28-.95c-1.53.58-3.41,1.22-5.62,1.93-.38.75-.71,1.15-1,1.19a.77.77,0,0,1-.72-.29,1.43,1.43,0,0,1-.32-.74,1.65,1.65,0,0,1,.34-1l.64-.92a33.71,33.71,0,0,0,2.19-4l1.89-4.16a1.43,1.43,0,0,1,.16-.3l.37-1a11.27,11.27,0,0,1,.83-1.89.28.28,0,0,1,.12-.08.58.58,0,0,1,.6,0,1.12,1.12,0,0,1,.47.43,1.1,1.1,0,0,1,.14.42,1.22,1.22,0,0,1-.07.62c-.15.4-.38.9-.68,1.52,0,.13.08.28.12.48a31.51,31.51,0,0,0,2.2,6.59l.34.66a2.12,2.12,0,0,1,.26.68A1,1,0,0,1,141.28,57.49Zm-3.65-6.91c-.39.79-1.29,2.64-2.65,5.55a30.89,30.89,0,0,0,3.87-1.54C138.58,53.63,138.17,52.3,137.63,50.58Z"/><path class="cls-5" d="M157.48,49.54c-.06.31-.41.55-1,.71a39.31,39.31,0,0,0-6.12,2c-.08.92-.1,1.82-.09,2.69a13.71,13.71,0,0,0,2.55-.66l2.49-.93a3.49,3.49,0,0,1,.45-.12c.39-.06.6.06.64.34a1.27,1.27,0,0,1-.23.84,2.32,2.32,0,0,1-.61.69,10.17,10.17,0,0,1-2.86,1.33,18.69,18.69,0,0,1-3.09.72c-.71.1-1.1-.07-1.16-.5a9.54,9.54,0,0,1,.05-1.94c.07-.66.14-1.33.2-2a.67.67,0,0,1-.39-.55,1.39,1.39,0,0,1,.56-1.26l.32-2.87a5.79,5.79,0,0,1,.1-.61,1.45,1.45,0,0,1,.36-.5,3.31,3.31,0,0,1,.71-.37q1.53-.69,1.86-.81a8.53,8.53,0,0,1,2-.51,5.29,5.29,0,0,1,.92-.07,1.26,1.26,0,0,1,1.15,1c.06.47-.25.81-1,1l-2.28.59a10.68,10.68,0,0,0-2.22,1c-.09.45-.16.92-.22,1.4a20.92,20.92,0,0,1,5.25-1.49,2.58,2.58,0,0,1,.63,0,1.36,1.36,0,0,1,.6.19.87.87,0,0,1,.44.57A.75.75,0,0,1,157.48,49.54Z"/><path class="cls-5" d="M166.37,52.68a2.41,2.41,0,0,1-.61.66,10.71,10.71,0,0,1-2.84,1.31,18.36,18.36,0,0,1-3.1.74c-.73.11-1.11-.06-1.17-.49a35.13,35.13,0,0,1,.26-4.45c.22-2.55.4-4.07.51-4.55a1.42,1.42,0,0,1,1.26-1.14c.38,0,.6.07.64.37a3,3,0,0,1-.1.84,29,29,0,0,0-.77,7.2,15.4,15.4,0,0,0,2.17-.51c.47-.15.95-.32,1.45-.52l1.43-.55a1.78,1.78,0,0,1,.45-.12c.39-.06.61.06.65.35A1.34,1.34,0,0,1,166.37,52.68Z"/><path class="cls-4" d="M45.84,142.78l-3,.24L42,143a2.37,2.37,0,0,1-2-2.05l-4.72-5-1.9-2.06c-.27-1.92,14.63-52.34,16.08-54.15a4.09,4.09,0,0,1,1.68-.77,10.54,10.54,0,0,0,1.56-.31l4.64-.65,17.32-2.6c1-.15,2.37-.34,3.78-.44a24,24,0,0,1,4.3.11,8.39,8.39,0,0,1,4.89,2.35l6.62,7.11A6.88,6.88,0,0,1,96,88.23a12.21,12.21,0,0,1-.44,3.9c-.32,1.57-.78,3.33-1.24,5.18-1,3.71-5.14,13.67-5.63,15.26l-3.76,2.49-.75.37-1.8.52c-1.38.38-3,.7-4.77,1-3.39.65-7,1.24-8.11,1.4-2.11.3-4.14.41-6.25.7-1.05.15-2.08,1.1-3,2.83l-2.08,5.56a32.22,32.22,0,0,1-1.44,3.15l-.09.64-.24.84L54,139.94l.06,1.69Zm-.21-9.8,2.87-10.13c2.25-3.71,3-11.94,7.87-12.63,2.11-.3,4.23-.41,6.25-.7s14.31-2.36,15.17-3.29c2.63-.36,3.78-2.94,4.54-5.19a14.91,14.91,0,0,0,1-2.37c.7-2.6,4.63-14.76,4.27-17.3-.49-3.51-3.5-4.6-6.57-4.8A116.68,116.68,0,0,0,68.9,77.92c-8.32,1.16-17.67,2.65-18,2.88-1.81,3-15.89,51.71-15.74,52.76a.67.67,0,0,0,.53.55,48.63,48.63,0,0,0,6.78-.68ZM56,98.48c.64-2.41,1.09-5,1.82-7.4a2.1,2.1,0,0,1,1.82-1.68l7.27-1c.44-.06,1.3-.27,2.26-.41,2.11-.29,4.68-.38,4.93,1.37.32,2.28-1.84,6-2.09,8.69l-.41.86c-2.53.44-5,1-7.59,1.33l-8.14,1.14c-.27,0-.49-.29-.52-.46A12.63,12.63,0,0,1,56,98.48Z"/><path class="cls-4" d="M89.42,134.44l-.94-.32-.51-.46L81.86,127l-.19-.06a2.51,2.51,0,0,1-.72-1.33,2.66,2.66,0,0,1,0-1c.05-.27.18-.65.22-1,.16-.74.46-1.76.75-2.88.66-2.32,1.58-5.31,2.49-8.38,1.83-6.07,3.81-12.33,4.24-13.73.48-1.67,1.13-3.37,1.53-5,.24-.84.38-1.76.6-2.68.26-.75,1.11-4.18,2.09-7.44.48-1.67,1-3.26,1.41-4.57a12,12,0,0,1,.58-1.6,1.69,1.69,0,0,1,.2-.48,5.37,5.37,0,0,1,2-3.93,3.18,3.18,0,0,1,1.36-.46,9.07,9.07,0,0,1,1.57-.31c1.21-.26,2.88-.49,4.54-.73l7.45-1c2.71-.38,5.42-.85,8.13-1.23l3.86-.54a24.61,24.61,0,0,1,4.46,0,8.63,8.63,0,0,1,5.06,2.33l6.63,7.1a7.21,7.21,0,0,1,1.7,3.87c.31,2.19-1.12,7.31-2.55,11.79-1.47,4.77-3.12,9.55-3.8,11.7-.87,2.72-1.57,5.4-2.44,8.11-.63,1.88-1.43,3.78-1.89,5.63l-.26,1.29a7.58,7.58,0,0,1-.68,1.52l-.85,1.64c-.78,1.45-2.2,3.43-3.48,3.79l-.48.43a10,10,0,0,1-3.33,1.71c-.94.31-2,.55-3.11.8-7.09,1.62-14.28,2.62-21.46,3.63A42.31,42.31,0,0,1,89.42,134.44ZM97.34,124c4.91-.69,9.71-1.45,14.56-2.58,2.08-.47,4.09-.75,5.77-2.15a7.21,7.21,0,0,1,1-.77c.62-.09,2.79-3.07,2.79-3.7a10.64,10.64,0,0,0,1.25-3.21c.53-1.95,1.32-3.94,1.95-5.81.88-2.63,1.57-5.4,2.44-8.11,1.35-4.39,6.75-19.35,6.28-22.68-.5-3.59-3.05-4.57-6.29-4.74a46.34,46.34,0,0,0-6.79.59c-3,.42-6.12,1-8.14,1.23l-4.2.59c-3.94.55-9.38,1.31-10,1.66-.75.38-1.22,2.14-1.2,2.94-.5.25-4.89,15.42-4.88,16.76-1,2.91-9.45,30.09-9.28,31.31,0,.09,0,.09.12.17s.08,0,.18.06a40.32,40.32,0,0,0,7.61-.53C93.06,124.73,95.42,124.31,97.34,124Zm3.51-25.95c.59-2.14,1.27-4.29,1.87-6.43.4-1.57.78-3.32,1.29-4.82a28.89,28.89,0,0,0,.93-2.9c.23-.93.45-1.23,1.5-1.37l6.49-.91c.61-.09,1.65-.32,2.88-.5,2-.28,4.24-.32,4.48,1.43.14,1-6.08,21-7.13,24.31-.68,2.15-1.21,3.48-3.2,4.56-1.74,1-8.24,1.78-10.51,2.1-.88.12-1.88,0-2.77,0C97.3,111,101,98.88,100.85,98.09ZM108,110.3a7,7,0,0,0,1.1-.42c1.42-.73,1.76-1.5,2.36-3.55.43-1.4,2.3-7.2,3.93-12.78l.8-2.53-2.89.41,0,.09-1,3c-.49,1.58-.81,3.15-1.22,4.72-.59,2.14-1.37,4.21-1.88,6.34Z"/><path class="cls-4" d="M136.88,129.57l-1.55-.23a2.33,2.33,0,0,1-1.67-1.73l-4.95-5.38a2.34,2.34,0,0,1-1.7-1.91,1.42,1.42,0,0,1,.07-.81,2.06,2.06,0,0,1,.07-.73l.44-1.93c.43-1.4,3.87-12.6,4.13-13.89.61-2.68,1.78-5.16,2.3-7.82l.35-1.31.33-.85c2.18-8.61,2.48-9.72,2.78-10.75s2-8.5,2.41-9.53.6-2.14,1-3.18a5.31,5.31,0,0,1,3-3.37,40,40,0,0,1,6.77-1.39L169,62.19a3.69,3.69,0,0,1,1,0,3.16,3.16,0,0,1,1.22.37l1.14,1.18,5.48,5.93a2.11,2.11,0,0,1,1.31,1.69,4,4,0,0,1,0,1.16l-.14.92-.55,1.77-.76,2.25-.62,2-.17.65a2.57,2.57,0,0,1-1.56,2.27,14.38,14.38,0,0,1-4.13,1.12c-1.3.27-2.63.37-3.84.63l-.88.12a2.5,2.5,0,0,1,.3.85l4.83,5.13a2.57,2.57,0,0,1,1.79,2,3.88,3.88,0,0,1-.08,1.35l-1.82,5.44-1,2.72-.32.94a3.51,3.51,0,0,1-.65,1.08l-.83.47-.77.2-1.91.44c-1.38.29-3.22.54-5.05.89l-6.13.86-.53,1.32-.14.92-.46,1.85-.92,3c-1.2,4.19-1.77,8.38-2.69,12.62l-.22,1-.94.31a31.6,31.6,0,0,1-5,1.15c-1.65.32-3.32.56-4.89.78A11.2,11.2,0,0,1,136.88,129.57Zm4.82-10.86c.92-4.24,1.49-8.52,2.77-12.72.31-1,2.09-7.43,2.25-8.17l7.36-1c.61-.09,7.32-1.3,7.63-1.61.15-.2,2.74-7.89,3-8.55a3.77,3.77,0,0,0,.26-1.37l-.14-.34c-.15-.43-2.36-.29-4.82,0-2.62.37-5.58,1-6.63,1.11a7.93,7.93,0,0,1-3.56,0c0-1.6,1.72-7.47,2-9.66l4.3-.6c1.4-.2,2.8-.4,4.19-.68A44.09,44.09,0,0,0,168,73.58c.17-.11.52-.16.48-.42-.13-1,1.83-6.06,2.11-7.27a6.59,6.59,0,0,0,.15-1.45c-.08-.61-1.23-.54-2.11-.41l1-.14s-2.73.29-6.4.81c-6.75,1-16.64,2.42-18.68,3.15s-2.17,3.61-2.9,5.41c-.26.67-3,12.13-3,12.22.05.35-2.46,9.18-2.8,10,0,1-1.92,6.07-2.29,7.91-.43,2-4.87,15.6-4.71,16.74.19,1.31,4.86.21,5.73.09A41,41,0,0,0,141.7,118.71Z"/><path class="cls-6" d="M45.63,133l-3.15.45a48.63,48.63,0,0,1-6.78.68.67.67,0,0,1-.53-.55C35,132.51,49.1,83.82,50.91,80.8c.32-.23,9.67-1.72,18-2.88A116.68,116.68,0,0,1,81,76.57c3.07.2,6.08,1.29,6.57,4.8.36,2.54-3.57,14.7-4.27,17.3a14.91,14.91,0,0,1-1,2.37c-.76,2.25-1.91,4.83-4.54,5.19-.86.93-13.07,3-15.17,3.29s-4.14.4-6.25.7c-4.9.69-5.62,8.92-7.87,12.63ZM64,100.22c2.54-.36,5.06-.89,7.59-1.33L72,98c.25-2.72,2.41-6.41,2.09-8.69-.25-1.75-2.82-1.66-4.93-1.37-1,.14-1.82.35-2.26.41l-7.27,1a2.1,2.1,0,0,0-1.82,1.68c-.73,2.43-1.18,5-1.82,7.4a12.63,12.63,0,0,0-.65,2.42c0,.17.25.5.52.46Z"/><path class="cls-6" d="M83,125.6c-.1-.07-.17,0-.18-.06s-.11-.08-.12-.17C82.53,124.15,91,97,92,94.06c0-1.34,4.38-16.51,4.88-16.76,0-.8.45-2.56,1.2-2.94.57-.35,6-1.11,10-1.66l4.2-.59c2-.28,5.16-.81,8.14-1.23a46.34,46.34,0,0,1,6.79-.59c3.24.17,5.79,1.15,6.29,4.74.47,3.33-4.93,18.29-6.28,22.68-.87,2.71-1.56,5.48-2.44,8.11-.63,1.87-1.42,3.86-1.95,5.81a10.64,10.64,0,0,1-1.25,3.21c0,.63-2.17,3.61-2.79,3.7a7.21,7.21,0,0,0-1,.77c-1.68,1.4-3.69,1.68-5.77,2.15-4.85,1.13-9.65,1.89-14.56,2.58-1.92.27-4.28.69-6.73,1A40.32,40.32,0,0,1,83,125.6Zm27-14.14c2-1.08,2.52-2.41,3.2-4.56,1-3.36,7.27-23.35,7.13-24.31-.24-1.75-2.47-1.71-4.48-1.43-1.23.18-2.27.41-2.88.5l-6.49.91c-1,.14-1.27.44-1.5,1.37a28.89,28.89,0,0,1-.93,2.9c-.51,1.5-.89,3.25-1.29,4.82-.6,2.14-1.28,4.29-1.87,6.43.11.79-3.55,12.91-4.17,15.5.89,0,1.89.09,2.77,0C101.72,113.24,108.22,112.42,110,111.46Z"/><path class="cls-6" d="M128.76,120.08c-.16-1.14,4.28-14.71,4.71-16.74.37-1.84,2.33-6.94,2.29-7.91.34-.77,2.85-9.6,2.8-10,0-.09,2.76-11.55,3-12.22.73-1.8.85-4.76,2.9-5.41s11.93-2.2,18.68-3.15c3.67-.52,6.4-.81,6.4-.81l-1,.14c.88-.13,2-.2,2.11.41a6.59,6.59,0,0,1-.15,1.45c-.28,1.21-2.24,6.3-2.11,7.27,0,.26-.31.31-.48.42a44.09,44.09,0,0,1-7.63,1.61c-1.39.28-2.79.48-4.19.68l-4.3.6c-.31,2.19-2.08,8.06-2,9.66a7.93,7.93,0,0,0,3.56,0c1.05-.15,4-.74,6.63-1.11,2.46-.34,4.67-.48,4.82,0l.14.34a3.77,3.77,0,0,1-.26,1.37c-.26.66-2.85,8.35-3,8.55-.31.31-7,1.52-7.63,1.61l-7.36,1c-.16.74-1.94,7.15-2.25,8.17-1.28,4.2-1.85,8.48-2.77,12.72a41,41,0,0,1-7.21,1.46C133.62,120.29,129,121.39,128.76,120.08Z"/></svg>