<svg xmlns="http://www.w3.org/2000/svg" xmlns:xlink="http://www.w3.org/1999/xlink" viewBox="0 0 303.46 102.27"><defs><style>.cls-1{fill:none;}.cls-2{isolation:isolate;}.cls-3{clip-path:url(#clip-path);}.cls-4{clip-path:url(#clip-path-2);}.cls-17,.cls-5{fill:#fff;}.cls-6{clip-path:url(#clip-path-3);}.cls-10,.cls-7{mix-blend-mode:multiply;}.cls-8{clip-path:url(#clip-path-4);}.cls-9{clip-path:url(#clip-path-5);}.cls-10{opacity:0.7;}.cls-11{clip-path:url(#clip-path-6);}.cls-12{clip-path:url(#clip-path-7);}.cls-13{clip-path:url(#clip-path-8);}.cls-14{clip-path:url(#clip-path-9);}.cls-15{clip-path:url(#clip-path-10);}.cls-16{clip-path:url(#clip-path-11);}.cls-17{font-size:19.9px;font-family:CAKometo-Fill, CA Kometo;}.cls-18{letter-spacing:-0.09em;}.cls-19{letter-spacing:-0.09em;}.cls-20{letter-spacing:-0.1em;}.cls-21{letter-spacing:-0.09em;}.cls-22{letter-spacing:-0.15em;}.cls-23{letter-spacing:-0.13em;}</style><clipPath id="clip-path"><rect class="cls-1" width="303.46" height="102.27"/></clipPath><clipPath id="clip-path-2"><rect class="cls-1" width="303.46" height="102.27"/></clipPath><clipPath id="clip-path-3"><path class="cls-1" d="M36.93,53.53l-6.07,7,9,8.9,4.77-9.9h5.12V54.3h1.75l-1-7.45ZM15.06,35.83v3.42H33.55a5.68,5.68,0,0,0-1,1h-13v3.42h12a9.48,9.48,0,0,0,0,1H24v3.41h8.2c.33,1.24.75,2.57,1.21,4L58.8,42.52A21.25,21.25,0,0,1,47,39.82c-3.57-1.82-6.34-3.63-10.23-2.28l-1.56-1.71Z"/></clipPath><clipPath id="clip-path-4"><rect class="cls-1" y="25.43" width="43.95" height="43.95"/></clipPath><clipPath id="clip-path-5"><path class="cls-1" d="M43.92,47.36a21.95,21.95,0,1,0-21.9,22,22,22,0,0,0,21.9-22"/></clipPath><clipPath id="clip-path-6"><rect class="cls-1" x="0.22" y="3.18" width="49.34" height="49.34"/></clipPath><clipPath id="clip-path-7"><path class="cls-1" d="M38.92,10.93a22,22,0,1,0,2.89,31,22,22,0,0,0-2.89-31"/></clipPath><clipPath id="clip-path-8"><rect class="cls-1" x="33.37" y="22.79" width="49.34" height="49.34"/></clipPath><clipPath id="clip-path-9"><path class="cls-1" d="M72.07,30.54a22,22,0,1,0,2.89,31,22,22,0,0,0-2.89-30.95"/></clipPath><clipPath id="clip-path-10"><rect class="cls-1" x="2.56" y="52.05" width="50.23" height="50.23"/></clipPath><clipPath id="clip-path-11"><path class="cls-1" d="M52.76,77.1a25.08,25.08,0,1,0-25,25.14,25.08,25.08,0,0,0,25-25.14"/></clipPath></defs><title>footer-logos</title><g class="cls-2"><g id="Capa_1" data-name="Capa 1"><g class="cls-3"><g class="cls-4"><path class="cls-5" d="M98.33,32.88a3.1,3.1,0,0,1,2.94-2.36l5.63,0a1.43,1.43,0,0,0,1.45-1.43v-.29H98a4.2,4.2,0,0,0-3.63,2.63,27.38,27.38,0,0,0,0,17.23A4.24,4.24,0,0,0,98,51.31h10.34V51a1.43,1.43,0,0,0-1.45-1.43l-5.63,0a3.1,3.1,0,0,1-2.94-2.36,40.65,40.65,0,0,1,0-14.37"/><path class="cls-5" d="M79.91,32.88a3.08,3.08,0,0,1,2.93-2.36l5.63,0a1.42,1.42,0,0,0,1.45-1.43v-.29H79.58A4.2,4.2,0,0,0,76,31.45a27.57,27.57,0,0,0,0,17.23,4.24,4.24,0,0,0,3.63,2.63H89.92V51a1.42,1.42,0,0,0-1.45-1.43l-5.63,0a3.08,3.08,0,0,1-2.93-2.36,40,40,0,0,1,0-14.37"/><path class="cls-5" d="M111.41,28.84H112a3.93,3.93,0,0,1,3.87,4V51.29h-2.94a1.52,1.52,0,0,1-1.5-1.54V28.84Z"/><path class="cls-5" d="M119.1,28.84v1.79h6.25V49.75a1.52,1.52,0,0,0,1.5,1.54h2.94V32.6c0-1.5-.85-1.93-2.08-2h5.19a1.47,1.47,0,0,0,1.55-1.47v-.32Z"/><path class="cls-5" d="M77.46,58.41l.44.13a1.76,1.76,0,0,1-.51,1,1.24,1.24,0,0,1-.89.34,1.36,1.36,0,0,1-.79-.23,1.58,1.58,0,0,1-.53-.72A3,3,0,0,1,75,57.77a2.75,2.75,0,0,1,.21-1.13,1.59,1.59,0,0,1,.56-.7,1.41,1.41,0,0,1,.8-.23,1.23,1.23,0,0,1,.83.3,1.57,1.57,0,0,1,.48.87l-.43.13c-.15-.56-.44-.85-.89-.85a1,1,0,0,0-.57.17,1.09,1.09,0,0,0-.39.53,2.4,2.4,0,0,0-.15.91A2.22,2.22,0,0,0,75.71,59a.92.92,0,0,0,.78.42.85.85,0,0,0,.62-.26,1.35,1.35,0,0,0,.35-.77"/><path class="cls-5" d="M78.43,59.83l1.28-4h.47l1.36,4H81l-.39-1.23h-1.4l-.36,1.23Zm.95-1.67h1.13L80.17,57q-.17-.51-.24-.84a5.49,5.49,0,0,1-.18.78Zm.14-2.66.3-.77h.53l-.49.77Z"/><path class="cls-5" d="M82.21,59.83v-4h.66l.79,2.87.16.59L84,58.6l.79-2.82h.6v4H85V56.44l-1,3.39H83.6l-1-3.45v3.45Z"/><path class="cls-5" d="M86.07,59.83l1.28-4h.47l1.36,4h-.5l-.39-1.23h-1.4l-.36,1.23Zm1-1.67h1.13L87.81,57q-.16-.51-.24-.84a5.49,5.49,0,0,1-.18.78Z"/><path class="cls-5" d="M89.86,59.83v-4h1.48a1.68,1.68,0,0,1,.68.11,1,1,0,0,1,.36.38,1.31,1.31,0,0,1,.14.61,1,1,0,0,1-.94,1.1,1.22,1.22,0,0,1,.29.23,2.75,2.75,0,0,1,.34.52l.58,1.1h-.55L91.8,59a5.78,5.78,0,0,0-.39-.67.64.64,0,0,0-.6-.29H90.3v1.8Zm.44-2.26h1a1.17,1.17,0,0,0,.47-.08.61.61,0,0,0,.25-.23.77.77,0,0,0,.1-.38.65.65,0,0,0-.18-.48.73.73,0,0,0-.54-.17h-1Z"/><path class="cls-5" d="M93.19,59.83l1.28-4h.47l1.36,4h-.5l-.39-1.23H94l-.36,1.23Zm1-1.67h1.13L94.93,57q-.17-.51-.24-.84a5.49,5.49,0,0,1-.18.78Z"/><path class="cls-5" d="M98.35,59.83v-4H99.5a2.21,2.21,0,0,1,.65.07,1.17,1.17,0,0,1,.5.36,1.84,1.84,0,0,1,.33.64,3.23,3.23,0,0,1,.12.93,3.11,3.11,0,0,1-.2,1.17,1.45,1.45,0,0,1-.52.68,1.57,1.57,0,0,1-.83.2Zm.44-.48h.71a1.28,1.28,0,0,0,.65-.14.85.85,0,0,0,.34-.45,2.83,2.83,0,0,0,.16-1,2.31,2.31,0,0,0-.17-1,.91.91,0,0,0-.43-.47,1.35,1.35,0,0,0-.56-.08h-.7Z"/><polygon class="cls-5" points="102.06 59.83 102.06 55.78 104.46 55.78 104.46 56.26 102.5 56.26 102.5 57.49 104.34 57.49 104.34 57.97 102.5 57.97 102.5 59.35 104.54 59.35 104.54 59.83 102.06 59.83"/><path class="cls-5" d="M109.47,58.41l.44.13a1.76,1.76,0,0,1-.51,1,1.24,1.24,0,0,1-.89.34,1.36,1.36,0,0,1-.79-.23,1.58,1.58,0,0,1-.53-.72,3,3,0,0,1-.21-1.18,2.75,2.75,0,0,1,.21-1.13,1.59,1.59,0,0,1,.56-.7,1.39,1.39,0,0,1,.8-.23,1.2,1.2,0,0,1,.82.3,1.52,1.52,0,0,1,.49.87l-.43.13c-.15-.56-.45-.85-.89-.85a1,1,0,0,0-.58.17,1.14,1.14,0,0,0-.38.53,2.4,2.4,0,0,0-.15.91,2.22,2.22,0,0,0,.29,1.25.92.92,0,0,0,.78.42.85.85,0,0,0,.62-.26,1.35,1.35,0,0,0,.35-.77"/><path class="cls-5" d="M110.68,57.86a2.5,2.5,0,0,1,.45-1.6,1.43,1.43,0,0,1,1.14-.55,1.35,1.35,0,0,1,.8.25,1.61,1.61,0,0,1,.57.72,2.59,2.59,0,0,1,.22,1.13,2.43,2.43,0,0,1-.41,1.46,1.39,1.39,0,0,1-1.18.63,1.41,1.41,0,0,1-1.19-.64,2.4,2.4,0,0,1-.4-1.4m.45,0a1.85,1.85,0,0,0,.33,1.17,1,1,0,0,0,1.62,0,2,2,0,0,0,.32-1.23,2.3,2.3,0,0,0-.17-.93,1.1,1.1,0,0,0-.39-.51,1,1,0,0,0-.57-.18,1,1,0,0,0-.82.41,2.11,2.11,0,0,0-.32,1.28"/><path class="cls-5" d="M114.74,59.83v-4h.66l.79,2.87.16.59c0-.14.09-.36.17-.64l.8-2.82h.59v4h-.42V56.44l-1,3.39h-.39l-1-3.45v3.45Z"/><polygon class="cls-5" points="118.97 59.83 118.97 55.78 121.37 55.78 121.37 56.26 119.41 56.26 119.41 57.49 121.24 57.49 121.24 57.97 119.41 57.97 119.41 59.35 121.44 59.35 121.44 59.83 118.97 59.83"/><path class="cls-5" d="M122.39,59.83v-4h1.47a1.61,1.61,0,0,1,.68.11.83.83,0,0,1,.36.38,1.2,1.2,0,0,1,.14.61,1.09,1.09,0,0,1-.23.74,1.13,1.13,0,0,1-.7.36,1.15,1.15,0,0,1,.28.23,2.78,2.78,0,0,1,.35.52l.58,1.1h-.55l-.45-.84a4.59,4.59,0,0,0-.39-.67.75.75,0,0,0-.25-.23.8.8,0,0,0-.34-.06h-.51v1.8Zm.44-2.26h.94a1.1,1.1,0,0,0,.47-.08.64.64,0,0,0,.26-.23.76.76,0,0,0,.09-.38.65.65,0,0,0-.18-.48.72.72,0,0,0-.53-.17h-1Z"/><path class="cls-5" d="M128.44,58.41l.44.13a1.89,1.89,0,0,1-.51,1,1.26,1.26,0,0,1-.9.34,1.33,1.33,0,0,1-.78-.23,1.59,1.59,0,0,1-.54-.72,3,3,0,0,1-.21-1.18,2.75,2.75,0,0,1,.21-1.13,1.61,1.61,0,0,1,.57-.7,1.36,1.36,0,0,1,.79-.23,1.23,1.23,0,0,1,.83.3,1.57,1.57,0,0,1,.48.87l-.43.13c-.14-.56-.44-.85-.89-.85a1,1,0,0,0-.57.17,1.23,1.23,0,0,0-.39.53,2.4,2.4,0,0,0-.15.91,2.13,2.13,0,0,0,.3,1.25.89.89,0,0,0,.78.42.87.87,0,0,0,.62-.26,1.42,1.42,0,0,0,.35-.77"/><rect class="cls-5" x="129.85" y="55.78" width="0.44" height="4.05"/><path class="cls-5" d="M131.27,57.86a2.44,2.44,0,0,1,.46-1.6,1.44,1.44,0,0,1,1.94-.3,1.61,1.61,0,0,1,.57.72,2.75,2.75,0,0,1,.21,1.13,2.43,2.43,0,0,1-.41,1.46,1.41,1.41,0,0,1-2.36,0,2.41,2.41,0,0,1-.41-1.4m.46,0a1.85,1.85,0,0,0,.33,1.17,1,1,0,0,0,1.61,0,2,2,0,0,0,.33-1.23,2.49,2.49,0,0,0-.17-.93,1.25,1.25,0,0,0-.39-.51,1,1,0,0,0-.57-.18,1,1,0,0,0-.82.41,2,2,0,0,0-.32,1.28"/><polygon class="cls-5" points="75.36 64.77 75.36 61.66 77.21 61.66 77.21 62.02 75.7 62.02 75.7 62.98 77.11 62.98 77.11 63.34 75.7 63.34 75.7 64.41 77.27 64.41 77.27 64.77 75.36 64.77"/><rect class="cls-5" x="79.14" y="61.66" width="0.34" height="3.12"/><polygon class="cls-5" points="80.23 64.77 80.23 61.66 80.58 61.66 81.92 64.11 81.92 61.66 82.24 61.66 82.24 64.77 81.9 64.77 80.55 62.32 80.55 64.77 80.23 64.77"/><path class="cls-5" d="M83,64.77V61.66h.88a1.57,1.57,0,0,1,.5.06.73.73,0,0,1,.39.27,1.3,1.3,0,0,1,.25.5,2.45,2.45,0,0,1,.09.71,2.42,2.42,0,0,1-.15.9,1.1,1.1,0,0,1-.4.52,1.19,1.19,0,0,1-.64.15Zm.34-.36h.54a1,1,0,0,0,.5-.11.7.7,0,0,0,.27-.35,2.13,2.13,0,0,0,.12-.76,1.85,1.85,0,0,0-.13-.74.73.73,0,0,0-.33-.36,1.12,1.12,0,0,0-.43-.07h-.54Z"/><path class="cls-5" d="M87.41,61.66h.34v1.8a2.53,2.53,0,0,1-.09.74.9.9,0,0,1-.32.46,1,1,0,0,1-.59.17.94.94,0,0,1-.76-.31,1.66,1.66,0,0,1-.25-1.06v-1.8h.34v1.79a2.27,2.27,0,0,0,.06.62.57.57,0,0,0,.22.28.61.61,0,0,0,.36.1.63.63,0,0,0,.53-.2,1.45,1.45,0,0,0,.16-.8Z"/><path class="cls-5" d="M88.38,63.77l.31,0a1,1,0,0,0,.12.4.73.73,0,0,0,.26.23.92.92,0,0,0,.38.08.65.65,0,0,0,.46-.14.52.52,0,0,0,.11-.63.49.49,0,0,0-.18-.17,4.2,4.2,0,0,0-.53-.18,1.56,1.56,0,0,1-.51-.22.62.62,0,0,1-.24-.27.79.79,0,0,1-.09-.38.81.81,0,0,1,.25-.62.89.89,0,0,1,.66-.24,1.15,1.15,0,0,1,.5.11.87.87,0,0,1,.33.33,1.07,1.07,0,0,1,.12.49l-.32,0a.72.72,0,0,0-.18-.45.63.63,0,0,0-.44-.15.68.68,0,0,0-.44.13.43.43,0,0,0-.15.34.36.36,0,0,0,.11.29,1.27,1.27,0,0,0,.5.21,3.87,3.87,0,0,1,.53.18.91.91,0,0,1,.35.32.85.85,0,0,1,.12.46.92.92,0,0,1-.13.49.83.83,0,0,1-.34.33,1,1,0,0,1-.52.12,1,1,0,0,1-.75-.29,1,1,0,0,1-.29-.77"/><polygon class="cls-5" points="91.7 64.77 91.7 62.02 90.86 62.02 90.86 61.66 92.88 61.66 92.88 62.02 92.04 62.02 92.04 64.77 91.7 64.77"/><path class="cls-5" d="M93.4,64.77V61.66h1.13a1.31,1.31,0,0,1,.52.08.66.66,0,0,1,.28.29,1,1,0,0,1,.11.47.89.89,0,0,1-.18.58.93.93,0,0,1-.54.27.85.85,0,0,1,.22.18,2,2,0,0,1,.26.39l.45.85h-.43l-.34-.65c-.13-.25-.23-.42-.29-.51a.79.79,0,0,0-.2-.18.62.62,0,0,0-.26,0h-.4v1.38ZM93.73,63h.73a.84.84,0,0,0,.36-.06.35.35,0,0,0,.2-.18.51.51,0,0,0,.07-.28.5.5,0,0,0-.14-.37.56.56,0,0,0-.41-.14h-.81Z"/><rect class="cls-5" x="96.21" y="61.66" width="0.34" height="3.12"/><path class="cls-5" d="M97,64.77l1-3.11h.36l1.05,3.11H99l-.3-.94H97.67l-.28.94Zm.74-1.28h.87l-.27-.86c-.08-.27-.14-.48-.18-.65a4.34,4.34,0,0,1-.14.6Z"/><path class="cls-5" d="M100.83,64.77V61.66h.88a1.57,1.57,0,0,1,.5.06.73.73,0,0,1,.39.27,1.3,1.3,0,0,1,.25.5,2.45,2.45,0,0,1,.09.71,2.42,2.42,0,0,1-.15.9,1.1,1.1,0,0,1-.4.52,1.19,1.19,0,0,1-.64.15Zm.34-.36h.54a1,1,0,0,0,.5-.11.64.64,0,0,0,.26-.35,1.92,1.92,0,0,0,.13-.76,1.85,1.85,0,0,0-.13-.74.73.73,0,0,0-.33-.36,1.14,1.14,0,0,0-.44-.07h-.53Z"/><polygon class="cls-5" points="103.6 64.77 103.6 61.66 105.44 61.66 105.44 62.02 103.94 62.02 103.94 62.98 105.35 62.98 105.35 63.34 103.94 63.34 103.94 64.41 105.5 64.41 105.5 64.77 103.6 64.77"/><polygon class="cls-5" points="107.9 64.77 107.9 62.02 107.06 62.02 107.06 61.66 109.09 61.66 109.09 62.02 108.24 62.02 108.24 64.77 107.9 64.77"/><polygon class="cls-5" points="109.61 64.77 109.61 61.66 111.46 61.66 111.46 62.02 109.95 62.02 109.95 62.98 111.36 62.98 111.36 63.34 109.95 63.34 109.95 64.41 111.52 64.41 111.52 64.77 109.61 64.77"/><path class="cls-5" d="M113.36,63.55v-.37h1.08v1.16a1.7,1.7,0,0,1-.51.36,1.34,1.34,0,0,1-.55.13,1.22,1.22,0,0,1-.66-.19,1.34,1.34,0,0,1-.47-.55,2.06,2.06,0,0,1-.17-.86,2.21,2.21,0,0,1,.17-.89,1.36,1.36,0,0,1,.45-.56,1.21,1.21,0,0,1,.66-.18,1.07,1.07,0,0,1,.49.11.9.9,0,0,1,.35.29,1.31,1.31,0,0,1,.2.53l-.3.1a1,1,0,0,0-.16-.4.68.68,0,0,0-.24-.2.82.82,0,0,0-.35-.08.87.87,0,0,0-.48.14.94.94,0,0,0-.32.42,1.78,1.78,0,0,0-.12.69,1.46,1.46,0,0,0,.26.94.83.83,0,0,0,.68.31,1,1,0,0,0,.41-.09,1.07,1.07,0,0,0,.33-.23v-.58Z"/><path class="cls-5" d="M116.78,61.66h.34v1.8a2.53,2.53,0,0,1-.09.74.9.9,0,0,1-.32.46,1,1,0,0,1-.59.17.94.94,0,0,1-.76-.31,1.66,1.66,0,0,1-.25-1.06v-1.8h.34v1.79a2.27,2.27,0,0,0,.06.62.57.57,0,0,0,.22.28.61.61,0,0,0,.36.1.63.63,0,0,0,.53-.2,1.45,1.45,0,0,0,.16-.8Z"/><path class="cls-5" d="M119.67,63.68l.34.1a1.41,1.41,0,0,1-.39.79,1,1,0,0,1-.69.26,1,1,0,0,1-.6-.18,1.22,1.22,0,0,1-.42-.55,2.51,2.51,0,0,1-.16-.91,2.25,2.25,0,0,1,.16-.87,1.33,1.33,0,0,1,.44-.54,1.09,1.09,0,0,1,.61-.18,1,1,0,0,1,.64.23,1.25,1.25,0,0,1,.37.68l-.33.09c-.11-.43-.34-.65-.69-.65a.74.74,0,0,0-.44.14.92.92,0,0,0-.3.4,2,2,0,0,0-.11.7,1.66,1.66,0,0,0,.23,1,.68.68,0,0,0,.6.32.64.64,0,0,0,.47-.19,1,1,0,0,0,.27-.6"/><rect class="cls-5" x="120.67" y="61.66" width="0.34" height="3.12"/><path class="cls-5" d="M123,63.55v-.37h1.08v1.16a1.84,1.84,0,0,1-.51.36,1.34,1.34,0,0,1-.55.13,1.28,1.28,0,0,1-.67-.19,1.32,1.32,0,0,1-.46-.55,1.91,1.91,0,0,1-.17-.86,2.05,2.05,0,0,1,.17-.89A1.14,1.14,0,0,1,123,61.6a1.07,1.07,0,0,1,.49.11.9.9,0,0,1,.35.29,1.31,1.31,0,0,1,.2.53l-.3.1a1.18,1.18,0,0,0-.16-.4.63.63,0,0,0-.25-.2A.74.74,0,0,0,123,62a.85.85,0,0,0-.48.14.94.94,0,0,0-.32.42,1.78,1.78,0,0,0-.12.69,1.41,1.41,0,0,0,.26.94.83.83,0,0,0,.68.31,1,1,0,0,0,.41-.09,1.07,1.07,0,0,0,.33-.23v-.58Z"/><path class="cls-5" d="M124.45,64.77l1-3.11h.36l1,3.11h-.39l-.29-.94h-1.08l-.28.94Zm.73-1.28h.87l-.27-.86c-.08-.27-.14-.48-.18-.65a4.34,4.34,0,0,1-.14.6Z"/><polygon class="cls-5" points="127.26 64.77 127.26 61.66 127.6 61.66 127.6 64.41 128.86 64.41 128.86 64.77 127.26 64.77"/><path class="cls-5" d="M129.44,64.77V61.66h1a1.49,1.49,0,0,1,.5.06.66.66,0,0,1,.36.3,1.06,1.06,0,0,1,.13.53,1,1,0,0,1-.22.69.89.89,0,0,1-.74.27h-.65v1.26Zm.34-1.63h.66a.62.62,0,0,0,.45-.14.58.58,0,0,0,.15-.43.66.66,0,0,0-.07-.32.59.59,0,0,0-.17-.18,1,1,0,0,0-.37,0h-.65Z"/><path class="cls-5" d="M131.45,64.77l1-3.11h.36l1,3.11h-.39l-.3-.94h-1.07l-.28.94Zm.74-1.28h.87l-.27-.86c-.08-.27-.14-.48-.18-.65a4.34,4.34,0,0,1-.14.6Z"/><path class="cls-5" d="M35.65,76.7A29.77,29.77,0,1,1,56.7,68l-1.07-1.07L56.7,68A29.54,29.54,0,0,1,35.65,76.7m0-56.49A26.73,26.73,0,1,0,54.55,28a26.68,26.68,0,0,0-18.9-7.82"/><path class="cls-5" d="M24,48.17h8.2c.33,1.24.75,2.57,1.21,4L58.8,42.52c-11.51.74-14.88-7.47-22-5l-1.56-1.71H15.07v3.41H33.55a6.07,6.07,0,0,0-1,1h-13v3.42h12a9.3,9.3,0,0,0,0,1H24Zm12.9,5.36-6.07,7,9,8.9,4.77-9.9h5.11V54.3h1.75l-1-7.45Z"/></g><g class="cls-6"><g class="cls-7"><g class="cls-8"><path class="cls-5" d="M43.92,47.36a21.95,21.95,0,1,0-21.9,22,22,22,0,0,0,21.9-22"/><g class="cls-9"><rect class="cls-5" y="25.43" width="43.95" height="43.95"/><path class="cls-5" d="M33.91,47.41A11.94,11.94,0,1,1,22,35.47,11.93,11.93,0,0,1,33.91,47.41"/><path class="cls-5" d="M33.73,47.41A11.76,11.76,0,1,1,22,35.65,11.75,11.75,0,0,1,33.73,47.41"/><path class="cls-5" d="M33.55,47.41A11.58,11.58,0,1,1,22,35.83,11.57,11.57,0,0,1,33.55,47.41"/><path class="cls-5" d="M33.37,47.41A11.4,11.4,0,1,1,22,36a11.39,11.39,0,0,1,11.4,11.4"/><path class="cls-5" d="M33.19,47.41A11.22,11.22,0,1,1,22,36.19,11.21,11.21,0,0,1,33.19,47.41"/><path class="cls-5" d="M33,47.41a11,11,0,1,1-11-11,11,11,0,0,1,11,11"/><path class="cls-5" d="M32.83,47.41A10.86,10.86,0,1,1,22,36.55,10.86,10.86,0,0,1,32.83,47.41"/><path class="cls-5" d="M32.65,47.41A10.68,10.68,0,1,1,22,36.73,10.68,10.68,0,0,1,32.65,47.41"/><path class="cls-5" d="M32.47,47.41A10.5,10.5,0,1,1,22,36.91a10.5,10.5,0,0,1,10.5,10.5"/><path class="cls-5" d="M32.29,47.41A10.32,10.32,0,1,1,22,37.09,10.32,10.32,0,0,1,32.29,47.41"/><path class="cls-5" d="M32.1,47.41A10.13,10.13,0,1,1,22,37.28,10.13,10.13,0,0,1,32.1,47.41"/><path class="cls-5" d="M31.92,47.41a9.95,9.95,0,1,1-10-9.95,9.94,9.94,0,0,1,10,9.95"/><path class="cls-5" d="M31.74,47.41A9.77,9.77,0,1,1,22,37.64a9.76,9.76,0,0,1,9.77,9.77"/><path class="cls-5" d="M31.56,47.41A9.59,9.59,0,1,1,22,37.82a9.58,9.58,0,0,1,9.59,9.59"/><path class="cls-5" d="M31.38,47.41A9.41,9.41,0,1,1,22,38a9.4,9.4,0,0,1,9.41,9.41"/><path class="cls-5" d="M31.2,47.41A9.23,9.23,0,1,1,22,38.18a9.22,9.22,0,0,1,9.23,9.23"/><path class="cls-5" d="M31,47.41a9,9,0,1,1-9-9,9,9,0,0,1,9.05,9"/><path class="cls-5" d="M30.84,47.41A8.87,8.87,0,1,1,22,38.54a8.87,8.87,0,0,1,8.87,8.87"/><path class="cls-5" d="M30.66,47.41A8.69,8.69,0,1,1,22,38.72a8.69,8.69,0,0,1,8.69,8.69"/><path class="cls-5" d="M30.48,47.41A8.51,8.51,0,1,1,22,38.9a8.51,8.51,0,0,1,8.51,8.51"/><path class="cls-5" d="M30.29,47.41A8.32,8.32,0,1,1,22,39.09a8.32,8.32,0,0,1,8.32,8.32"/><path class="cls-5" d="M30.11,47.41A8.14,8.14,0,1,1,22,39.27a8.14,8.14,0,0,1,8.14,8.14"/><path class="cls-5" d="M29.93,47.41a8,8,0,1,1-8-8,8,8,0,0,1,8,8"/><path class="cls-5" d="M29.75,47.41A7.78,7.78,0,1,1,22,39.63a7.77,7.77,0,0,1,7.78,7.78"/><path class="cls-5" d="M29.57,47.41a7.6,7.6,0,1,1-7.6-7.6,7.59,7.59,0,0,1,7.6,7.6"/><path class="cls-5" d="M29.39,47.41A7.42,7.42,0,1,1,22,40a7.42,7.42,0,0,1,7.42,7.42"/><path class="cls-5" d="M29.21,47.41A7.24,7.24,0,1,1,22,40.17a7.24,7.24,0,0,1,7.24,7.24"/><path class="cls-5" d="M29,47.41A7.06,7.06,0,1,1,22,40.35,7.06,7.06,0,0,1,29,47.41"/><path class="cls-5" d="M28.85,47.41A6.88,6.88,0,1,1,22,40.53a6.88,6.88,0,0,1,6.88,6.88"/><path class="cls-5" d="M28.67,47.41a6.7,6.7,0,1,1-6.7-6.7,6.7,6.7,0,0,1,6.7,6.7"/><path class="cls-5" d="M28.49,47.41A6.52,6.52,0,1,1,22,40.89a6.52,6.52,0,0,1,6.52,6.52"/><path class="cls-5" d="M28.31,47.41A6.34,6.34,0,1,1,22,41.07a6.34,6.34,0,0,1,6.34,6.34"/><path class="cls-5" d="M28.12,47.41A6.15,6.15,0,1,1,22,41.26a6.15,6.15,0,0,1,6.15,6.15"/><path class="cls-5" d="M27.94,47.41a6,6,0,1,1-6-6,6,6,0,0,1,6,6"/><path class="cls-5" d="M27.76,47.41A5.79,5.79,0,1,1,22,41.62a5.78,5.78,0,0,1,5.79,5.79"/><path class="cls-5" d="M27.58,47.41A5.61,5.61,0,1,1,22,41.8a5.61,5.61,0,0,1,5.61,5.61"/><path class="cls-5" d="M27.4,47.41A5.43,5.43,0,1,1,22,42a5.43,5.43,0,0,1,5.43,5.43"/><path class="cls-5" d="M27.22,47.41A5.25,5.25,0,1,1,22,42.16a5.25,5.25,0,0,1,5.25,5.25"/><path class="cls-5" d="M27,47.41A5.07,5.07,0,1,1,22,42.34,5.07,5.07,0,0,1,27,47.41"/><path class="cls-5" d="M26.86,47.41A4.89,4.89,0,1,1,22,42.52a4.89,4.89,0,0,1,4.89,4.89"/><path class="cls-5" d="M26.68,47.41A4.71,4.71,0,1,1,22,42.7a4.71,4.71,0,0,1,4.71,4.71"/><path class="cls-5" d="M26.5,47.41A4.53,4.53,0,1,1,22,42.88a4.53,4.53,0,0,1,4.53,4.53"/><path class="cls-5" d="M26.32,47.41A4.35,4.35,0,1,1,22,43.06a4.35,4.35,0,0,1,4.35,4.35"/><path class="cls-5" d="M26.13,47.41A4.16,4.16,0,1,1,22,43.25a4.16,4.16,0,0,1,4.16,4.16"/><path class="cls-5" d="M26,47.41a4,4,0,1,1-4-4,4,4,0,0,1,4,4"/><path class="cls-5" d="M25.77,47.41a3.8,3.8,0,1,1-3.8-3.8,3.8,3.8,0,0,1,3.8,3.8"/><path class="cls-5" d="M25.59,47.41A3.62,3.62,0,1,1,22,43.79a3.62,3.62,0,0,1,3.62,3.62"/><path class="cls-5" d="M25.41,47.41A3.44,3.44,0,1,1,22,44a3.44,3.44,0,0,1,3.44,3.44"/><path class="cls-5" d="M25.23,47.41A3.26,3.26,0,1,1,22,44.15a3.26,3.26,0,0,1,3.26,3.26"/><path class="cls-5" d="M25.05,47.41A3.08,3.08,0,1,1,22,44.33a3.08,3.08,0,0,1,3.08,3.08"/><path class="cls-5" d="M24.87,47.41a2.9,2.9,0,1,1-2.9-2.9,2.9,2.9,0,0,1,2.9,2.9"/><path class="cls-5" d="M24.69,47.41A2.72,2.72,0,1,1,22,44.69a2.72,2.72,0,0,1,2.72,2.72"/><path class="cls-5" d="M24.51,47.41A2.54,2.54,0,1,1,22,44.87a2.54,2.54,0,0,1,2.54,2.54"/><path class="cls-5" d="M24.33,47.41A2.36,2.36,0,1,1,22,45.05a2.36,2.36,0,0,1,2.36,2.36"/><path class="cls-5" d="M24.14,47.41A2.17,2.17,0,1,1,22,45.24a2.17,2.17,0,0,1,2.17,2.17"/><path class="cls-5" d="M24,47.41a2,2,0,1,1-2-2,2,2,0,0,1,2,2"/><path class="cls-5" d="M23.78,47.41A1.81,1.81,0,1,1,22,45.6a1.82,1.82,0,0,1,1.81,1.81"/><path class="cls-5" d="M23.6,47.41A1.63,1.63,0,1,1,22,45.78a1.63,1.63,0,0,1,1.63,1.63"/><path class="cls-5" d="M23.42,47.41A1.45,1.45,0,1,1,22,46a1.44,1.44,0,0,1,1.45,1.45"/><path class="cls-5" d="M23.24,47.41A1.27,1.27,0,1,1,22,46.14a1.26,1.26,0,0,1,1.27,1.27"/><path class="cls-5" d="M23.06,47.41A1.09,1.09,0,1,1,22,46.32a1.08,1.08,0,0,1,1.09,1.09"/><path class="cls-5" d="M22.88,47.41A.91.91,0,1,1,22,46.5a.9.9,0,0,1,.91.91"/><path class="cls-5" d="M22.7,47.41a.73.73,0,0,1-.73.72.72.72,0,0,1-.72-.72.73.73,0,0,1,.72-.73.73.73,0,0,1,.73.73"/><path class="cls-5" d="M22.52,47.41A.55.55,0,0,1,22,48a.54.54,0,0,1-.54-.54.55.55,0,0,1,.54-.55.55.55,0,0,1,.55.55"/><path class="cls-5" d="M22.34,47.41a.37.37,0,0,1-.37.36.36.36,0,0,1-.36-.36A.37.37,0,0,1,22,47a.38.38,0,0,1,.37.37"/><path class="cls-5" d="M22.16,47.41a.19.19,0,0,1-.19.18.18.18,0,0,1-.18-.18.19.19,0,0,1,.18-.19.2.2,0,0,1,.19.19"/></g></g></g><g class="cls-10"><g class="cls-11"><path class="cls-5" d="M38.92,10.93a22,22,0,1,0,2.89,31,22,22,0,0,0-2.89-31"/><g class="cls-12"><polygon class="cls-5" points="0.22 35.95 20.2 52.52 0.22 52.52 0.22 35.95"/><polygon class="cls-5" points="0.22 35.09 21.25 52.52 20.2 52.52 0.22 35.95 0.22 35.09"/><polygon class="cls-5" points="0.22 34.22 22.29 52.52 21.25 52.52 0.22 35.08 0.22 34.22"/><polygon class="cls-5" points="0.22 33.35 23.33 52.52 22.29 52.52 0.22 34.22 0.22 33.35"/><polygon class="cls-5" points="0.22 32.49 24.38 52.52 23.33 52.52 0.22 33.35 0.22 32.49"/><polygon class="cls-5" points="0.22 31.62 25.42 52.52 24.38 52.52 0.22 32.49 0.22 31.62"/><polygon class="cls-5" points="0.22 30.76 26.46 52.52 25.42 52.52 0.22 31.62 0.22 30.76"/><polygon class="cls-5" points="0.22 29.89 27.51 52.52 26.46 52.52 0.22 30.76 0.22 29.89"/><polygon class="cls-5" points="0.22 29.03 28.55 52.52 27.51 52.52 0.22 29.89 0.22 29.03"/><polygon class="cls-5" points="0.22 28.16 29.59 52.52 28.55 52.52 0.22 29.03 0.22 28.16"/><polygon class="cls-5" points="0.22 27.3 30.64 52.52 29.59 52.52 0.22 28.16 0.22 27.3"/><polygon class="cls-5" points="0.22 26.43 31.68 52.52 30.64 52.52 0.22 27.3 0.22 26.43"/><polygon class="cls-5" points="0.22 25.57 32.72 52.52 31.68 52.52 0.22 26.43 0.22 25.57"/><polygon class="cls-5" points="0.22 24.7 33.62 52.4 33.52 52.52 32.72 52.52 0.22 25.57 0.22 24.7"/><polygon class="cls-5" points="0.22 23.84 34.04 51.89 33.62 52.4 0.22 24.7 0.22 23.84"/><polygon class="cls-5" points="0.22 22.97 34.47 51.37 34.04 51.89 0.22 23.83 0.22 22.97"/><polygon class="cls-5" points="0.22 22.53 0.43 22.28 34.89 50.86 34.47 51.38 0.22 22.97 0.22 22.53"/><rect class="cls-5" x="17.54" y="13.92" width="0.67" height="44.78" transform="translate(-21.49 26.91) rotate(-50.36)"/><rect class="cls-5" x="17.97" y="13.41" width="0.67" height="44.78" transform="translate(-20.93 27.01) rotate(-50.29)"/><rect class="cls-5" x="18.39" y="12.9" width="0.67" height="44.78" transform="translate(-20.39 27.19) rotate(-50.36)"/><rect class="cls-5" x="18.82" y="12.39" width="0.67" height="44.78" transform="translate(-19.84 27.29) rotate(-50.29)"/><rect class="cls-5" x="19.24" y="11.87" width="0.67" height="44.78" transform="translate(-19.3 27.48) rotate(-50.36)"/><rect class="cls-5" x="19.67" y="11.36" width="0.67" height="44.78" transform="translate(-18.74 27.58) rotate(-50.29)"/><rect class="cls-5" x="20.09" y="10.85" width="0.67" height="44.78" transform="translate(-18.2 27.76) rotate(-50.36)"/><rect class="cls-5" x="20.52" y="10.34" width="0.67" height="44.78" transform="translate(-17.65 27.9) rotate(-50.35)"/><rect class="cls-5" x="20.94" y="9.82" width="0.67" height="44.78" transform="translate(-17.1 28.05) rotate(-50.36)"/><rect class="cls-5" x="21.37" y="9.31" width="0.67" height="44.78" transform="translate(-16.55 28.14) rotate(-50.29)"/><rect class="cls-5" x="21.79" y="8.8" width="0.67" height="44.78" transform="translate(-16 28.33) rotate(-50.36)"/><rect class="cls-5" x="22.22" y="8.28" width="0.67" height="44.78" transform="translate(-15.45 28.43) rotate(-50.29)"/><rect class="cls-5" x="22.64" y="7.77" width="0.67" height="44.78" transform="translate(-14.91 28.61) rotate(-50.36)"/><rect class="cls-5" x="23.07" y="7.26" width="0.67" height="44.78" transform="translate(-14.36 28.71) rotate(-50.29)"/><rect class="cls-5" x="23.5" y="6.75" width="0.67" height="44.78" transform="translate(-13.81 28.9) rotate(-50.36)"/><rect class="cls-5" x="23.92" y="6.23" width="0.67" height="44.78" transform="translate(-13.26 29) rotate(-50.29)"/><rect class="cls-5" x="24.35" y="5.72" width="0.67" height="44.78" transform="translate(-12.71 29.18) rotate(-50.36)"/><rect class="cls-5" x="24.77" y="5.21" width="0.67" height="44.78" transform="translate(-12.16 29.32) rotate(-50.36)"/><rect class="cls-5" x="25.2" y="4.7" width="0.67" height="44.78" transform="translate(-11.62 29.42) rotate(-50.29)"/><rect class="cls-5" x="25.62" y="4.18" width="0.67" height="44.78" transform="translate(-11.06 29.61) rotate(-50.36)"/><rect class="cls-5" x="26.05" y="3.67" width="0.67" height="44.78" transform="translate(-10.52 29.71) rotate(-50.29)"/><rect class="cls-5" x="26.47" y="3.16" width="0.67" height="44.78" transform="translate(-9.97 29.89) rotate(-50.36)"/><rect class="cls-5" x="26.9" y="2.64" width="0.67" height="44.78" transform="translate(-9.42 29.99) rotate(-50.29)"/><rect class="cls-5" x="27.32" y="2.13" width="0.67" height="44.78" transform="translate(-8.87 30.17) rotate(-50.36)"/><rect class="cls-5" x="27.75" y="1.62" width="0.67" height="44.78" transform="translate(-8.33 30.27) rotate(-50.29)"/><rect class="cls-5" x="28.17" y="1.11" width="0.67" height="44.78" transform="translate(-7.77 30.46) rotate(-50.36)"/><rect class="cls-5" x="28.6" y="0.59" width="0.67" height="44.78" transform="translate(-7.23 30.56) rotate(-50.29)"/><rect class="cls-5" x="29.02" y="0.08" width="0.67" height="44.78" transform="translate(-6.67 30.74) rotate(-50.36)"/><rect class="cls-5" x="29.45" y="-0.43" width="0.67" height="44.78" transform="translate(-6.14 30.84) rotate(-50.29)"/><rect class="cls-5" x="29.87" y="-0.94" width="0.67" height="44.78" transform="translate(-5.58 31.02) rotate(-50.36)"/><rect class="cls-5" x="30.3" y="-1.46" width="0.67" height="44.78" transform="translate(-5.04 31.13) rotate(-50.29)"/><rect class="cls-5" x="30.72" y="-1.97" width="0.67" height="44.78" transform="translate(-4.48 31.31) rotate(-50.36)"/><rect class="cls-5" x="31.15" y="-2.48" width="0.67" height="44.78" transform="translate(-3.94 31.41) rotate(-50.29)"/><rect class="cls-5" x="31.58" y="-2.99" width="0.67" height="44.78" transform="translate(-3.38 31.59) rotate(-50.36)"/><polygon class="cls-5" points="14.89 4.84 15.31 4.33 49.56 32.74 49.56 33.18 49.35 33.43 14.89 4.84"/><polygon class="cls-5" points="15.31 4.33 15.74 3.82 49.56 31.87 49.56 32.74 15.31 4.33"/><polygon class="cls-5" points="15.74 3.82 16.16 3.31 49.56 31.01 49.56 31.87 15.74 3.82"/><polygon class="cls-5" points="16.16 3.31 16.27 3.18 17.06 3.18 49.56 30.14 49.56 31.01 16.16 3.31"/><polygon class="cls-5" points="18.1 3.18 49.56 29.27 49.56 30.14 17.06 3.18 18.1 3.18"/><polygon class="cls-5" points="19.15 3.18 49.56 28.41 49.56 29.27 18.1 3.18 19.15 3.18"/><polygon class="cls-5" points="20.19 3.18 49.56 27.54 49.56 28.41 19.14 3.18 20.19 3.18"/><polygon class="cls-5" points="21.23 3.18 49.56 26.68 49.56 27.54 20.19 3.18 21.23 3.18"/><polygon class="cls-5" points="22.28 3.18 49.56 25.81 49.56 26.68 21.23 3.18 22.28 3.18"/><polygon class="cls-5" points="23.32 3.18 49.56 24.95 49.56 25.81 22.28 3.18 23.32 3.18"/><polygon class="cls-5" points="24.36 3.18 49.56 24.08 49.56 24.95 23.32 3.18 24.36 3.18"/><polygon class="cls-5" points="25.41 3.18 49.56 23.22 49.56 24.08 24.36 3.18 25.41 3.18"/><polygon class="cls-5" points="26.45 3.18 49.56 22.35 49.56 23.22 25.41 3.18 26.45 3.18"/><polygon class="cls-5" points="27.49 3.18 49.56 21.49 49.56 22.35 26.45 3.18 27.49 3.18"/><polygon class="cls-5" points="28.54 3.18 49.56 20.62 49.56 21.49 27.49 3.18 28.54 3.18"/><polygon class="cls-5" points="29.58 3.18 49.56 19.75 49.56 20.62 28.54 3.18 29.58 3.18"/><polygon class="cls-5" points="49.56 19.76 29.58 3.18 49.56 3.18 49.56 19.76"/></g></g></g><g class="cls-7"><g class="cls-13"><path class="cls-5" d="M72.07,30.54a22,22,0,1,0,2.89,31,22,22,0,0,0-2.89-30.95"/><g class="cls-14"><rect class="cls-5" x="33.37" y="22.79" width="49.34" height="49.34"/><path class="cls-5" d="M65.67,38.25a12,12,0,1,1-16.84,1.57,12,12,0,0,1,16.84-1.57"/><path class="cls-5" d="M65.55,38.39A11.77,11.77,0,1,1,49,39.94a11.78,11.78,0,0,1,16.58-1.55"/><path class="cls-5" d="M65.44,38.53a11.6,11.6,0,1,1-16.33,1.52,11.6,11.6,0,0,1,16.33-1.52"/><path class="cls-5" d="M65.32,38.67a11.41,11.41,0,1,1-16.07,1.5,11.4,11.4,0,0,1,16.07-1.5"/><path class="cls-5" d="M65.21,38.81a11.23,11.23,0,1,1-15.82,1.48,11.24,11.24,0,0,1,15.82-1.48"/><path class="cls-5" d="M65.09,39A11.05,11.05,0,1,1,49.53,40.4,11,11,0,0,1,65.09,39"/><path class="cls-5" d="M65,39.09a10.87,10.87,0,1,1-15.31,1.43A10.87,10.87,0,0,1,65,39.09"/><path class="cls-5" d="M64.86,39.23a10.69,10.69,0,1,1-15,1.4,10.68,10.68,0,0,1,15-1.4"/><path class="cls-5" d="M64.75,39.37A10.51,10.51,0,1,1,50,40.75a10.52,10.52,0,0,1,14.8-1.38"/><path class="cls-5" d="M64.63,39.51a10.33,10.33,0,1,1-14.54,1.35,10.32,10.32,0,0,1,14.54-1.35"/><path class="cls-5" d="M64.51,39.65A10.15,10.15,0,1,1,50.23,41a10.15,10.15,0,0,1,14.28-1.33"/><path class="cls-5" d="M64.4,39.79a10,10,0,1,1-14,1.31,10,10,0,0,1,14-1.31"/><path class="cls-5" d="M64.28,39.93a9.78,9.78,0,1,1-13.77,1.28,9.78,9.78,0,0,1,13.77-1.28"/><path class="cls-5" d="M64.17,40.07a9.6,9.6,0,1,1-13.53,1.26,9.61,9.61,0,0,1,13.53-1.26"/><path class="cls-5" d="M64.05,40.2a9.42,9.42,0,1,1-13.27,1.24A9.42,9.42,0,0,1,64.05,40.2"/><path class="cls-5" d="M63.94,40.34a9.24,9.24,0,1,1-13,1.22,9.26,9.26,0,0,1,13-1.22"/><path class="cls-5" d="M63.82,40.48a9.06,9.06,0,1,1-12.76,1.19,9.07,9.07,0,0,1,12.76-1.19"/><path class="cls-5" d="M63.7,40.62a8.88,8.88,0,1,1-12.5,1.17,8.88,8.88,0,0,1,12.5-1.17"/><path class="cls-5" d="M63.59,40.76a8.7,8.7,0,1,1-12.25,1.15,8.7,8.7,0,0,1,12.25-1.15"/><path class="cls-5" d="M63.47,40.9a8.52,8.52,0,1,1-12,1.12,8.52,8.52,0,0,1,12-1.12"/><path class="cls-5" d="M63.36,41a8.34,8.34,0,1,1-11.74,1.1A8.34,8.34,0,0,1,63.36,41"/><path class="cls-5" d="M63.24,41.18a8.15,8.15,0,1,1-11.48,1.07,8.14,8.14,0,0,1,11.48-1.07"/><path class="cls-5" d="M63.13,41.32a8,8,0,1,1-11.23,1,8,8,0,0,1,11.23-1"/><path class="cls-5" d="M63,41.46a7.79,7.79,0,1,1-11,1,7.79,7.79,0,0,1,11-1"/><path class="cls-5" d="M62.89,41.6a7.61,7.61,0,1,1-10.71,1,7.6,7.6,0,0,1,10.71-1"/><path class="cls-5" d="M62.78,41.74a7.43,7.43,0,1,1-10.46,1,7.42,7.42,0,0,1,10.46-1"/><path class="cls-5" d="M62.66,41.88a7.25,7.25,0,1,1-10.2.95,7.24,7.24,0,0,1,10.2-.95"/><path class="cls-5" d="M62.55,42A7.07,7.07,0,1,1,52.6,43,7.07,7.07,0,0,1,62.55,42"/><path class="cls-5" d="M62.43,42.16a6.89,6.89,0,1,1-9.69.9,6.88,6.88,0,0,1,9.69-.9"/><path class="cls-5" d="M62.32,42.3a6.7,6.7,0,1,1-9.44.88,6.71,6.71,0,0,1,9.44-.88"/><path class="cls-5" d="M62.2,42.44a6.52,6.52,0,1,1-9.19.85,6.52,6.52,0,0,1,9.19-.85"/><path class="cls-5" d="M62.08,42.58a6.34,6.34,0,1,1-8.93.83,6.34,6.34,0,0,1,8.93-.83"/><path class="cls-5" d="M62,42.72a6.16,6.16,0,1,1-8.68.8,6.16,6.16,0,0,1,8.68-.8"/><path class="cls-5" d="M61.85,42.86a6,6,0,1,1-8.42.78,6,6,0,0,1,8.42-.78"/><path class="cls-5" d="M61.74,43a5.8,5.8,0,1,1-8.17.77A5.81,5.81,0,0,1,61.74,43"/><path class="cls-5" d="M61.62,43.13a5.62,5.62,0,1,1-7.91.74,5.62,5.62,0,0,1,7.91-.74"/><path class="cls-5" d="M61.51,43.27a5.44,5.44,0,1,1-7.66.72,5.44,5.44,0,0,1,7.66-.72"/><path class="cls-5" d="M61.39,43.41a5.26,5.26,0,1,1-7.4.69,5.26,5.26,0,0,1,7.4-.69"/><path class="cls-5" d="M61.27,43.55a5.07,5.07,0,1,1-7.14.67,5.08,5.08,0,0,1,7.14-.67"/><path class="cls-5" d="M61.16,43.69a4.89,4.89,0,1,1-6.89.65,4.89,4.89,0,0,1,6.89-.65"/><path class="cls-5" d="M61,43.83a4.71,4.71,0,1,1-6.63.62A4.71,4.71,0,0,1,61,43.83"/><path class="cls-5" d="M60.93,44a4.53,4.53,0,1,1-6.38.6,4.53,4.53,0,0,1,6.38-.6"/><path class="cls-5" d="M60.81,44.11a4.35,4.35,0,1,1-6.12.57,4.34,4.34,0,0,1,6.12-.57"/><path class="cls-5" d="M60.7,44.25a4.17,4.17,0,1,1-5.87.55,4.17,4.17,0,0,1,5.87-.55"/><path class="cls-5" d="M60.58,44.39a4,4,0,1,1-5.61.52,4,4,0,0,1,5.61-.52"/><path class="cls-5" d="M60.46,44.53a3.8,3.8,0,1,1-5.35.5,3.8,3.8,0,0,1,5.35-.5"/><path class="cls-5" d="M60.35,44.67a3.63,3.63,0,1,1-5.1.47,3.63,3.63,0,0,1,5.1-.47"/><path class="cls-5" d="M60.23,44.81a3.44,3.44,0,1,1-4.84.45,3.44,3.44,0,0,1,4.84-.45"/><path class="cls-5" d="M60.12,45a3.26,3.26,0,1,1-4.59.43A3.26,3.26,0,0,1,60.12,45"/><path class="cls-5" d="M60,45.09a3.08,3.08,0,1,1-4.34.4,3.08,3.08,0,0,1,4.34-.4"/><path class="cls-5" d="M59.89,45.23a2.9,2.9,0,1,1-4.09.38,2.9,2.9,0,0,1,4.09-.38"/><path class="cls-5" d="M59.77,45.37a2.72,2.72,0,1,1-3.47,4.18,2.72,2.72,0,1,1,3.47-4.18"/><path class="cls-5" d="M59.66,45.5a2.54,2.54,0,1,1-3.58.34,2.56,2.56,0,0,1,3.58-.34"/><path class="cls-5" d="M59.54,45.64a2.36,2.36,0,1,1-3.32.31,2.36,2.36,0,0,1,3.32-.31"/><path class="cls-5" d="M59.42,45.78a2.17,2.17,0,1,1-3.06.29,2.18,2.18,0,0,1,3.06-.29"/><path class="cls-5" d="M59.31,45.92a2,2,0,1,1-2.81.27,2,2,0,0,1,2.81-.27"/><path class="cls-5" d="M59.19,46.06a1.81,1.81,0,1,1-2.55.24,1.81,1.81,0,0,1,2.55-.24"/><path class="cls-5" d="M59.08,46.2a1.63,1.63,0,1,1-2.3.22,1.63,1.63,0,0,1,2.3-.22"/><path class="cls-5" d="M59,46.34a1.45,1.45,0,1,1-2,.19,1.45,1.45,0,0,1,2-.19"/><path class="cls-5" d="M58.85,46.48A1.28,1.28,0,0,1,59,48.27a1.27,1.27,0,0,1-1.95-1.62,1.27,1.27,0,0,1,1.79-.17"/><path class="cls-5" d="M58.73,46.62a1.09,1.09,0,1,1-1.53.14,1.08,1.08,0,0,1,1.53-.14"/><path class="cls-5" d="M58.61,46.76a.91.91,0,1,1-1.27.12.89.89,0,0,1,1.27-.12"/><path class="cls-5" d="M58.5,46.9a.72.72,0,0,1,.09,1,.73.73,0,0,1-1,.1.73.73,0,0,1,.93-1.12"/><path class="cls-5" d="M58.38,47a.54.54,0,0,1-.69.84.55.55,0,0,1-.07-.77.54.54,0,0,1,.76-.07"/><path class="cls-5" d="M58.27,47.18a.36.36,0,0,1,0,.51.37.37,0,0,1-.51.05.36.36,0,0,1,0-.51.35.35,0,0,1,.51,0"/><path class="cls-5" d="M58.15,47.32a.18.18,0,0,1,0,.25.19.19,0,0,1-.26,0,.18.18,0,0,1,0-.26.18.18,0,0,1,.25,0"/></g></g></g><g class="cls-7"><g class="cls-15"><path class="cls-5" d="M52.76,77.1a25.08,25.08,0,1,0-25,25.14,25.08,25.08,0,0,0,25-25.14"/><g class="cls-16"><rect class="cls-5" x="2.56" y="52.05" width="50.23" height="50.23"/><path class="cls-5" d="M52.76,77.1a25.08,25.08,0,1,1-25.14-25,25.08,25.08,0,0,1,25.14,25"/><path class="cls-5" d="M52.55,77.1A24.88,24.88,0,1,1,27.62,52.29,24.87,24.87,0,0,1,52.55,77.1"/><path class="cls-5" d="M52.34,77.1A24.67,24.67,0,1,1,27.62,52.49,24.66,24.66,0,0,1,52.34,77.1"/><path class="cls-5" d="M52.14,77.1A24.46,24.46,0,1,1,27.62,52.7,24.47,24.47,0,0,1,52.14,77.1"/><path class="cls-5" d="M51.93,77.1A24.26,24.26,0,1,1,27.62,52.91,24.25,24.25,0,0,1,51.93,77.1"/><path class="cls-5" d="M51.72,77.1a24,24,0,1,1-24.1-24,24,24,0,0,1,24.1,24"/><path class="cls-5" d="M51.52,77.11a23.84,23.84,0,1,1-23.9-23.79,23.84,23.84,0,0,1,23.9,23.79"/><path class="cls-5" d="M51.31,77.11A23.64,23.64,0,1,1,27.62,53.53,23.63,23.63,0,0,1,51.31,77.11"/><path class="cls-5" d="M51.1,77.11A23.43,23.43,0,1,1,27.62,53.73,23.43,23.43,0,0,1,51.1,77.11"/><path class="cls-5" d="M50.9,77.11A23.22,23.22,0,1,1,27.62,53.94,23.23,23.23,0,0,1,50.9,77.11"/><path class="cls-5" d="M50.69,77.11a23,23,0,1,1-23.07-23,23,23,0,0,1,23.07,23"/><path class="cls-5" d="M50.48,77.11A22.81,22.81,0,1,1,27.63,54.35,22.8,22.8,0,0,1,50.48,77.11"/><path class="cls-5" d="M50.28,77.11A22.6,22.6,0,1,1,27.63,54.56,22.6,22.6,0,0,1,50.28,77.11"/><path class="cls-5" d="M50.07,77.11A22.4,22.4,0,1,1,27.63,54.77,22.38,22.38,0,0,1,50.07,77.11"/><path class="cls-5" d="M49.86,77.11A22.19,22.19,0,1,1,27.63,55,22.19,22.19,0,0,1,49.86,77.11"/><path class="cls-5" d="M49.66,77.11a22,22,0,1,1-22-21.93,22,22,0,0,1,22,21.93"/><path class="cls-5" d="M49.45,77.11A21.78,21.78,0,1,1,27.63,55.39,21.77,21.77,0,0,1,49.45,77.11"/><path class="cls-5" d="M49.24,77.11A21.57,21.57,0,1,1,27.63,55.59,21.57,21.57,0,0,1,49.24,77.11"/><path class="cls-5" d="M49,77.11A21.36,21.36,0,1,1,27.63,55.8,21.37,21.37,0,0,1,49,77.11"/><path class="cls-5" d="M48.83,77.11A21.16,21.16,0,1,1,27.63,56a21.14,21.14,0,0,1,21.2,21.1"/><path class="cls-5" d="M48.62,77.11a20.95,20.95,0,1,1-21-20.9,20.95,20.95,0,0,1,21,20.9"/><path class="cls-5" d="M48.42,77.11A20.74,20.74,0,1,1,27.63,56.42,20.75,20.75,0,0,1,48.42,77.11"/><path class="cls-5" d="M48.21,77.11A20.54,20.54,0,1,1,27.63,56.63,20.54,20.54,0,0,1,48.21,77.11"/><path class="cls-5" d="M48,77.11A20.33,20.33,0,1,1,27.63,56.84,20.33,20.33,0,0,1,48,77.11"/><path class="cls-5" d="M47.8,77.11A20.12,20.12,0,1,1,27.63,57,20.14,20.14,0,0,1,47.8,77.11"/><path class="cls-5" d="M47.59,77.11a19.92,19.92,0,1,1-20-19.86,19.91,19.91,0,0,1,20,19.86"/><path class="cls-5" d="M47.38,77.11A19.71,19.71,0,1,1,27.63,57.45,19.69,19.69,0,0,1,47.38,77.11"/><path class="cls-5" d="M47.18,77.11A19.5,19.5,0,1,1,27.63,57.66,19.51,19.51,0,0,1,47.18,77.11"/><path class="cls-5" d="M47,77.12A19.29,19.29,0,1,1,27.63,57.87,19.29,19.29,0,0,1,47,77.12"/><path class="cls-5" d="M46.76,77.12A19.09,19.09,0,1,1,27.63,58.07,19.07,19.07,0,0,1,46.76,77.12"/><path class="cls-5" d="M46.56,77.12A18.88,18.88,0,1,1,27.63,58.28,18.89,18.89,0,0,1,46.56,77.12"/><path class="cls-5" d="M46.35,77.12A18.67,18.67,0,1,1,27.63,58.49,18.67,18.67,0,0,1,46.35,77.12"/><path class="cls-5" d="M46.14,77.12A18.47,18.47,0,1,1,27.63,58.69,18.45,18.45,0,0,1,46.14,77.12"/><path class="cls-5" d="M45.94,77.12A18.26,18.26,0,1,1,27.64,58.9a18.27,18.27,0,0,1,18.3,18.22"/><path class="cls-5" d="M45.73,77.12a18.05,18.05,0,1,1-18.09-18,18,18,0,0,1,18.09,18"/><path class="cls-5" d="M45.52,77.12A17.85,17.85,0,1,1,27.64,59.31,17.84,17.84,0,0,1,45.52,77.12"/><path class="cls-5" d="M45.32,77.12a17.64,17.64,0,1,1-17.68-17.6,17.64,17.64,0,0,1,17.68,17.6"/><path class="cls-5" d="M45.11,77.12A17.43,17.43,0,1,1,27.64,59.73,17.43,17.43,0,0,1,45.11,77.12"/><path class="cls-5" d="M44.9,77.12A17.23,17.23,0,1,1,27.64,59.93,17.22,17.22,0,0,1,44.9,77.12"/><path class="cls-5" d="M44.7,77.12a17,17,0,1,1-17.06-17,17,17,0,0,1,17.06,17"/><path class="cls-5" d="M44.49,77.12A16.81,16.81,0,1,1,27.64,60.35,16.81,16.81,0,0,1,44.49,77.12"/><path class="cls-5" d="M44.28,77.12A16.61,16.61,0,1,1,27.64,60.56,16.6,16.6,0,0,1,44.28,77.12"/><path class="cls-5" d="M44.08,77.12A16.4,16.4,0,1,1,27.64,60.76,16.4,16.4,0,0,1,44.08,77.12"/><path class="cls-5" d="M43.87,77.12A16.19,16.19,0,1,1,27.64,61,16.19,16.19,0,0,1,43.87,77.12"/><path class="cls-5" d="M43.66,77.12a16,16,0,1,1-16-15.94,16,16,0,0,1,16,15.94"/><path class="cls-5" d="M43.46,77.12A15.78,15.78,0,1,1,27.64,61.38,15.79,15.79,0,0,1,43.46,77.12"/><path class="cls-5" d="M43.25,77.12A15.57,15.57,0,1,1,27.64,61.59,15.58,15.58,0,0,1,43.25,77.12"/><path class="cls-5" d="M43,77.12A15.37,15.37,0,1,1,27.64,61.8,15.36,15.36,0,0,1,43,77.12"/><path class="cls-5" d="M42.83,77.12A15.16,15.16,0,1,1,27.64,62,15.16,15.16,0,0,1,42.83,77.12"/><path class="cls-5" d="M42.63,77.13a15,15,0,1,1-15-14.92,15,15,0,0,1,15,14.92"/><path class="cls-5" d="M42.42,77.13A14.75,14.75,0,1,1,27.64,62.42,14.73,14.73,0,0,1,42.42,77.13"/><path class="cls-5" d="M42.21,77.13A14.54,14.54,0,1,1,27.64,62.62,14.54,14.54,0,0,1,42.21,77.13"/><path class="cls-5" d="M42,77.13a14.33,14.33,0,1,1-14.37-14.3A14.34,14.34,0,0,1,42,77.13"/><path class="cls-5" d="M41.8,77.13A14.13,14.13,0,1,1,27.64,63,14.11,14.11,0,0,1,41.8,77.13"/><path class="cls-5" d="M41.59,77.13A13.92,13.92,0,1,1,27.65,63.24,13.92,13.92,0,0,1,41.59,77.13"/><path class="cls-5" d="M41.39,77.13A13.71,13.71,0,1,1,27.65,63.45,13.71,13.71,0,0,1,41.39,77.13"/><path class="cls-5" d="M41.18,77.13A13.51,13.51,0,1,1,27.65,63.66,13.49,13.49,0,0,1,41.18,77.13"/><path class="cls-5" d="M41,77.13A13.3,13.3,0,1,1,27.65,63.86,13.3,13.3,0,0,1,41,77.13"/><path class="cls-5" d="M40.77,77.13A13.09,13.09,0,1,1,27.65,64.07,13.1,13.1,0,0,1,40.77,77.13"/><path class="cls-5" d="M40.56,77.13A12.89,12.89,0,1,1,27.65,64.28,12.87,12.87,0,0,1,40.56,77.13"/><path class="cls-5" d="M40.35,77.13a12.68,12.68,0,1,1-12.7-12.65,12.68,12.68,0,0,1,12.7,12.65"/><path class="cls-5" d="M40.15,77.13a12.47,12.47,0,1,1-12.5-12.44,12.48,12.48,0,0,1,12.5,12.44"/><path class="cls-5" d="M39.94,77.13A12.27,12.27,0,1,1,27.65,64.9,12.25,12.25,0,0,1,39.94,77.13"/><path class="cls-5" d="M39.73,77.13a12.06,12.06,0,1,1-12.08-12,12.06,12.06,0,0,1,12.08,12"/><path class="cls-5" d="M39.53,77.13A11.85,11.85,0,1,1,27.65,65.31,11.86,11.86,0,0,1,39.53,77.13"/><path class="cls-5" d="M39.32,77.13A11.65,11.65,0,1,1,27.65,65.52,11.64,11.64,0,0,1,39.32,77.13"/></g></g></g></g><g class="cls-4"><text class="cls-17" transform="translate(159.67 16.71)"><tspan class="cls-18">C</tspan><tspan class="cls-19" x="8.71" y="0">o</tspan><tspan class="cls-18" x="20.25" y="0">n </tspan><tspan class="cls-20" x="32.17" y="0">e</tspan><tspan class="cls-21" x="40.39" y="0">l</tspan><tspan class="cls-18" x="47.28" y="0"> </tspan><tspan class="cls-22" x="49.46" y="0">a</tspan><tspan class="cls-18" x="58.14" y="0">p</tspan><tspan class="cls-23" x="68.98" y="0">o</tspan><tspan class="cls-18" x="79.73" y="0">y</tspan><tspan class="cls-19" x="89.12" y="0">o d</tspan><tspan class="cls-18" x="113.29" y="0">e </tspan><tspan class="cls-21" x="123.88" y="0">l</tspan><tspan x="130.76" y="0">a</tspan></text></g></g></g></g></svg>