<svg id="Layer_1" data-name="Layer 1" xmlns="http://www.w3.org/2000/svg" viewBox="0 0 189.56 188.91"><defs><style>.cls-1{fill:#373d19;}.cls-2{fill:#cddc43;}.cls-3{fill:#758436;}.cls-4{fill:#b0c236;}.cls-5{fill:#e0e667;}.cls-6{fill:#17180d;}.cls-7{fill:#96ab3b;}.cls-8{fill:#394019;}.cls-9{fill:#face0b;}.cls-10{fill:#f9e67f;}.cls-11{fill:#e28e25;}.cls-12{fill:#fff;}.cls-13{fill:#fcf8c9;}.cls-14{fill:#91365f;}.cls-15{fill:#801d1e;}.cls-16{fill:#f495bc;}</style></defs><title>germen-vivo</title><path class="cls-1" d="M63,2.84A27.38,27.38,0,0,1,74.19,0,9.46,9.46,0,0,1,77.7.5a2.5,2.5,0,0,1,1.46,1.26,1.87,1.87,0,0,1-.27,1.55,7.09,7.09,0,0,1-2.56,2.3c-.28.2-.67.37-.74.75a22.25,22.25,0,0,0,.14,8.94,24.46,24.46,0,0,0,3.47,8.3,27.62,27.62,0,0,0,4.4,5.25,72.9,72.9,0,0,1,15.12-1,26.34,26.34,0,0,0,1-4.91,29,29,0,0,0,.14-5.66,32.21,32.21,0,0,0-.7-4.27,7.14,7.14,0,0,1-2.52-2,2.5,2.5,0,0,1-.53-1.48,2.32,2.32,0,0,1,1-1.71,6.82,6.82,0,0,1,3.18-1.14,17.2,17.2,0,0,1,10,1.8,5.63,5.63,0,0,1,2.27,2,2.28,2.28,0,0,1,.36,1.62,2.68,2.68,0,0,1-1.38,1.67,14.33,14.33,0,0,1-2.72.86,30,30,0,0,0-4,13.75,67.21,67.21,0,0,1,17.1,4.66A24.33,24.33,0,0,0,133.72,14.4a6.4,6.4,0,0,1-1.41-1.94,1.83,1.83,0,0,1-.05-1.38,2,2,0,0,1,1.3-1,6.48,6.48,0,0,1,2.84,0,12.59,12.59,0,0,1,6.52,3.37,3.54,3.54,0,0,1,1.15,2.44,1.54,1.54,0,0,1-.95,1.32,5.6,5.6,0,0,1-2.76.27,24,24,0,0,0-7.48,17.67,16.63,16.63,0,0,0,.68,4.31c1.65,1.22,3.32,2.42,4.91,3.71a67.24,67.24,0,0,1,9.08,9.09,30,30,0,0,0,9-10.47,9.31,9.31,0,0,1-.73-3.23A2.19,2.19,0,0,1,157,36.62a4.54,4.54,0,0,1,3.92.61,16.87,16.87,0,0,1,6.89,7.44,6.78,6.78,0,0,1,.75,3.33,2.15,2.15,0,0,1-1.68,2A6.26,6.26,0,0,1,163,49a29,29,0,0,0-5.87,2.85,30.49,30.49,0,0,0-6.1,5.11,68.2,68.2,0,0,1,6.79,12.69,23.11,23.11,0,0,0,5.68.68A24.7,24.7,0,0,0,180.75,64a.52.52,0,0,0,.17-.39,6.8,6.8,0,0,1,.67-3.42,1.88,1.88,0,0,1,1-1,2.14,2.14,0,0,1,1.88.43,10.43,10.43,0,0,1,3,4.07,21.42,21.42,0,0,1,2,7.32,11.66,11.66,0,0,1-.17,3.91,3.45,3.45,0,0,1-1.26,2,1.83,1.83,0,0,1-1.82-.16,7.67,7.67,0,0,1-2.39-2.67,22.61,22.61,0,0,0-6.31,0,23.48,23.48,0,0,0-5.35,1.3A26.76,26.76,0,0,0,161.6,82.6a70.82,70.82,0,0,1,1,12.67c0,1.73-.14,3.46-.24,5.19a32.77,32.77,0,0,0,9.87,1.69,32.13,32.13,0,0,0,5.79-.6,8.32,8.32,0,0,1,2-2.45,2.35,2.35,0,0,1,1.9-.49,2.87,2.87,0,0,1,1.82,1.76,11,11,0,0,1,.66,4.69,17,17,0,0,1-1.33,6,10.55,10.55,0,0,1-1.81,3,3.65,3.65,0,0,1-2.13,1.19,2.27,2.27,0,0,1-2-1.07,10.15,10.15,0,0,1-1-3,3.06,3.06,0,0,0-1.11-.83,29.82,29.82,0,0,0-13.64-3.77,70.35,70.35,0,0,1-4.17,13.75,23.84,23.84,0,0,0,17.23,13.45,6.21,6.21,0,0,1,2.14-1.2,1.79,1.79,0,0,1,1.43.15,1.67,1.67,0,0,1,.68,1,4.39,4.39,0,0,1-.05,2.66,12.63,12.63,0,0,1-4.25,6.39,4.46,4.46,0,0,1-1.88,1,1.83,1.83,0,0,1-1.6-.33,2.36,2.36,0,0,1-.63-1.75,12.13,12.13,0,0,1,.2-1.7,22.41,22.41,0,0,0-7.17-6.21,25.21,25.21,0,0,0-11.63-3.15,70.35,70.35,0,0,1-12.32,14.13,29.68,29.68,0,0,0,9.82,8.06,11,11,0,0,1,3-.75,2.37,2.37,0,0,1,1.94.87,3.08,3.08,0,0,1,.32,2.36,9.4,9.4,0,0,1-1.63,3.31,17.1,17.1,0,0,1-4.42,4.27,10,10,0,0,1-5,2,2.5,2.5,0,0,1-2.09-.85,2.41,2.41,0,0,1-.42-1.67A10.9,10.9,0,0,1,142,159.3a29,29,0,0,0-3-6.05,33.76,33.76,0,0,0-4.06-4.94,68.35,68.35,0,0,1-16.24,8.77,24.14,24.14,0,0,0-.92,6.32,26.3,26.3,0,0,0,.37,5.17A22.77,22.77,0,0,0,124,180.28a6.72,6.72,0,0,1,4.14.95,1.6,1.6,0,0,1,.53,1.71,3.39,3.39,0,0,1-1,1.48,12.12,12.12,0,0,1-3.48,2.28,16.23,16.23,0,0,1-1.92.81,22.2,22.2,0,0,1-4.94,1.23,13.45,13.45,0,0,1-4.9-.11,3,3,0,0,1-2-1.35,1.79,1.79,0,0,1,.24-1.68,7.83,7.83,0,0,1,2.78-2.39,23.06,23.06,0,0,0-1.39-12.32,25.13,25.13,0,0,0-7.33-10.12,68.34,68.34,0,0,1-15.52.63,28.57,28.57,0,0,0-.83,6.25,26.63,26.63,0,0,0,.68,6.95c0,.29.3.42.51.55A5.89,5.89,0,0,1,91.78,177a2.27,2.27,0,0,1,.41,1.65,2.79,2.79,0,0,1-1.69,1.87,11.34,11.34,0,0,1-5.41.77,16.51,16.51,0,0,1-5.92-1.37,7.63,7.63,0,0,1-3.1-2.16,2.21,2.21,0,0,1,.64-3.56,10.46,10.46,0,0,1,2.58-.87c.3-.06.44-.35.58-.58A29.28,29.28,0,0,0,83,164.56a21.32,21.32,0,0,0,.56-3.9,63.94,63.94,0,0,1-15-4,26,26,0,0,0-7.35,8,22.58,22.58,0,0,0-3.1,9.61c0,.29.21.49.38.7a3.6,3.6,0,0,1,1.16,2.33,1.72,1.72,0,0,1-1.22,1.49,5.72,5.72,0,0,1-2.29.18,12.9,12.9,0,0,1-6.38-2.7,5.66,5.66,0,0,1-1.76-2,2.42,2.42,0,0,1-.22-1.56,1.62,1.62,0,0,1,.91-1,4,4,0,0,1,2.05-.29c.31,0,.69.07.93-.19a23.9,23.9,0,0,0,7.11-19.58,64.85,64.85,0,0,1-13-10.42,29.36,29.36,0,0,0-8.51,10.6,8.54,8.54,0,0,1,.81,3.35,2.07,2.07,0,0,1-1.44,1.93,5.07,5.07,0,0,1-3.7-.66,17.07,17.07,0,0,1-7-7.2,6.58,6.58,0,0,1-.84-3.38,2.1,2.1,0,0,1,1.63-2,6.13,6.13,0,0,1,3.85.91,28.46,28.46,0,0,0,6-3.17,32.83,32.83,0,0,0,5.35-4.71,70.16,70.16,0,0,1-8.91-14.57,28.43,28.43,0,0,0-19.14,2.76,27.45,27.45,0,0,0-4.7,3.38A9.65,9.65,0,0,1,8.47,132c-.3.61-.72,1.3-1.46,1.39a3,3,0,0,1-2.39-1,12.79,12.79,0,0,1-2.55-3.85,22,22,0,0,1-2-7.5,10.88,10.88,0,0,1,.26-4A3.37,3.37,0,0,1,1.7,115a2,2,0,0,1,1.81.18A7.54,7.54,0,0,1,6,117.94a24.63,24.63,0,0,0,9.13-.45,28.09,28.09,0,0,0,10-4.53,22,22,0,0,0,3.67-3.13,64.81,64.81,0,0,1-1.62-17.56,38.09,38.09,0,0,0-5.63-.57,28.81,28.81,0,0,0-6.92.78A6.45,6.45,0,0,1,12,95.37a1.92,1.92,0,0,1-1.87-.08,3.9,3.9,0,0,1-1.56-2.24,13.82,13.82,0,0,1-.44-5A16.82,16.82,0,0,1,9.75,82a6.4,6.4,0,0,1,2.13-2.69,2.4,2.4,0,0,1,1.75-.43,2.6,2.6,0,0,1,1.57,1.24,12.32,12.32,0,0,1,.95,2.84A30.34,30.34,0,0,0,27.57,86.7a69.17,69.17,0,0,1,5.87-19.81.59.59,0,0,0,0-.59A23.94,23.94,0,0,0,17.48,55.06c-.55.07-.93.57-1.43.8a2.72,2.72,0,0,1-1.94.37,1.68,1.68,0,0,1-1.06-1A3.81,3.81,0,0,1,13,53a12.4,12.4,0,0,1,4.91-7.35,3.23,3.23,0,0,1,2-.65,1.54,1.54,0,0,1,1.4,1,4.87,4.87,0,0,1,0,2.83,23.3,23.3,0,0,0,12.06,8.3,23.68,23.68,0,0,0,4.79,1c.38.07.54-.32.72-.57A67.8,67.8,0,0,1,50.07,44.87a19.78,19.78,0,0,0-2.88-3.7,29.26,29.26,0,0,0-7.74-5.88c-.38-.26-.83,0-1.22.09a5.59,5.59,0,0,1-2.67.43,2.06,2.06,0,0,1-1.74-1.42A4.77,4.77,0,0,1,34.39,31a17.07,17.07,0,0,1,6.94-6.87,7.62,7.62,0,0,1,3.88-1.08,2.15,2.15,0,0,1,2.06,1.56,5.68,5.68,0,0,1-1,3.9A29.12,29.12,0,0,0,54.88,41a66.7,66.7,0,0,1,14.77-8.15,28.32,28.32,0,0,0,.65-9.22,22,22,0,0,0-1.22-5.54,23.67,23.67,0,0,0-2.55-5.2A28.28,28.28,0,0,0,63.67,9.4,7.75,7.75,0,0,1,59,8.47a1.7,1.7,0,0,1-.31-2.32A10.46,10.46,0,0,1,63,2.84Zm2.24.25a14,14,0,0,0-4.33,2.68,3.66,3.66,0,0,0-.83,1.43,6.06,6.06,0,0,0,4.15.89,24.56,24.56,0,0,0,7.33-1.56A18.8,18.8,0,0,0,76.24,4a2.63,2.63,0,0,0,1.2-1.89,2.48,2.48,0,0,0-1.76-.87,15.7,15.7,0,0,0-4.22.06A25.85,25.85,0,0,0,65.21,3.09Zm.25,6.25a6,6,0,0,0,1.09,1.1,17.36,17.36,0,0,1,4,6.49,27.18,27.18,0,0,1,1.13,14.89,26.19,26.19,0,0,1-3.51,8.38h0a35.28,35.28,0,0,1-3.2,4.4,12,12,0,0,1-1.83,1.94c.93-1.77,2.13-3.38,3-5.18a4.3,4.3,0,0,0,.68-1.1,27.68,27.68,0,0,0,2.07-4.66,14.29,14.29,0,0,0-1.86.77A64.61,64.61,0,0,0,41.1,57.86a1.85,1.85,0,0,0-.18.44,37.41,37.41,0,0,0,4.72-.4c.86-.14,1.73-.29,2.61-.35a15,15,0,0,1-3.34,1,21.62,21.62,0,0,1-5.26.49c-.6,0-1.21,0-1.81,0a26,26,0,0,1-12.63-4.9,14.39,14.39,0,0,1-3.35-3.21c-.29-.41-.58-.83-.88-1.24a3.08,3.08,0,0,0-.35.58A15,15,0,0,1,19,53.05a8,8,0,0,0-.9,1.34l1.46.23a23.79,23.79,0,0,1,10.84,6.26,23.44,23.44,0,0,1,2.63,3,22.89,22.89,0,0,1,2.9,5.81c.2.69.31,1.41.52,2.1l0,0a11.27,11.27,0,0,1,.29,2.24c-.26-.56-.4-1.17-.62-1.75a33.61,33.61,0,0,0-1.22-3.21A9.73,9.73,0,0,0,34,71,67.48,67.48,0,0,0,31,80.53a62.69,62.69,0,0,0-1.12,23.36,1.57,1.57,0,0,0,0,.43c.19,1.19.43,2.38.67,3.57a15.51,15.51,0,0,0,1.68-2.17c1.05-1.5,2-3.07,2.93-4.66A22.55,22.55,0,0,1,36.4,99a10.63,10.63,0,0,1-.94,2.89c-.46,1-.8,2-1.33,3a31.12,31.12,0,0,1-3.41,4.9,23.22,23.22,0,0,1-6.79,5.72,30.42,30.42,0,0,1-5.6,2.63,24.68,24.68,0,0,1-10.39,1.38v0a8.42,8.42,0,0,0-1.21-.18c.39,1,.81,1.91,1.13,2.9a32.77,32.77,0,0,1,1.13,5c.63-.63,1.28-1.23,1.89-1.87a22.19,22.19,0,0,1,4.57-2.6,29.57,29.57,0,0,1,11.69-2.4,24.93,24.93,0,0,1,8,1.2,31.53,31.53,0,0,1,5.1,2.12,28.28,28.28,0,0,1,3.16,2,12.33,12.33,0,0,1,2.47,2c-1.65-.72-3.16-1.72-4.83-2.41A45.24,45.24,0,0,0,35.71,123a64.91,64.91,0,0,0,17.92,22.33,31,31,0,0,0,4.62,3.26c-.24-1.34-.63-2.65-1-4a6.76,6.76,0,0,1,1.11,1.72,18.35,18.35,0,0,1,1.49,5.92,23.93,23.93,0,0,1-2,11.68,20.81,20.81,0,0,1-5.36,7.58,17.89,17.89,0,0,1,4.79,2.23,18.29,18.29,0,0,1,2.35-8.59,26.57,26.57,0,0,1,6.36-8,23.18,23.18,0,0,1,2.9-1.93c.63-.37,1.23-.77,1.88-1.08a25.88,25.88,0,0,1,4.12-1.47,3.42,3.42,0,0,1,1.35-.18c-1.73.9-3.58,1.57-5.25,2.59a61.84,61.84,0,0,0,7.74,2.4,65.58,65.58,0,0,0,23.52,1.34q-.49-.37-1-.72a49.27,49.27,0,0,0-4.57-2.64,6.76,6.76,0,0,1-1.87-1,26.21,26.21,0,0,1,8,3,20.72,20.72,0,0,1,7.36,6.24,27.12,27.12,0,0,1,5.08,12,17.78,17.78,0,0,1,0,6.3,34.69,34.69,0,0,1,6.63-1.84,17.55,17.55,0,0,1-2.39-2.91,27.14,27.14,0,0,1-3.31-9.73,22.47,22.47,0,0,1,3.28-16.13,21.78,21.78,0,0,1,2.4-3.46,9.45,9.45,0,0,1,2.17-2.33c-.69,1.51-1.67,2.88-2.41,4.37a44.44,44.44,0,0,0-2,4.37,64.84,64.84,0,0,0,15.62-9.06,64,64,0,0,0,13.65-14.56c-1.85.09-3.67.5-5.52.67a7.36,7.36,0,0,1,1.47-.64,20.06,20.06,0,0,1,7-1.06A20.38,20.38,0,0,1,156,130a26,26,0,0,1,12.54,6.27,21.58,21.58,0,0,1,2.24,2.72,18.08,18.08,0,0,1,2.77-4.46,18.23,18.23,0,0,1-5.8-1.86,26.15,26.15,0,0,1-7.88-6.09,19.69,19.69,0,0,1-3-4.66,15.27,15.27,0,0,1-1.47-4.07,10.67,10.67,0,0,1-.41-3.31c.37.88.63,1.81.94,2.71a64,64,0,0,0,3.61-32.19c-.59.78-1.09,1.64-1.66,2.44,0,.09-.16.17-.13.28l0,0c-.38.58-.73,1.18-1.08,1.77a31.94,31.94,0,0,1-1.66,2.9,12.89,12.89,0,0,1,1.08-3.3c.24-.54.43-1.1.68-1.64a20.39,20.39,0,0,1,1.87-3.23c.75-1.07,1.52-2.14,2.36-3.15a23.74,23.74,0,0,1,5.16-4.37,32.12,32.12,0,0,1,6.25-3,15.57,15.57,0,0,1,2.52-.66,21.64,21.64,0,0,1,6.9-.49l0,0c.39,0,.78.11,1.16.17-.35-1-.77-2-1.09-3.05a32.7,32.7,0,0,1-1-4.41c-.26.25-.61.46-.76.78a18.75,18.75,0,0,1-4.91,3.26,27.32,27.32,0,0,1-13.4,2.37,19.47,19.47,0,0,1-4.29-.74c-1.57-.47-3.09-1.07-4.6-1.68a22.66,22.66,0,0,1-4.66-2.79,13,13,0,0,1-2.28-1.84c3,1.38,5.78,3.18,8.94,4.16a51.7,51.7,0,0,0-3.84-7.43v.06A16.76,16.76,0,0,0,149.69,59a64.69,64.69,0,0,0-13.75-14.89,9.3,9.3,0,0,0-1.64-1.15c.25.91.49,1.81.69,2.72a2.12,2.12,0,0,1-.35-.48h0c-.7-1.5-1.21-3.08-1.79-4.63a17.55,17.55,0,0,1-.8-4.13,19.32,19.32,0,0,1,.14-5.37,25.78,25.78,0,0,1,3-8.43,19,19,0,0,1,3.35-4.47c.32-.27.63-.56.93-.85a25.27,25.27,0,0,1-3.36-1.39c-.55-.28-1.05-.66-1.6-.94a3,3,0,0,0-.09,1.07A20.83,20.83,0,0,1,131,25.5a23.34,23.34,0,0,1-7.33,7.5,19.22,19.22,0,0,1-5,2.49c-.83.23-1.63.58-2.48.73L116,36.1a27,27,0,0,0,3.27-1.54c-.89-.4-1.81-.69-2.72-1a65.48,65.48,0,0,0-29.4-2.93,4.13,4.13,0,0,0-1.11.22A34.88,34.88,0,0,0,91.15,34c.92.52,1.88,1,2.81,1.46s2.09.59,3.08,1a15.23,15.23,0,0,1-8.67-2.33,34.4,34.4,0,0,1-3.68-2.43,25.2,25.2,0,0,1-5.48-5.08,26.6,26.6,0,0,1-5.54-13.26,16.27,16.27,0,0,1,0-5.07A4.86,4.86,0,0,0,74,6.94,38.68,38.68,0,0,1,65.46,9.34ZM37.26,28.49a9.84,9.84,0,0,0-2.49,4.15,1.58,1.58,0,0,0,.91,2,5.76,5.76,0,0,0,2.43-.36c-.57-.36-1.25-.51-1.8-.92a15.37,15.37,0,0,1,3.39.94,18.59,18.59,0,0,1,4,2.11A33.62,33.62,0,0,1,51.16,44c.91-.72,1.77-1.5,2.7-2.2a35.72,35.72,0,0,1-3.22-3.29,23.67,23.67,0,0,1-5.33-10A9.66,9.66,0,0,1,45,25.33a11,11,0,0,1,.64,2,3.06,3.06,0,0,0,.37-2.58,1.56,1.56,0,0,0-1-.56,4.57,4.57,0,0,0-2.13.33A14.24,14.24,0,0,0,37.26,28.49ZM97.52,9.07a1.38,1.38,0,0,0,0,1.35A4.7,4.7,0,0,0,99,11.77a21.53,21.53,0,0,1-.61-2.08l.11-.06c.22.41.48.81.7,1.22a17.16,17.16,0,0,1,1.68,5.52,24,24,0,0,1,.14,5.81A35.45,35.45,0,0,1,100,28c1.13.13,2.27.24,3.41.35a31.73,31.73,0,0,1,1.63-8.52,17.75,17.75,0,0,1,5-7.89,16.21,16.21,0,0,1-1,1.6,5,5,0,0,0,2.42-1.17,1.38,1.38,0,0,0,.13-1.07,2.72,2.72,0,0,0-1.16-1.43A11.49,11.49,0,0,0,105.91,8a13.91,13.91,0,0,0-6.19,0A3.83,3.83,0,0,0,97.52,9.07Zm36,2.12a.94.94,0,0,0-.13,1.27,7.81,7.81,0,0,0,3.17,2.69,12.15,12.15,0,0,0,4.18,1.36,3.55,3.55,0,0,0,1.83-.17.9.9,0,0,0,.58-.89,2.64,2.64,0,0,0-.86-1.47,11.11,11.11,0,0,0-6.26-3.1A3.68,3.68,0,0,0,133.51,11.19Zm-114.77,35A9.61,9.61,0,0,0,15.06,50a8.56,8.56,0,0,0-1.35,3.83c0,.5,0,1.16.54,1.38s1.14-.08,1.63-.35a10.58,10.58,0,0,0,3.22-3.56,7.85,7.85,0,0,0,1.36-4.13,1.09,1.09,0,0,0-.42-1A1.52,1.52,0,0,0,18.74,46.23Zm-7.11,34.5A8.62,8.62,0,0,0,10,83.66a15.64,15.64,0,0,0-.66,8,5.29,5.29,0,0,0,.89,2.13,1.17,1.17,0,0,0,1.21.48,3.52,3.52,0,0,0,1.76-1.58c-.72.23-1.44.49-2.18.65a3.61,3.61,0,0,1,.92-.73A16.44,16.44,0,0,1,16.23,91a27.61,27.61,0,0,1,11,0c.08-.78.14-1.56.23-2.34,0-.24.09-.48.13-.72a29.33,29.33,0,0,1-10-3,14.18,14.18,0,0,1-4.34-3.43c.61.29,1.14.69,1.72,1a6.88,6.88,0,0,0-.79-1.9,1.45,1.45,0,0,0-1-.66A2,2,0,0,0,11.63,80.73Zm145.5-42.58a4.09,4.09,0,0,0,.24,2.62c.3-.6.55-1.22.89-1.79a16.54,16.54,0,0,1-3,7.24,31.74,31.74,0,0,1-7,7l.72.89c.48.57.89,1.19,1.38,1.76a29.41,29.41,0,0,1,7.65-6,19.64,19.64,0,0,1,5.89-2.09,6.8,6.8,0,0,1,2.62-.06,16.74,16.74,0,0,1-2.2.63,3.41,3.41,0,0,0,2.33.39,1.27,1.27,0,0,0,.79-1.25,7.1,7.1,0,0,0-.69-2.74,16.56,16.56,0,0,0-3.91-5.15,10.38,10.38,0,0,0-2.73-1.81,3.76,3.76,0,0,0-1.88-.43A1.21,1.21,0,0,0,157.13,38.15Zm25.74,22.62a2.62,2.62,0,0,0-.71,1.45,14.32,14.32,0,0,0,.42,5.82,19.54,19.54,0,0,0,2.47,5.86,4.51,4.51,0,0,0,1.89,1.76.84.84,0,0,0,.92-.21,2.94,2.94,0,0,0,.62-1.5,13.86,13.86,0,0,0-.23-4.76A18.85,18.85,0,0,0,185.9,63a6.53,6.53,0,0,0-2-2.19A.94.94,0,0,0,182.87,60.77ZM1.91,116.5A3.73,3.73,0,0,0,1,119.08a18.52,18.52,0,0,0,1.92,8.83,9.63,9.63,0,0,0,2.63,3.6,1.29,1.29,0,0,0,1.37.26,2.47,2.47,0,0,0,.8-1.55,14,14,0,0,0-.36-5.8,22.2,22.2,0,0,0-2.2-5.61,6.36,6.36,0,0,0-2.11-2.32A1.06,1.06,0,0,0,1.91,116.5Zm160.23-14.78c-.15,1.21-.35,2.41-.5,3.61a36.15,36.15,0,0,1,5.19.69,26.38,26.38,0,0,1,8.49,3.28,13,13,0,0,1,3.74,3.33c-.59-.28-1.08-.71-1.67-1a4,4,0,0,0,1.11,2.24,1.26,1.26,0,0,0,1.37,0,4.24,4.24,0,0,0,1.3-1.3,12.67,12.67,0,0,0,1.92-4.88,13.07,13.07,0,0,0,0-5.67,5.15,5.15,0,0,0-.67-1.63,1.2,1.2,0,0,0-1.25-.56,3.36,3.36,0,0,0-1.78,1.52c.71-.2,1.41-.44,2.14-.57a5.1,5.1,0,0,1-1.9,1.16,19.83,19.83,0,0,1-6.76,1.37A31.44,31.44,0,0,1,162.14,101.72ZM42,138.56a27,27,0,0,1-9.35,6.51,11.55,11.55,0,0,1-5.55,1c.67-.32,1.39-.45,2.08-.7a3.19,3.19,0,0,0-2.07-.38,1.13,1.13,0,0,0-.88,1,4.62,4.62,0,0,0,.31,2.14,14.36,14.36,0,0,0,2.75,4.29,13.65,13.65,0,0,0,4.39,3.3,4.73,4.73,0,0,0,1.76.46,1.33,1.33,0,0,0,1.3-.77,4.05,4.05,0,0,0-.28-2.56,17,17,0,0,1-.86,1.83,15.81,15.81,0,0,1,2.51-7,30.89,30.89,0,0,1,6.75-7.45c-.67-.85-1.44-1.6-2.11-2.45C42.46,138.06,42.21,138.31,42,138.56ZM176,133.91a11.34,11.34,0,0,0-3.78,4.37,7,7,0,0,0-1,3.48,1,1,0,0,0,.46,1,1.78,1.78,0,0,0,1.57-.28,11,11,0,0,0,4.19-5.23,6,6,0,0,0,.52-2.53,1.14,1.14,0,0,0-.49-1A1.64,1.64,0,0,0,176,133.91ZM81.55,172a13.51,13.51,0,0,1-3.43,4.19,13.46,13.46,0,0,1,1-1.68,4.68,4.68,0,0,0-2.08,1,1.17,1.17,0,0,0-.41.95,2.15,2.15,0,0,0,.9,1.44,11.31,11.31,0,0,0,5,2.16,13.87,13.87,0,0,0,6,0,5.62,5.62,0,0,0,1.81-.74,1.27,1.27,0,0,0,.6-1.23,3,3,0,0,0-1.56-1.78c.21.71.47,1.41.62,2.14a11.18,11.18,0,0,1-2.25-5.05,27.46,27.46,0,0,1,.23-12.1c-1.06-.1-2.1-.28-3.15-.45A29.37,29.37,0,0,1,81.55,172Zm54.37-24.45a28.29,28.29,0,0,1,6,8.55,15.34,15.34,0,0,1,1.44,5.78,2,2,0,0,1-.08.8,6.25,6.25,0,0,1-.63-2,3.41,3.41,0,0,0-.49,1.84,1.21,1.21,0,0,0,.45,1,2.14,2.14,0,0,0,1.63.21,11.43,11.43,0,0,0,5-2.54,13.88,13.88,0,0,0,3.64-4.21,5.19,5.19,0,0,0,.73-2.29,1.25,1.25,0,0,0-.73-1.22,3.87,3.87,0,0,0-2.55.22,17.79,17.79,0,0,1,1.79.92,15.24,15.24,0,0,1-5.9-2.09,29.66,29.66,0,0,1-7.81-6.92ZM49,172.62a.88.88,0,0,0-.34,1.17,6.45,6.45,0,0,0,2.49,2.48A11.6,11.6,0,0,0,55.94,178a4.76,4.76,0,0,0,1.88-.1,1,1,0,0,0,.74-.84,2.42,2.42,0,0,0-.8-1.47,11.83,11.83,0,0,0-6-3.14A3.83,3.83,0,0,0,49,172.62Zm65.11,11.84a4.56,4.56,0,0,0-2.13,2.41,6.86,6.86,0,0,0,4.13.74,18.65,18.65,0,0,0,7.45-2.06,7.19,7.19,0,0,0,3.44-3,4.62,4.62,0,0,0-2.62-.8A19.45,19.45,0,0,0,114.15,184.46Z"/><path class="cls-1" d="M66.34,3.42A19.48,19.48,0,0,1,73.2,2a1.78,1.78,0,0,1,1.34.43.55.55,0,0,1,0,.66,2.53,2.53,0,0,1-1,.85,19.22,19.22,0,0,1-4.88,1.86,17.24,17.24,0,0,1-5.14.75c-.41,0-.92-.15-1-.59s.46-.9.84-1.2A13.35,13.35,0,0,1,66.34,3.42ZM64.47,5a2.42,2.42,0,0,0-1,.85l.63.07a5.79,5.79,0,0,0,1.44,0A23.68,23.68,0,0,0,70,4.8a10.43,10.43,0,0,0,3.08-1.38h0l.62-.57A10.55,10.55,0,0,0,70.4,3,19.34,19.34,0,0,0,64.47,5Z"/><path class="cls-1" d="M135.14,11.58a2.85,2.85,0,0,1,2,.12,8.91,8.91,0,0,1,4.31,2.52.64.64,0,0,1-.11,1,3.64,3.64,0,0,1-2.23-.22,10.52,10.52,0,0,1-4.08-2.36C134.74,12.35,134.67,11.74,135.14,11.58Zm.09.44.21.22h0a4.6,4.6,0,0,0,2.1,1.61,6.85,6.85,0,0,0,3.25.93h0l.37,0a6.82,6.82,0,0,0-1.68-1.44A7.4,7.4,0,0,0,135.23,12Z"/><path class="cls-1" d="M18.06,47.36c.35-.21,1-.17,1.09.31a6,6,0,0,1-1,2.85,16.33,16.33,0,0,1-1.53,2.17,3.09,3.09,0,0,1-1.41,1,.61.61,0,0,1-.64-.66,5.45,5.45,0,0,1,.79-2.43A9.76,9.76,0,0,1,18.06,47.36Zm.27.51a6.92,6.92,0,0,0-2.14,2.39,7.53,7.53,0,0,0-1.08,2.93L15.4,53l0,0a2.84,2.84,0,0,0,1.22-1,15.37,15.37,0,0,0,1.42-2.15,4.89,4.89,0,0,0,.62-2.17Z"/><path class="cls-1" d="M136.91,74.92a14.43,14.43,0,0,1,0-2.18,37,37,0,0,1,1,3.76,16.8,16.8,0,0,1-.38,6,42.8,42.8,0,0,1-5,13,36.25,36.25,0,0,1,2.6,6.37,3.53,3.53,0,0,1-.05,2.38,3.27,3.27,0,0,1-2.61,1.31,8.94,8.94,0,0,1-4.62-1.18c-.48-.25-1-.52-1.45-.72a50.86,50.86,0,0,1-16.45,11.68c-.06,1.3-.15,2.6-.26,3.9a8,8,0,0,1-1.45,4.22,1.71,1.71,0,0,1-1.23.66,3.88,3.88,0,0,1-2.27-.58,11.35,11.35,0,0,1-2.86-2.4,21,21,0,0,1-1.9-2.49,51.65,51.65,0,0,1-15.73,1.07,31.44,31.44,0,0,0-.52,6.64A26.56,26.56,0,0,0,85,132.87a7.44,7.44,0,0,0,1.71,3c-.25.19-.51.36-.77.54A10.19,10.19,0,0,1,84,133.13c-.35-1.12-.71-2.23-1-3.37a21.19,21.19,0,0,1,0-8.47c.13-.57.25-1.13.33-1.71a48.44,48.44,0,0,1-11.58-2.72c-.07.21-.22.42-.14.66a25.87,25.87,0,0,0,2.28,6,67.91,67.91,0,0,0,6.26,10.12A20,20,0,0,0,84.82,138l.73.49a7.76,7.76,0,0,0,4.61,1.27,10.61,10.61,0,0,0,2.71-.6,8.07,8.07,0,0,0,2.47-1.62c.27-.24.52-.48.78-.73a20.47,20.47,0,0,1,2.66-2.44,2.54,2.54,0,0,1,1.37-.52,2.13,2.13,0,0,1,1.6.76c1.17,1.24,1.62,2.94,2.28,4.48-.18,0-.37.1-.52,0a16.73,16.73,0,0,1-1.86-1.81c-.56-.56-.85-1.33-1.44-1.86a6.62,6.62,0,0,0-2.2,1.77,24.36,24.36,0,0,1-2.7,2.37,7.36,7.36,0,0,1-2.71,1.32,9.26,9.26,0,0,1-8.06-1.24,24.35,24.35,0,0,1-3.7-3,24.91,24.91,0,0,1-2.63-3.25,52.44,52.44,0,0,1-3.39-5.6,43.56,43.56,0,0,1-3.94-9.25,10,10,0,0,1-2.95,3.31,3,3,0,0,1-3.1,0A4,4,0,0,1,63.52,120a12.35,12.35,0,0,1-.78-3.7,23.54,23.54,0,0,1-.12-4.11,39.62,39.62,0,0,1-9.61-9.2c-.53.51-1,1.09-1.52,1.59A23,23,0,0,0,49,107.81c-.32-.25-.28-.68-.25-1a9.79,9.79,0,0,1,.47-1.92,9.08,9.08,0,0,1,1.31-2.8,11.19,11.19,0,0,1,4.23-3.33,5.08,5.08,0,0,1,3.48-.42.4.4,0,0,1,.16.69c-.56.44-1.24.71-1.83,1.09a18.78,18.78,0,0,0-2.47,1.86,38.53,38.53,0,0,0,7.8,7.87,43,43,0,0,0,17.84,7.78,49.59,49.59,0,0,0,23.06-1.18A50.14,50.14,0,0,0,124.05,104a44.19,44.19,0,0,0,10.36-15.82A38.8,38.8,0,0,0,136.91,74.92Zm-73.46,37.8c.06.86.08,1.73.18,2.6A12.5,12.5,0,0,0,65,120.77a1.67,1.67,0,0,0,1.4.71,2.74,2.74,0,0,0,1.11-.33,6.06,6.06,0,0,0,1.83-1.94A30.3,30.3,0,0,0,71,116.54c-.77-.31-1.53-.63-2.28-1-1.07-.54-2.17-1-3.2-1.66C64.81,113.48,64.14,113.1,63.45,112.72Zm66.23-13c-.93,1.2-1.88,2.39-2.91,3.51a14.6,14.6,0,0,0,4.71,1.56,3.82,3.82,0,0,0,2.75-.74,2.21,2.21,0,0,0,.16-.92,10.14,10.14,0,0,0-.7-2.59,28.61,28.61,0,0,0-1.82-4C131.16,97.58,130.47,98.65,129.68,99.67Zm-23.52,17.14c-1.86.65-3.75,1.2-5.66,1.67a22.88,22.88,0,0,0,3.91,3.77,4.29,4.29,0,0,0,2.66.87,3,3,0,0,0,1-1.3,8.25,8.25,0,0,0,.61-2.44c.12-1.2.18-2.41.2-3.61C108,116.15,107.07,116.49,106.16,116.81Z"/><path class="cls-1" d="M184,63c.32-.27.77,0,1,.27A10.61,10.61,0,0,1,186.8,67a13.52,13.52,0,0,1,.83,4.62,2.32,2.32,0,0,1-.3,1.27c-.11.13-.25.3-.44.23A2.07,2.07,0,0,1,185.73,72a18.66,18.66,0,0,1-2.12-7.34A2.37,2.37,0,0,1,184,63Zm.19,1.07a12.89,12.89,0,0,0,.82,4.83,9.21,9.21,0,0,0,1.56,3.3l.38.37a5.48,5.48,0,0,0,.06-2.21,19.15,19.15,0,0,0-1.14-4.42,5.83,5.83,0,0,0-1.55-2.43C184.23,63.65,184.19,63.83,184.14,64Z"/><path class="cls-1" d="M2.43,119.12a.75.75,0,0,1,1,.18,8.71,8.71,0,0,1,1.71,3.22,18.28,18.28,0,0,1,1.12,5.74,1.64,1.64,0,0,1-.39,1.24c-.33.27-.76,0-1-.24a7.54,7.54,0,0,1-1.37-2.34A18.51,18.51,0,0,1,2,121.07,3.07,3.07,0,0,1,2.43,119.12Zm.27,2.57A18.41,18.41,0,0,0,4,126.75,5.89,5.89,0,0,0,5.52,129a2.18,2.18,0,0,0,.07-.76,4.8,4.8,0,0,0-.07-2,22.74,22.74,0,0,0-1.39-4.64,3.83,3.83,0,0,0-.68-1.13v-.05q-.3-.36-.63-.69A4.5,4.5,0,0,0,2.7,121.69Z"/><path class="cls-1" d="M176.05,135.34a.75.75,0,0,1,1.06.19,3.1,3.1,0,0,1-.08,1.09,9.63,9.63,0,0,1-2.09,3.71,3.32,3.32,0,0,1-1.65,1.29.58.58,0,0,1-.7-.66,6,6,0,0,1,.74-2.17A9.77,9.77,0,0,1,176.05,135.34Zm-1.57,2.38a7.18,7.18,0,0,0-1.35,3c0,.16,0,.31,0,.46a5.86,5.86,0,0,0,2-1.91,8.32,8.32,0,0,0,1.5-3.57l-.34.17A5.07,5.07,0,0,0,174.48,137.72Z"/><path class="cls-1" d="M50.34,173.69a1.93,1.93,0,0,1,1.38-.06,11.76,11.76,0,0,1,4.1,1.84,2.6,2.6,0,0,1,1.15,1.3c0,.45-.52.66-.91.66A6.3,6.3,0,0,1,54.2,177a8.87,8.87,0,0,1-3.85-2.3C50.07,174.47,50,173.91,50.34,173.69Zm.21.43a8.09,8.09,0,0,0,3.14,2.18,5.4,5.4,0,0,0,2.79.52,3.23,3.23,0,0,0-.41-.49,6.3,6.3,0,0,0-2.38-1.55,5.6,5.6,0,0,0-2.45-.68l0,0Z"/><path class="cls-1" d="M117.47,184.21a19.81,19.81,0,0,1,6-1.28,1.76,1.76,0,0,1,1.44.43c.17.51-.27.94-.64,1.22a15.16,15.16,0,0,1-4.4,1.82,11.87,11.87,0,0,1-4.38.58,1.28,1.28,0,0,1-1-.45c-.18-.25,0-.53.15-.72A7.08,7.08,0,0,1,117.47,184.21Zm-2,1.62c-.12.14-.23.29-.17.47a9.48,9.48,0,0,0,2.76-.15,15.61,15.61,0,0,0,5.24-1.76,2.36,2.36,0,0,0,.82-.68l-.42-.14a5.08,5.08,0,0,0-2.16.07c-1.22.26-2.42.59-3.61,1A9,9,0,0,0,115.52,185.83Z"/><path class="cls-2" d="M65.21,3.09a25.85,25.85,0,0,1,6.25-1.75,15.7,15.7,0,0,1,4.22-.06,2.48,2.48,0,0,1,1.76.87A2.63,2.63,0,0,1,76.24,4a18.8,18.8,0,0,1-4.71,2.49A24.56,24.56,0,0,1,64.2,8.09a6.06,6.06,0,0,1-4.15-.89,3.66,3.66,0,0,1,.83-1.43A14,14,0,0,1,65.21,3.09Zm1.13.33a13.35,13.35,0,0,0-3,1.37c-.38.3-.85.67-.84,1.2s.64.57,1,.59a17.24,17.24,0,0,0,5.14-.75A19.22,19.22,0,0,0,73.6,4a2.53,2.53,0,0,0,1-.85.55.55,0,0,0,0-.66A1.78,1.78,0,0,0,73.2,2,19.48,19.48,0,0,0,66.34,3.42Z"/><path class="cls-2" d="M64.47,5A19.34,19.34,0,0,1,70.4,3a10.55,10.55,0,0,1,3.36-.18l-.62.57h0a13.07,13.07,0,0,0-5.33.67,11.62,11.62,0,0,0-3.66,1.82l-.63-.07A2.42,2.42,0,0,1,64.47,5Z"/><path class="cls-2" d="M66.55,10.44a6.81,6.81,0,0,1,1.18-.22,14.22,14.22,0,0,0,3.64-.87c.81-.28,1.54-.73,2.34-1a16.27,16.27,0,0,0,0,5.07,26.6,26.6,0,0,0,5.54,13.26,25.2,25.2,0,0,0,5.48,5.08,34.4,34.4,0,0,0,3.68,2.43c-.9.25-1.83.35-2.74.52a84.23,84.23,0,0,0-10.34,2.75,60.41,60.41,0,0,0-6.11,2.39,6.47,6.47,0,0,1-1.05.35,26.19,26.19,0,0,0,3.51-8.38,27.18,27.18,0,0,0-1.13-14.89A17.36,17.36,0,0,0,66.55,10.44Z"/><path class="cls-2" d="M40,27.48a11.49,11.49,0,0,1,6-2.71,3.06,3.06,0,0,1-.37,2.58,11,11,0,0,0-.64-2,9.66,9.66,0,0,0,.27,3.21,23.67,23.67,0,0,0,5.33,10,35.72,35.72,0,0,0,3.22,3.29c-.93.7-1.79,1.48-2.7,2.2a33.62,33.62,0,0,0-7.5-7.56,18.59,18.59,0,0,0-4-2.11,15.37,15.37,0,0,0-3.39-.94c.55.41,1.23.56,1.8.92a5.76,5.76,0,0,1-2.43.36,9.44,9.44,0,0,1,.18-1.6,7.26,7.26,0,0,1,1-2.08A14.49,14.49,0,0,1,40,27.48Z"/><path class="cls-2" d="M98.52,9.63A10,10,0,0,1,103,9a16.48,16.48,0,0,1,4.8,1,11.16,11.16,0,0,1,3.77,2.36,5,5,0,0,1-2.42,1.17,16.21,16.21,0,0,0,1-1.6,17.75,17.75,0,0,0-5,7.89,31.73,31.73,0,0,0-1.63,8.52c-1.14-.11-2.28-.22-3.41-.35a35.45,35.45,0,0,0,1-5.79,24,24,0,0,0-.14-5.81,17.16,17.16,0,0,0-1.68-5.52C99,10.44,98.74,10,98.52,9.63Z"/><path class="cls-2" d="M97.53,10.42c.29-.24.57-.5.88-.73A21.53,21.53,0,0,0,99,11.77,4.7,4.7,0,0,1,97.53,10.42Z"/><path class="cls-2" d="M133.51,11.19a3.68,3.68,0,0,1,2.51-.31,11.11,11.11,0,0,1,6.26,3.1,2.64,2.64,0,0,1,.86,1.47.9.9,0,0,1-.58.89,3.55,3.55,0,0,1-1.83.17,12.15,12.15,0,0,1-4.18-1.36,7.81,7.81,0,0,1-3.17-2.69A.94.94,0,0,1,133.51,11.19Zm1.63.39c-.47.16-.4.77-.08,1.05A10.52,10.52,0,0,0,139.14,15a3.64,3.64,0,0,0,2.23.22.64.64,0,0,0,.11-1,8.91,8.91,0,0,0-4.31-2.52A2.85,2.85,0,0,0,135.14,11.58Z"/><path class="cls-2" d="M18.74,46.23a1.52,1.52,0,0,1,1.3-.07,1.09,1.09,0,0,1,.42,1,7.85,7.85,0,0,1-1.36,4.13,10.58,10.58,0,0,1-3.22,3.56c-.49.27-1.07.63-1.63.35s-.55-.88-.54-1.38A8.56,8.56,0,0,1,15.06,50,9.61,9.61,0,0,1,18.74,46.23Zm-.68,1.13a9.76,9.76,0,0,0-2.66,3.22A5.45,5.45,0,0,0,14.61,53a.61.61,0,0,0,.64.66,3.09,3.09,0,0,0,1.41-1,16.33,16.33,0,0,0,1.53-2.17,6,6,0,0,0,1-2.85C19.06,47.19,18.41,47.15,18.06,47.36Z"/><path class="cls-2" d="M135.23,12a7.4,7.4,0,0,1,4.31,1.29,6.82,6.82,0,0,1,1.68,1.44l-.37,0h0a10.4,10.4,0,0,0-3.72-2.2,6.15,6.15,0,0,0-1.63-.34h0Z"/><path class="cls-2" d="M16.19,50.26a6.92,6.92,0,0,1,2.14-2.39l.24,0c-.36.45-.8.83-1.15,1.29a11.69,11.69,0,0,0-2,3.81l0,0-.29.16A7.53,7.53,0,0,1,16.19,50.26Z"/><path class="cls-2" d="M134.36,16a21.07,21.07,0,0,0,4.12,2.11,19,19,0,0,0-3.35,4.47,25.78,25.78,0,0,0-3,8.43A19.32,19.32,0,0,0,132,36.4a17.55,17.55,0,0,0,.8,4.13c.58,1.55,1.09,3.13,1.79,4.63a1.57,1.57,0,0,1-.64-.22,63.41,63.41,0,0,0-16.53-8.18,3.33,3.33,0,0,1-1.3-.54c.85-.15,1.65-.5,2.48-.73a19.22,19.22,0,0,0,5-2.49A23.34,23.34,0,0,0,131,25.5,20.83,20.83,0,0,0,134.36,16Z"/><path class="cls-2" d="M67,36.38a14.29,14.29,0,0,1,1.86-.77,27.68,27.68,0,0,1-2.07,4.66,4.3,4.3,0,0,1-.68,1.1,61.14,61.14,0,0,0-9.23,5.76A65,65,0,0,0,48,55.19c-.83.87-1.55,1.83-2.37,2.71a37.41,37.41,0,0,1-4.72.4,1.85,1.85,0,0,1,.18-.44A64.61,64.61,0,0,1,67,36.38Z"/><path class="cls-2" d="M86,30.85a4.13,4.13,0,0,1,1.11-.22,65.48,65.48,0,0,1,29.4,2.93c.91.31,1.83.6,2.72,1A27,27,0,0,1,116,36.1a5.61,5.61,0,0,1-2.14-.4,64.34,64.34,0,0,0-19.73-2,12.71,12.71,0,0,0-2.95.33A34.88,34.88,0,0,1,86,30.85Z"/><path class="cls-2" d="M20.57,53.08c.48-.69.8-1.48,1.29-2.16a14.39,14.39,0,0,0,3.35,3.21A26,26,0,0,0,37.84,59c.6.07,1.21,0,1.81,0a21.62,21.62,0,0,0,5.26-.49,3.13,3.13,0,0,1-.72,1.2A70,70,0,0,0,37.1,70.72a3.1,3.1,0,0,1-.66,1.07c-.21-.69-.32-1.41-.52-2.1A22.89,22.89,0,0,0,33,63.88a23.44,23.44,0,0,0-2.63-3,23.79,23.79,0,0,0-10.84-6.26A13.25,13.25,0,0,1,20.57,53.08Z"/><path class="cls-2" d="M60.16,51.39a5.37,5.37,0,0,1,3.2-.46A2.17,2.17,0,0,1,65,53.08a5.94,5.94,0,0,1-.75,2.53,19,19,0,0,1-2.75,3.68,25.23,25.23,0,0,1-4.15,3.58,12.52,12.52,0,0,1-4.76,2.19,2.75,2.75,0,0,1-2.21-.43,2.81,2.81,0,0,1-.82-1.53,3,3,0,0,1,.27-1.91A13,13,0,0,1,52,57.78a26.42,26.42,0,0,1,4-3.86A17.65,17.65,0,0,1,60.16,51.39Z"/><path class="cls-2" d="M34,71a9.73,9.73,0,0,1,.91-1.93,33.61,33.61,0,0,1,1.22,3.21,5.36,5.36,0,0,1-.7,2,65.28,65.28,0,0,0-4.9,17.48A69.63,69.63,0,0,0,30,102.3a4.25,4.25,0,0,1-.08,1.59A62.69,62.69,0,0,1,31,80.53,67.48,67.48,0,0,1,34,71Z"/><path class="cls-2" d="M50.84,66.46a.88.88,0,0,1,.95,0,.87.87,0,0,1,.33.73,3.76,3.76,0,0,1-.28,1.52,8.5,8.5,0,0,1-2,3.09,2.82,2.82,0,0,1-1.21.77.9.9,0,0,1-.94-.25,1.67,1.67,0,0,1-.12-1.51A8,8,0,0,1,50.1,67,4.61,4.61,0,0,1,50.84,66.46Z"/><path class="cls-2" d="M134.3,42.93a9.3,9.3,0,0,1,1.64,1.15A64.69,64.69,0,0,1,149.69,59a16.76,16.76,0,0,1,1.49,2.51c0,.17,0,.34,0,.51-.56-.68-1-1.42-1.58-2.11a64.14,64.14,0,0,0-6.51-7.37A67.61,67.61,0,0,0,135,45.65C134.79,44.74,134.55,43.84,134.3,42.93Z"/><path class="cls-2" d="M9.34,91.65a15.64,15.64,0,0,1,.66-8,51.57,51.57,0,0,0,17.44,5c-.09.78-.15,1.56-.23,2.34a27.61,27.61,0,0,0-11,0,16.44,16.44,0,0,0-4.29,1.6,3.61,3.61,0,0,0-.92.73c.74-.16,1.46-.42,2.18-.65a3.52,3.52,0,0,1-1.76,1.58,1.17,1.17,0,0,1-1.21-.48A5.29,5.29,0,0,1,9.34,91.65Z"/><path class="cls-2" d="M162.84,39.64a16.56,16.56,0,0,1,3.91,5.15,7.1,7.1,0,0,1,.69,2.74,1.27,1.27,0,0,1-.79,1.25,3.41,3.41,0,0,1-2.33-.39,16.74,16.74,0,0,0,2.2-.63,6.8,6.8,0,0,0-2.62.06A19.64,19.64,0,0,0,158,49.91a29.41,29.41,0,0,0-7.65,6c-.49-.57-.9-1.19-1.38-1.76a39.6,39.6,0,0,0,4.07-3.24A59.31,59.31,0,0,0,162.84,39.64Z"/><path class="cls-3" d="M64.13,5.91a11.62,11.62,0,0,1,3.66-1.82,13.07,13.07,0,0,1,5.33-.67A10.43,10.43,0,0,1,70,4.8a23.68,23.68,0,0,1-4.47,1.08A5.79,5.79,0,0,1,64.13,5.91Z"/><path class="cls-3" d="M135.48,12.24a6.15,6.15,0,0,1,1.63.34,10.4,10.4,0,0,1,3.72,2.2,6.85,6.85,0,0,1-3.25-.93A4.6,4.6,0,0,1,135.48,12.24Z"/><path class="cls-3" d="M18.33,47.87l.35-.18a4.89,4.89,0,0,1-.62,2.17A15.37,15.37,0,0,1,16.64,52a2.84,2.84,0,0,1-1.22,1,11.69,11.69,0,0,1,2-3.81c.35-.46.79-.84,1.15-1.29Z"/><path class="cls-3" d="M185,68.85a12.89,12.89,0,0,1-.82-4.83,9,9,0,0,1,1.3,2.28,13.83,13.83,0,0,1,1.08,5.85A9.21,9.21,0,0,1,185,68.85Z"/><path class="cls-3" d="M3.8,124.1a10.36,10.36,0,0,1-.35-3.67,3.83,3.83,0,0,1,.68,1.13,22.74,22.74,0,0,1,1.39,4.64,4.8,4.8,0,0,1,.07,2A11.88,11.88,0,0,1,3.8,124.1Z"/><path class="cls-3" d="M174.48,137.72a5.07,5.07,0,0,1,1.82-1.86,9.3,9.3,0,0,1-3.17,4.85A7.18,7.18,0,0,1,174.48,137.72Z"/><path class="cls-3" d="M51.24,174.1a5.6,5.6,0,0,1,2.45.68,6.3,6.3,0,0,1,2.38,1.55A7.56,7.56,0,0,1,51.24,174.1Z"/><path class="cls-3" d="M115.52,185.83a9,9,0,0,1,2.46-1.22c1.19-.38,2.39-.71,3.61-1a5.08,5.08,0,0,1,2.16-.07,12.52,12.52,0,0,1-3.76,1.65A13.57,13.57,0,0,1,115.52,185.83Z"/><path class="cls-4" d="M65.46,9.34A38.68,38.68,0,0,0,74,6.94a4.86,4.86,0,0,1-.25,1.41c-.8.27-1.53.72-2.34,1a14.22,14.22,0,0,1-3.64.87,6.81,6.81,0,0,0-1.18.22A6,6,0,0,1,65.46,9.34Z"/><path class="cls-4" d="M134.36,16a3,3,0,0,1,.09-1.07c.55.28,1.05.66,1.6.94a25.27,25.27,0,0,0,3.36,1.39c-.3.29-.61.58-.93.85A21.07,21.07,0,0,1,134.36,16Z"/><path class="cls-4" d="M20.63,50.26a3.08,3.08,0,0,1,.35-.58c.3.41.59.83.88,1.24-.49.68-.81,1.47-1.29,2.16a13.25,13.25,0,0,0-1,1.54l-1.46-.23a8,8,0,0,1,.9-1.34A15,15,0,0,0,20.63,50.26Z"/><path class="cls-4" d="M75.29,37.46a84.23,84.23,0,0,1,10.34-2.75c.91-.17,1.84-.27,2.74-.52A15.23,15.23,0,0,0,97,36.52c-1-.44-2.11-.51-3.08-1s-1.89-.94-2.81-1.46a12.71,12.71,0,0,1,2.95-.33,64.34,64.34,0,0,1,19.73,2,5.61,5.61,0,0,0,2.14.4l.17.12a3.33,3.33,0,0,0,1.3.54A63.41,63.41,0,0,1,134,44.94a1.57,1.57,0,0,0,.64.22h0a2.12,2.12,0,0,0,.35.48,67.61,67.61,0,0,1,8.14,6.86,64.14,64.14,0,0,1,6.51,7.37c.54.69,1,1.43,1.58,2.11,0-.17,0-.34,0-.51v-.06A51.7,51.7,0,0,1,155,68.85c-3.16-1-6-2.78-8.94-4.16a13,13,0,0,0,2.28,1.84A22.66,22.66,0,0,0,153,69.32c1.51.61,3,1.21,4.6,1.68a19.47,19.47,0,0,0,4.29.74,27.32,27.32,0,0,0,13.4-2.37,18.75,18.75,0,0,0,4.91-3.26,24.56,24.56,0,0,0,.61,3.63c.26,1,.71,1.89,1,2.84a21.64,21.64,0,0,0-6.9.49,15.57,15.57,0,0,0-2.52.66,32.12,32.12,0,0,0-6.25,3A23.74,23.74,0,0,0,161,81.11c-.84,1-1.61,2.08-2.36,3.15a20.39,20.39,0,0,0-1.87,3.23c-.25.54-.44,1.1-.68,1.64a12.89,12.89,0,0,0-1.08,3.3,31.94,31.94,0,0,0,1.66-2.9c.35-.59.7-1.19,1.08-1.77l0,0,0,.09a5.3,5.3,0,0,1,.07,1.54,64.31,64.31,0,0,1-28.41,51.72,65,65,0,0,1-23.46,9.75A64.25,64.25,0,0,1,42.32,127a13.88,13.88,0,0,1-1.25-1.81c1.67.69,3.18,1.69,4.83,2.41a12.33,12.33,0,0,0-2.47-2,28.28,28.28,0,0,0-3.16-2,31.53,31.53,0,0,0-5.1-2.12,24.93,24.93,0,0,0-8-1.2,29.57,29.57,0,0,0-11.69,2.4,22.19,22.19,0,0,0-4.57,2.6c-.34.13-.68.23-1,.34a18.64,18.64,0,0,0-1-4.16c-.25-.68-.62-1.3-.87-2a24.68,24.68,0,0,0,10.39-1.38,30.42,30.42,0,0,0,5.6-2.63,23.22,23.22,0,0,0,6.79-5.72,31.12,31.12,0,0,0,3.41-4.9c.53-1,.87-2,1.33-3A10.63,10.63,0,0,0,36.4,99a22.55,22.55,0,0,0-1.21,2.08c-.91,1.59-1.88,3.16-2.93,4.66a15.51,15.51,0,0,1-1.68,2.17c-.24-1.19-.48-2.38-.67-3.57a1.57,1.57,0,0,1,0-.43A4.25,4.25,0,0,0,30,102.3a69.63,69.63,0,0,1,.52-10.51,65.28,65.28,0,0,1,4.9-17.48,5.36,5.36,0,0,0,.7-2c.22.58.36,1.19.62,1.75a11.27,11.27,0,0,0-.29-2.24l0,0a3.1,3.1,0,0,0,.66-1.07,70,70,0,0,1,7.09-10.93,3.13,3.13,0,0,0,.72-1.2,15,15,0,0,0,3.34-1c-.88.06-1.75.21-2.61.35.82-.88,1.54-1.84,2.37-2.71a65,65,0,0,1,8.84-8.06,61.14,61.14,0,0,1,9.23-5.76c-.88,1.8-2.08,3.41-3,5.18a12,12,0,0,0,1.83-1.94,35.28,35.28,0,0,0,3.2-4.4h0a6.47,6.47,0,0,0,1.05-.35A60.41,60.41,0,0,1,75.29,37.46ZM60.16,51.39A17.65,17.65,0,0,0,56,53.92a26.42,26.42,0,0,0-4,3.86,13,13,0,0,0-2.18,3.41,3,3,0,0,0-.27,1.91,2.81,2.81,0,0,0,.82,1.53,2.75,2.75,0,0,0,2.21.43,12.52,12.52,0,0,0,4.76-2.19,25.23,25.23,0,0,0,4.15-3.58,19,19,0,0,0,2.75-3.68A5.94,5.94,0,0,0,65,53.08a2.17,2.17,0,0,0-1.6-2.15A5.37,5.37,0,0,0,60.16,51.39ZM50.84,66.46a4.61,4.61,0,0,0-.74.58,8,8,0,0,0-2.55,3.72,1.67,1.67,0,0,0,.12,1.51.9.9,0,0,0,.94.25,2.82,2.82,0,0,0,1.21-.77,8.5,8.5,0,0,0,2-3.09,3.76,3.76,0,0,0,.28-1.52.87.87,0,0,0-.33-.73A.88.88,0,0,0,50.84,66.46Zm6.41,9.11a67.67,67.67,0,0,0-8.81,5.71,4,4,0,0,0-1,1.21c2.24-.51,4.23-1.74,6.47-2.24a6.18,6.18,0,0,1,2.14.11c-.25.68-.57,1.34-.79,2a11,11,0,0,0-.41,1.87,11.44,11.44,0,0,0,1.07,6.51A13.39,13.39,0,0,0,59,94.91a19.65,19.65,0,0,0,10,4.62A22.55,22.55,0,0,0,80.9,98.3,2.41,2.41,0,0,1,82.09,98c-.43.48-.85,1-1.31,1.42s-.79.65-1.13,1a4.32,4.32,0,0,0,2-1.13c.82-.67,1.58-1.4,2.34-2.13a20.6,20.6,0,0,0,1.76-1.86,1.32,1.32,0,0,0,.39-.15,13.22,13.22,0,0,0,4-5.92,11.55,11.55,0,0,0,.45-5.09,1.65,1.65,0,0,0-.31-.83,18.47,18.47,0,0,0-.09-3.24c-.16-1.12-.52-2.2-.75-3.3.82,1,1.36,2.27,2.17,3.32a6.15,6.15,0,0,0,2.15,2.18c-.3-.57-.73-1.05-1.06-1.6a58,58,0,0,1-3-6c-.46-.94-.76-1.95-1.22-2.89a1.49,1.49,0,0,0-.36.17,1.39,1.39,0,0,0,0,.5,8.2,8.2,0,0,0,.88,3.32,8.06,8.06,0,0,0,0,1.3c.08.93.07,1.87.1,2.8-1.78-.42-3.59-.66-5.38-1-7.31-1.2-14.6-2.47-21.91-3.68a9.43,9.43,0,0,0-3-.31A5.28,5.28,0,0,0,57.25,75.57ZM115.53,58.9q-8.31,7.59-16.66,15.15c-1.58,1.41-3.17,2.81-4.68,4.29-.4-.66-.82-1.32-1.21-2a8.29,8.29,0,0,0-1-1.54,9.51,9.51,0,0,0,.41,1.59,25.85,25.85,0,0,0,.92,2.55,14.92,14.92,0,0,0,1.53,2.66,9.19,9.19,0,0,0,1.5,3,12.29,12.29,0,0,0,7.72,4.83,3.29,3.29,0,0,0,1.46.12,37.67,37.67,0,0,0,4.94,1,5.3,5.3,0,0,0,2.85-.08,22.85,22.85,0,0,1-3.54-.78,5.31,5.31,0,0,1,.75-.22A22.38,22.38,0,0,0,123,82.83a18.76,18.76,0,0,0,4.89-9,12.93,12.93,0,0,0-.17-6.12,11.3,11.3,0,0,0-3.47-5.43A22.45,22.45,0,0,0,122.44,61c.51-.39,1-.85,1.47-1.22,2.2-.88,4.62-.9,6.85-1.68a3.16,3.16,0,0,0-1.38-.47,66.6,66.6,0,0,0-11.73,0A4.33,4.33,0,0,0,115.53,58.9ZM89.36,71.33a4.21,4.21,0,0,0,1.13,1.75c-.28-.86-.68-1.68-.92-2.56-.19-.54-.26-1.19-.75-1.54A4,4,0,0,0,89.36,71.33Zm47.55,3.59a38.8,38.8,0,0,1-2.5,13.22A44.19,44.19,0,0,1,124.05,104a50.14,50.14,0,0,1-21.3,12.45,49.59,49.59,0,0,1-23.06,1.18,43,43,0,0,1-17.84-7.78,38.53,38.53,0,0,1-7.8-7.87,18.78,18.78,0,0,1,2.47-1.86c.59-.38,1.27-.65,1.83-1.09a.4.4,0,0,0-.16-.69,5.08,5.08,0,0,0-3.48.42,11.19,11.19,0,0,0-4.23,3.33,9.08,9.08,0,0,0-1.31,2.8,9.79,9.79,0,0,0-.47,1.92c0,.36-.07.79.25,1a23,23,0,0,1,2.54-3.28c.54-.5,1-1.08,1.52-1.59a39.62,39.62,0,0,0,9.61,9.2,23.54,23.54,0,0,0,.12,4.11,12.35,12.35,0,0,0,.78,3.7,4,4,0,0,0,1.31,1.87,3,3,0,0,0,3.1,0,10,10,0,0,0,2.95-3.31,43.56,43.56,0,0,0,3.94,9.25,52.44,52.44,0,0,0,3.39,5.6,24.91,24.91,0,0,0,2.63,3.25,24.35,24.35,0,0,0,3.7,3,9.26,9.26,0,0,0,8.06,1.24,7.36,7.36,0,0,0,2.71-1.32,24.36,24.36,0,0,0,2.7-2.37,6.62,6.62,0,0,1,2.2-1.77c.59.53.88,1.3,1.44,1.86a16.73,16.73,0,0,0,1.86,1.81c.15.14.34.07.52,0-.66-1.54-1.11-3.24-2.28-4.48a2.13,2.13,0,0,0-1.6-.76,2.54,2.54,0,0,0-1.37.52,20.47,20.47,0,0,0-2.66,2.44,4.14,4.14,0,0,0-3.72-2.53,2.73,2.73,0,0,0-2.17,1.41,3.2,3.2,0,0,0-3.55.14,7.44,7.44,0,0,1-1.71-3,26.56,26.56,0,0,1-1.26-6.54,31.44,31.44,0,0,1,.52-6.64A51.65,51.65,0,0,0,100,118.62a21,21,0,0,0,1.9,2.49,11.35,11.35,0,0,0,2.86,2.4,3.88,3.88,0,0,0,2.27.58,1.71,1.71,0,0,0,1.23-.66,8,8,0,0,0,1.45-4.22c.11-1.3.2-2.6.26-3.9a50.86,50.86,0,0,0,16.45-11.68c.5.2,1,.47,1.45.72a8.94,8.94,0,0,0,4.62,1.18,3.27,3.27,0,0,0,2.61-1.31,3.53,3.53,0,0,0,.05-2.38,36.25,36.25,0,0,0-2.6-6.37,42.8,42.8,0,0,0,5-13,16.8,16.8,0,0,0,.38-6,37,37,0,0,0-1-3.76A14.43,14.43,0,0,0,136.91,74.92Z"/><path class="cls-4" d="M182.87,60.77a.94.94,0,0,1,1,.08,6.53,6.53,0,0,1,2,2.19,18.85,18.85,0,0,1,2.35,6.15,13.86,13.86,0,0,1,.23,4.76,2.94,2.94,0,0,1-.62,1.5.84.84,0,0,1-.92.21,4.51,4.51,0,0,1-1.89-1.76A19.54,19.54,0,0,1,182.58,68a14.32,14.32,0,0,1-.42-5.82A2.62,2.62,0,0,1,182.87,60.77ZM184,63a2.37,2.37,0,0,0-.34,1.73A18.66,18.66,0,0,0,185.73,72a2.07,2.07,0,0,0,1.16,1.11c.19.07.33-.1.44-.23a2.32,2.32,0,0,0,.3-1.27A13.52,13.52,0,0,0,186.8,67,10.61,10.61,0,0,0,185,63.22C184.72,63,184.27,62.68,184,63Z"/><path class="cls-4" d="M1.91,116.5a1.06,1.06,0,0,1,1.16,0,6.36,6.36,0,0,1,2.11,2.32,22.2,22.2,0,0,1,2.2,5.61,14,14,0,0,1,.36,5.8,2.47,2.47,0,0,1-.8,1.55,1.29,1.29,0,0,1-1.37-.26,9.63,9.63,0,0,1-2.63-3.6A18.52,18.52,0,0,1,1,119.08,3.73,3.73,0,0,1,1.91,116.5Zm.52,2.62A3.07,3.07,0,0,0,2,121.07a18.51,18.51,0,0,0,1.43,5.85,7.54,7.54,0,0,0,1.37,2.34c.27.22.7.51,1,.24a1.64,1.64,0,0,0,.39-1.24,18.28,18.28,0,0,0-1.12-5.74,8.71,8.71,0,0,0-1.71-3.22A.75.75,0,0,0,2.43,119.12Z"/><path class="cls-4" d="M184.14,64c.05-.19.09-.37.13-.56a5.83,5.83,0,0,1,1.55,2.43A19.15,19.15,0,0,1,187,70.31a5.48,5.48,0,0,1-.06,2.21l-.38-.37a13.83,13.83,0,0,0-1.08-5.85A9,9,0,0,0,184.14,64Z"/><path class="cls-4" d="M2.7,121.69a4.5,4.5,0,0,1,.13-2q.33.33.63.69v.05a10.36,10.36,0,0,0,.35,3.67,11.88,11.88,0,0,0,1.79,4.13,2.18,2.18,0,0,1-.07.76A5.89,5.89,0,0,1,4,126.75,18.41,18.41,0,0,1,2.7,121.69Z"/><path class="cls-5" d="M37.26,28.49A14.24,14.24,0,0,1,43,24.54a4.57,4.57,0,0,1,2.13-.33,1.56,1.56,0,0,1,1,.56,11.49,11.49,0,0,0-6,2.71A14.49,14.49,0,0,0,36.81,31a7.26,7.26,0,0,0-1,2.08,9.44,9.44,0,0,0-.18,1.6,1.58,1.58,0,0,1-.91-2A9.84,9.84,0,0,1,37.26,28.49Z"/><path class="cls-5" d="M97.52,9.07a3.83,3.83,0,0,1,2.2-1.17,13.91,13.91,0,0,1,6.19,0,11.49,11.49,0,0,1,4.58,1.89,2.72,2.72,0,0,1,1.16,1.43,1.38,1.38,0,0,1-.13,1.07A11.16,11.16,0,0,0,107.75,10,16.48,16.48,0,0,0,103,9a10,10,0,0,0-4.43.68l-.11.06c-.31.23-.59.49-.88.73A1.38,1.38,0,0,1,97.52,9.07Z"/><path class="cls-5" d="M11.63,80.73A2,2,0,0,1,13.18,80a1.45,1.45,0,0,1,1,.66,6.88,6.88,0,0,1,.79,1.9c-.58-.33-1.11-.73-1.72-1a14.18,14.18,0,0,0,4.34,3.43,29.33,29.33,0,0,0,10,3c0,.24-.08.48-.13.72a51.57,51.57,0,0,1-17.44-5A8.62,8.62,0,0,1,11.63,80.73Z"/><path class="cls-5" d="M157.13,38.15a1.21,1.21,0,0,1,1.1-.75,3.76,3.76,0,0,1,1.88.43,10.38,10.38,0,0,1,2.73,1.81,59.31,59.31,0,0,1-9.79,11.25A39.6,39.6,0,0,1,149,54.13l-.72-.89a31.74,31.74,0,0,0,7-7,16.54,16.54,0,0,0,3-7.24c-.34.57-.59,1.19-.89,1.79A4.09,4.09,0,0,1,157.13,38.15Z"/><path class="cls-6" d="M57.25,75.57a5.28,5.28,0,0,1,1.64-.7,9.43,9.43,0,0,1,3,.31c7.31,1.21,14.6,2.48,21.91,3.68,1.79.31,3.6.55,5.38,1,0-.93,0-1.87-.1-2.8a8.06,8.06,0,0,1,0-1.3,5.21,5.21,0,0,1,.43,1c.23,1.1.59,2.18.75,3.3a18.47,18.47,0,0,1,.09,3.24c0,.23,0,.45-.07.68a14.85,14.85,0,0,0-1.63,0c-1.46,0-2.9-.29-4.35-.44-.49,0-1-.12-1.46-.16a3.59,3.59,0,0,1-.38,1.73,1.75,1.75,0,0,0-.8-1.06,1.56,1.56,0,0,0-2.07.58,1.61,1.61,0,0,0,.24,1.87,3.06,3.06,0,0,1-1.71-.72,3.19,3.19,0,0,1-1-3c-.5-.06-1-.09-1.5-.14C70.39,82,65.16,81.34,59.92,80.8l-1.62-.17-1.75-.2L56,80.36a6.18,6.18,0,0,0-2.14-.11c-2.24.5-4.23,1.73-6.47,2.24a4,4,0,0,1,1-1.21A67.67,67.67,0,0,1,57.25,75.57Z"/><path class="cls-6" d="M115.53,58.9a4.33,4.33,0,0,1,2.12-1.26,66.6,66.6,0,0,1,11.73,0,3.16,3.16,0,0,1,1.38.47c-2.23.78-4.65.8-6.85,1.68-.51.37-1,.83-1.47,1.22l-.43.35-1.5,1.2-1.14.88c-1.56,1.16-3,2.41-4.56,3.63-2.58,2.1-5.15,4.21-7.74,6.3-.42.32-.83.63-1.24,1a2.91,2.91,0,0,1,1,2.49,3,3,0,0,1-1.14,2,1.55,1.55,0,1,0-3,.22,3.51,3.51,0,0,1-1.16-1.14l-1.2,1c-1.13.91-2.2,1.89-3.41,2.7-.46.3-.92.59-1.37.9-.22-.27-.43-.54-.63-.82a14.92,14.92,0,0,1-1.53-2.66,25.85,25.85,0,0,1-.92-2.55A9.51,9.51,0,0,1,92,74.8a8.29,8.29,0,0,1,1,1.54c.39.68.81,1.34,1.21,2,1.51-1.48,3.1-2.88,4.68-4.29Q107.21,66.47,115.53,58.9Z"/><path class="cls-7" d="M89.36,71.33A4,4,0,0,1,88.82,69c.49.35.56,1,.75,1.54.24.88.64,1.7.92,2.56A4.21,4.21,0,0,1,89.36,71.33Z"/><path class="cls-7" d="M56,80.36l.53.07a25.16,25.16,0,0,0,0,4.51,15.71,15.71,0,0,0,4.88,9.27,17.06,17.06,0,0,0,9.07,4.22,17.79,17.79,0,0,0,12.3-2.69c.8-.49,1.5-1.12,2.26-1.68a30.47,30.47,0,0,1-3,3.9,2.41,2.41,0,0,0-1.19.34,22.55,22.55,0,0,1-11.84,1.23,19.65,19.65,0,0,1-10-4.62,13.39,13.39,0,0,1-3.15-4.13,11.44,11.44,0,0,1-1.07-6.51,11,11,0,0,1,.41-1.87C55.45,81.7,55.77,81,56,80.36Z"/><path class="cls-7" d="M122,61.33l.43-.35a22.45,22.45,0,0,1,1.85,1.35,11.3,11.3,0,0,1,3.47,5.43,12.93,12.93,0,0,1,.17,6.12,18.76,18.76,0,0,1-4.89,9,22.38,22.38,0,0,1-12.49,6.71,5.31,5.31,0,0,0-.75.22,28.76,28.76,0,0,1-4.44-1.63,20.89,20.89,0,0,0,5.12.05,17.81,17.81,0,0,0,11.08-5.82,16.85,16.85,0,0,0,3.88-7.42,15.39,15.39,0,0,0,0-6.82,14.22,14.22,0,0,0-1.87-4.62C123.06,62.76,122.52,62.06,122,61.33Z"/><path class="cls-7" d="M88.22,71.91a1.49,1.49,0,0,1,.36-.17c.46.94.76,2,1.22,2.89a58,58,0,0,0,3,6c.33.55.76,1,1.06,1.6a6.15,6.15,0,0,1-2.15-2.18c-.81-1-1.35-2.28-2.17-3.32a5.21,5.21,0,0,0-.43-1,8.2,8.2,0,0,1-.88-3.32A1.39,1.39,0,0,1,88.22,71.91Z"/><path class="cls-7" d="M94.87,81.6c.2.28.41.55.63.82a18.29,18.29,0,0,0,2.22,2.18,24.82,24.82,0,0,0,7.83,5,3.29,3.29,0,0,1-1.46-.12,12.29,12.29,0,0,1-7.72-4.83A9.19,9.19,0,0,1,94.87,81.6Z"/><path class="cls-7" d="M90.34,83.3a1.65,1.65,0,0,1,.31.83,11.55,11.55,0,0,1-.45,5.09,13.22,13.22,0,0,1-4,5.92,1.32,1.32,0,0,1-.39.15A25.1,25.1,0,0,0,89.56,87a19.85,19.85,0,0,0,.71-3C90.29,83.75,90.32,83.53,90.34,83.3Z"/><path class="cls-7" d="M180.21,66.11c.15-.32.5-.53.76-.78a32.7,32.7,0,0,0,1,4.41c.32,1,.74,2,1.09,3.05-.38-.06-.77-.13-1.16-.17l0,0c-.33-1-.78-1.86-1-2.84A24.56,24.56,0,0,1,180.21,66.11Z"/><path class="cls-7" d="M6.72,119.25a8.42,8.42,0,0,1,1.21.18v0c.25.67.62,1.29.87,2a18.64,18.64,0,0,1,1,4.16c.34-.11.68-.21,1-.34-.61.64-1.26,1.24-1.89,1.87a32.77,32.77,0,0,0-1.13-5C7.53,121.16,7.11,120.21,6.72,119.25Z"/><path class="cls-7" d="M157.93,87.53c.57-.8,1.07-1.66,1.66-2.44A64,64,0,0,1,156,117.28c-.31-.9-.57-1.83-.94-2.71a10.67,10.67,0,0,0,.41,3.31,15.27,15.27,0,0,0,1.47,4.07,19.69,19.69,0,0,0,3,4.66,26.15,26.15,0,0,0,7.88,6.09,18.23,18.23,0,0,0,5.8,1.86,18.08,18.08,0,0,0-2.77,4.46,21.58,21.58,0,0,0-2.24-2.72A26,26,0,0,0,156,130a20.38,20.38,0,0,0-4.27-.32,20.06,20.06,0,0,0-7,1.06,7.36,7.36,0,0,0-1.47.64c1.85-.17,3.67-.58,5.52-.67a64,64,0,0,1-13.65,14.56,64.84,64.84,0,0,1-15.62,9.06,44.44,44.44,0,0,1,2-4.37c.74-1.49,1.72-2.86,2.41-4.37a9.45,9.45,0,0,0-2.17,2.33,21.78,21.78,0,0,0-2.4,3.46,22.47,22.47,0,0,0-3.28,16.13,27.14,27.14,0,0,0,3.31,9.73,17.55,17.55,0,0,0,2.39,2.91,34.69,34.69,0,0,0-6.63,1.84,17.78,17.78,0,0,0,0-6.3,27.12,27.12,0,0,0-5.08-12,20.72,20.72,0,0,0-7.36-6.24,26.21,26.21,0,0,0-8-3,6.76,6.76,0,0,0,1.87,1,49.27,49.27,0,0,1,4.57,2.64q.53.34,1,.72a65.58,65.58,0,0,1-23.52-1.34,61.84,61.84,0,0,1-7.74-2.4c1.67-1,3.52-1.69,5.25-2.59a3.42,3.42,0,0,0-1.35.18,25.88,25.88,0,0,0-4.12,1.47c-.65.31-1.25.71-1.88,1.08a23.18,23.18,0,0,0-2.9,1.93,26.57,26.57,0,0,0-6.36,8,18.29,18.29,0,0,0-2.35,8.59,17.89,17.89,0,0,0-4.79-2.23A20.81,20.81,0,0,0,57.86,164a23.93,23.93,0,0,0,2-11.68,18.35,18.35,0,0,0-1.49-5.92,6.76,6.76,0,0,0-1.11-1.72c.35,1.31.74,2.62,1,4a31,31,0,0,1-4.62-3.26A64.91,64.91,0,0,1,35.71,123a45.24,45.24,0,0,1,5.36,2.18A13.88,13.88,0,0,0,42.32,127a64.49,64.49,0,0,0,115.6-37.58,5.3,5.3,0,0,0-.07-1.54l0-.09C157.77,87.7,157.89,87.62,157.93,87.53Z"/><path class="cls-7" d="M162.14,101.72a31.44,31.44,0,0,0,10.75,1.63,19.83,19.83,0,0,0,6.76-1.37,5.1,5.1,0,0,0,1.9-1.16c-.73.13-1.43.37-2.14.57a3.36,3.36,0,0,1,1.78-1.52,1.2,1.2,0,0,1,1.25.56,5.15,5.15,0,0,1,.67,1.63,13.07,13.07,0,0,1,0,5.67,12.67,12.67,0,0,1-1.92,4.88,4.24,4.24,0,0,1-1.3,1.3,1.26,1.26,0,0,1-1.37,0,4,4,0,0,1-1.11-2.24c.59.29,1.08.72,1.67,1a13,13,0,0,0-3.74-3.33,26.38,26.38,0,0,0-8.49-3.28,36.15,36.15,0,0,0-5.19-.69C161.79,104.13,162,102.93,162.14,101.72Z"/><path class="cls-7" d="M42,138.56c.24-.25.49-.5.75-.74.67.85,1.44,1.6,2.11,2.45a30.89,30.89,0,0,0-6.75,7.45,15.81,15.81,0,0,0-2.51,7,17,17,0,0,0,.86-1.83,4.05,4.05,0,0,1,.28,2.56,1.33,1.33,0,0,1-1.3.77,4.73,4.73,0,0,1-1.76-.46,13.65,13.65,0,0,1-4.39-3.3,14.36,14.36,0,0,1-2.75-4.29A4.62,4.62,0,0,1,26.2,146a1.13,1.13,0,0,1,.88-1,3.19,3.19,0,0,1,2.07.38c-.69.25-1.41.38-2.08.7a11.55,11.55,0,0,0,5.55-1A27,27,0,0,0,42,138.56Z"/><path class="cls-7" d="M176,133.91a1.64,1.64,0,0,1,1.51-.23,1.14,1.14,0,0,1,.49,1,6,6,0,0,1-.52,2.53,11,11,0,0,1-4.19,5.23,1.78,1.78,0,0,1-1.57.28,1,1,0,0,1-.46-1,7,7,0,0,1,1-3.48A11.34,11.34,0,0,1,176,133.91Zm0,1.43a9.77,9.77,0,0,0-2.72,3.45,6,6,0,0,0-.74,2.17.58.58,0,0,0,.7.66,3.32,3.32,0,0,0,1.65-1.29,9.63,9.63,0,0,0,2.09-3.71,3.1,3.1,0,0,0,.08-1.09A.75.75,0,0,0,176.05,135.34Z"/><path class="cls-7" d="M81.55,172a29.37,29.37,0,0,0,3.26-11.15c1,.17,2.09.35,3.15.45a27.46,27.46,0,0,0-.23,12.1A11.18,11.18,0,0,0,90,178.44c-.15-.73-.41-1.43-.62-2.14a3,3,0,0,1,1.56,1.78,1.27,1.27,0,0,1-.6,1.23,5.62,5.62,0,0,1-1.81.74,13.87,13.87,0,0,1-6,0,11.31,11.31,0,0,1-5-2.16,2.15,2.15,0,0,1-.9-1.44,1.17,1.17,0,0,1,.41-.95,4.68,4.68,0,0,1,2.08-1,13.46,13.46,0,0,0-1,1.68A13.51,13.51,0,0,0,81.55,172Z"/><path class="cls-7" d="M135.92,147.54l2.46-2a29.66,29.66,0,0,0,7.81,6.92,15.24,15.24,0,0,0,5.9,2.09,17.79,17.79,0,0,0-1.79-.92,3.87,3.87,0,0,1,2.55-.22,1.25,1.25,0,0,1,.73,1.22,5.19,5.19,0,0,1-.73,2.29,13.88,13.88,0,0,1-3.64,4.21,11.43,11.43,0,0,1-5,2.54,2.14,2.14,0,0,1-1.63-.21,1.21,1.21,0,0,1-.45-1,3.41,3.41,0,0,1,.49-1.84,6.25,6.25,0,0,0,.63,2,2,2,0,0,0,.08-.8,15.34,15.34,0,0,0-1.44-5.78A28.29,28.29,0,0,0,135.92,147.54Z"/><path class="cls-7" d="M49,172.62a3.83,3.83,0,0,1,2.67-.17,11.83,11.83,0,0,1,6,3.14,2.42,2.42,0,0,1,.8,1.47,1,1,0,0,1-.74.84,4.76,4.76,0,0,1-1.88.1,11.6,11.6,0,0,1-4.75-1.73,6.45,6.45,0,0,1-2.49-2.48A.88.88,0,0,1,49,172.62Zm1.3,1.07c-.38.22-.27.78,0,1.05A8.87,8.87,0,0,0,54.2,177a6.3,6.3,0,0,0,1.86.39c.39,0,.88-.21.91-.66a2.6,2.6,0,0,0-1.15-1.3,11.76,11.76,0,0,0-4.1-1.84A1.93,1.93,0,0,0,50.34,173.69Z"/><path class="cls-7" d="M176.3,135.86l.34-.17a8.32,8.32,0,0,1-1.5,3.57,5.86,5.86,0,0,1-2,1.91c0-.15,0-.3,0-.46A9.3,9.3,0,0,0,176.3,135.86Z"/><path class="cls-7" d="M50.55,174.12l.66-.05,0,0a7.56,7.56,0,0,0,4.83,2.23,3.23,3.23,0,0,1,.41.49,5.4,5.4,0,0,1-2.79-.52A8.09,8.09,0,0,1,50.55,174.12Z"/><path class="cls-7" d="M114.15,184.46a19.45,19.45,0,0,1,10.27-2.75,4.62,4.62,0,0,1,2.62.8,7.19,7.19,0,0,1-3.44,3,18.65,18.65,0,0,1-7.45,2.06,6.86,6.86,0,0,1-4.13-.74A4.56,4.56,0,0,1,114.15,184.46Zm3.32-.25a7.08,7.08,0,0,0-2.84,1.6c-.16.19-.33.47-.15.72a1.28,1.28,0,0,0,1,.45,11.87,11.87,0,0,0,4.38-.58,15.16,15.16,0,0,0,4.4-1.82c.37-.28.81-.71.64-1.22a1.76,1.76,0,0,0-1.44-.43A19.81,19.81,0,0,0,117.47,184.21Z"/><path class="cls-7" d="M115.35,186.3c-.06-.18.05-.33.17-.47a13.57,13.57,0,0,0,4.47-.61,12.52,12.52,0,0,0,3.76-1.65l.42.14a2.36,2.36,0,0,1-.82.68,15.61,15.61,0,0,1-5.24,1.76A9.48,9.48,0,0,1,115.35,186.3Z"/><path class="cls-8" d="M56.55,80.43l1.75.2a13.27,13.27,0,0,0,2.46,10.06,15.54,15.54,0,0,0,5.89,5A15.72,15.72,0,0,0,78,96.31a15.93,15.93,0,0,0,8.76-6.91,13.33,13.33,0,0,0,1.92-5.46,14.85,14.85,0,0,1,1.63,0,19.85,19.85,0,0,1-.71,3,25.1,25.1,0,0,1-3.78,8.26A20.6,20.6,0,0,1,84,97.15c-.76.73-1.52,1.46-2.34,2.13a4.32,4.32,0,0,1-2,1.13c.34-.38.77-.67,1.13-1s.88-.94,1.31-1.42a30.47,30.47,0,0,0,3-3.9c-.76.56-1.46,1.19-2.26,1.68a17.79,17.79,0,0,1-12.3,2.69,17.06,17.06,0,0,1-9.07-4.22,15.71,15.71,0,0,1-4.88-9.27A25.16,25.16,0,0,1,56.55,80.43Z"/><path class="cls-8" d="M120.51,62.53l1.5-1.2c.51.73,1,1.43,1.54,2.17a14.22,14.22,0,0,1,1.87,4.62,15.39,15.39,0,0,1,0,6.82,16.85,16.85,0,0,1-3.88,7.42,17.81,17.81,0,0,1-11.08,5.82,20.89,20.89,0,0,1-5.12-.05,28.76,28.76,0,0,0,4.44,1.63,22.85,22.85,0,0,0,3.54.78,5.3,5.3,0,0,1-2.85.08,37.67,37.67,0,0,1-4.94-1,24.82,24.82,0,0,1-7.83-5,18.29,18.29,0,0,1-2.22-2.18c.45-.31.91-.6,1.37-.9a12.24,12.24,0,0,0,3.69,3.1,15.88,15.88,0,0,0,20.76-4.49,15.55,15.55,0,0,0,2.62-10.07,13.47,13.47,0,0,0-3.25-7.63Z"/><path class="cls-9" d="M58.3,80.63l1.62.17a17.35,17.35,0,0,0,.5,5.83,13.54,13.54,0,0,0,4.35,6.69,14.57,14.57,0,0,0,9.91,3.41A22.46,22.46,0,0,0,78,96.31a15.72,15.72,0,0,1-11.31-.63,15.54,15.54,0,0,1-5.89-5A13.27,13.27,0,0,1,58.3,80.63Z"/><path class="cls-9" d="M119.37,63.41l1.14-.88.18-.1a13.47,13.47,0,0,1,3.25,7.63,15.55,15.55,0,0,1-2.62,10.07,15.84,15.84,0,0,1-8.86,6.07,18,18,0,0,0,4.65-2.51,14.35,14.35,0,0,0,5.34-13.52A15.91,15.91,0,0,0,119.37,63.41Z"/><path class="cls-10" d="M59.92,80.8c5.24.54,10.47,1.18,15.71,1.75a5.26,5.26,0,0,0,1,3.91,4.41,4.41,0,0,0,6.14.37,5.5,5.5,0,0,0,1.52-3.33c1.45.15,2.89.41,4.35.44a13.33,13.33,0,0,1-1.92,5.46A15.93,15.93,0,0,1,78,96.31a22.46,22.46,0,0,1-3.28.42,14.57,14.57,0,0,1-9.91-3.41,13.54,13.54,0,0,1-4.35-6.69A17.35,17.35,0,0,1,59.92,80.8Z"/><path class="cls-10" d="M114.81,67c1.52-1.22,3-2.47,4.56-3.63a15.91,15.91,0,0,1,3.08,6.76,14.35,14.35,0,0,1-5.34,13.52,18,18,0,0,1-4.65,2.51,15.85,15.85,0,0,1-11.9-1.58,12.24,12.24,0,0,1-3.69-3.1c1.21-.81,2.28-1.79,3.41-2.7a6.19,6.19,0,0,0,2.53,1.85,4.32,4.32,0,0,0,4.24-1.06,4.09,4.09,0,0,0,1.31-3.21,5.93,5.93,0,0,0-1.29-3.06C109.66,71.25,112.23,69.14,114.81,67Z"/><path class="cls-11" d="M75.63,82.55c.5,0,1,.08,1.5.14a3.19,3.19,0,0,0,1,3,3.06,3.06,0,0,0,1.71.72,1.56,1.56,0,0,0,2,.16,1.66,1.66,0,0,0,.67-1.55,3.59,3.59,0,0,0,.38-1.73c.49,0,1,.11,1.46.16a5.5,5.5,0,0,1-1.52,3.33,4.41,4.41,0,0,1-6.14-.37A5.26,5.26,0,0,1,75.63,82.55Z"/><path class="cls-11" d="M105.83,74.3c.41-.33.82-.64,1.24-1a5.93,5.93,0,0,1,1.29,3.06,4.09,4.09,0,0,1-1.31,3.21,4.32,4.32,0,0,1-4.24,1.06,6.19,6.19,0,0,1-2.53-1.85l1.2-1A3.51,3.51,0,0,0,102.64,79a1.6,1.6,0,0,0,1.48,1.09,1.57,1.57,0,0,0,1.54-1.31,3,3,0,0,0,1.14-2A2.91,2.91,0,0,0,105.83,74.3Z"/><path class="cls-12" d="M79.58,84.59A1.56,1.56,0,0,1,81.65,84a1.75,1.75,0,0,1,.8,1.06,1.66,1.66,0,0,1-.67,1.55,1.56,1.56,0,0,1-2-.16A1.61,1.61,0,0,1,79.58,84.59Z"/><path class="cls-12" d="M102.64,79a1.56,1.56,0,1,1,1.48,1.09A1.6,1.6,0,0,1,102.64,79Z"/><path class="cls-12" d="M63.45,112.72c.69.38,1.36.76,2,1.17,1,.61,2.13,1.12,3.2,1.66A15.42,15.42,0,0,1,67.36,120a12.47,12.47,0,0,1-1,1.5,1.67,1.67,0,0,1-1.4-.71,12.5,12.5,0,0,1-1.35-5.45C63.53,114.45,63.51,113.58,63.45,112.72Z"/><path class="cls-12" d="M126.77,103.18c1-1.12,2-2.31,2.91-3.51a18.19,18.19,0,0,1,4.55,4.33,3.82,3.82,0,0,1-2.75.74A14.6,14.6,0,0,1,126.77,103.18Z"/><path class="cls-12" d="M100.5,118.48c1.91-.47,3.8-1,5.66-1.67a13.21,13.21,0,0,1,.91,6.31,4.29,4.29,0,0,1-2.66-.87A22.88,22.88,0,0,1,100.5,118.48Z"/><path class="cls-12" d="M92.15,135.9a1.49,1.49,0,0,1,1.75.36c.18.13.3.5,0,.59a1.63,1.63,0,0,1-1.49-.35C92.25,136.36,92,136.14,92.15,135.9Z"/><path class="cls-13" d="M129.68,99.67c.79-1,1.48-2.09,2.19-3.16a28.61,28.61,0,0,1,1.82,4,10.14,10.14,0,0,1,.7,2.59,2.21,2.21,0,0,1-.16.92A18.19,18.19,0,0,0,129.68,99.67Z"/><path class="cls-13" d="M68.68,115.55c.75.36,1.51.68,2.28,1a30.3,30.3,0,0,1-1.64,2.67,6.06,6.06,0,0,1-1.83,1.94,2.74,2.74,0,0,1-1.11.33,12.47,12.47,0,0,0,1-1.5A15.42,15.42,0,0,0,68.68,115.55Z"/><path class="cls-13" d="M106.16,116.81c.91-.32,1.81-.66,2.69-1,0,1.2-.08,2.41-.2,3.61a8.25,8.25,0,0,1-.61,2.44,3,3,0,0,1-1,1.3A13.21,13.21,0,0,0,106.16,116.81Z"/><path class="cls-14" d="M71.67,117.52c-.08-.24.07-.45.14-.66a48.44,48.44,0,0,0,11.58,2.72c-.08.58-.2,1.14-.33,1.71a21.19,21.19,0,0,0,0,8.47c.25,1.14.61,2.25,1,3.37a10.19,10.19,0,0,0,1.92,3.25A8.14,8.14,0,0,0,84.82,138a20,20,0,0,1-4.61-4.38A67.91,67.91,0,0,1,74,123.51,25.87,25.87,0,0,1,71.67,117.52Z"/><path class="cls-15" d="M86.68,135.84a3.2,3.2,0,0,1,3.55-.14,2.73,2.73,0,0,1,2.17-1.41,4.14,4.14,0,0,1,3.72,2.53c-.26.25-.51.49-.78.73A3.91,3.91,0,0,0,94,135.89a3.45,3.45,0,0,0-1.54-.55,3.21,3.21,0,0,0-1.84.79A4.64,4.64,0,0,1,92,137.71a15.82,15.82,0,0,0-2.57-1.21,3,3,0,0,0-2.3.32,5,5,0,0,0-1.57,1.68l-.73-.49a8.14,8.14,0,0,1,1.09-1.63C86.17,136.2,86.43,136,86.68,135.84Z"/><path class="cls-16" d="M87.12,136.82a3,3,0,0,1,2.3-.32A15.82,15.82,0,0,1,92,137.71a4.64,4.64,0,0,0-1.34-1.58,3.21,3.21,0,0,1,1.84-.79,3.45,3.45,0,0,1,1.54.55,3.91,3.91,0,0,1,1.31,1.66,8.07,8.07,0,0,1-2.47,1.62,10.61,10.61,0,0,1-2.71.6,7.76,7.76,0,0,1-4.61-1.27A5,5,0,0,1,87.12,136.82Zm5-.92c-.11.24.1.46.28.6a1.63,1.63,0,0,0,1.49.35c.28-.09.16-.46,0-.59A1.49,1.49,0,0,0,92.15,135.9Z"/></svg>