<svg id="Layer_1" data-name="Layer 1" xmlns="http://www.w3.org/2000/svg" viewBox="0 0 125.29 123.84"><defs><style>.cls-1{fill:#373d19;}.cls-2{fill:#cddc43;}.cls-3{fill:#758436;}.cls-4{fill:#b0c236;}.cls-5{fill:#e0e667;}.cls-6{fill:#96ab3b;}</style></defs><title>germen</title><path class="cls-1" d="M59.69.31A17.35,17.35,0,0,1,66.9.45a6.64,6.64,0,0,1,2.32.94A1.71,1.71,0,0,1,70,2.47a1.19,1.19,0,0,1-.44.95,4.54,4.54,0,0,1-2,.94c-.22.07-.49.12-.59.34a12.92,12.92,0,0,0-1.23,3.52,15.19,15.19,0,0,0-.27,4.36,17.24,17.24,0,0,0,2.38,7.29A46.1,46.1,0,0,1,77.28,22a17.28,17.28,0,0,0,1.53-3,19.85,19.85,0,0,0,.93-2.79A18.69,18.69,0,0,0,80.19,13a3.69,3.69,0,0,1-1.29-2.13,1.29,1.29,0,0,1,.8-1.33A4,4,0,0,1,82,9.34a11,11,0,0,1,5.4,2.54,4.25,4.25,0,0,1,1.36,1.84,1.49,1.49,0,0,1-.12,1.33,2,2,0,0,1-1.67.7c-.41,0-.82-.06-1.22,0a19,19,0,0,0-4.91,7.66,43.09,43.09,0,0,1,9.62,5.92,15.81,15.81,0,0,0,9.3-6.65A15.69,15.69,0,0,0,101.1,20a3.27,3.27,0,0,1-.51-1.76.93.93,0,0,1,.47-.76,1.74,1.74,0,0,1,1.27-.11,6.21,6.21,0,0,1,2.11,1,7.86,7.86,0,0,1,2.38,2.52,2.72,2.72,0,0,1,.42,1.44A1.17,1.17,0,0,1,107,23a1.1,1.1,0,0,1-.8.39,4,4,0,0,1-1.6-.35,15.36,15.36,0,0,0-7.45,8.51,10.94,10.94,0,0,0-.65,3.71c.73,1,1.46,1.9,2.15,2.88a42.87,42.87,0,0,1,4.11,7.45,19.16,19.16,0,0,0,7.39-4.79,5.5,5.5,0,0,1,.15-2.14,1.35,1.35,0,0,1,1.17-.93,2.78,2.78,0,0,1,1.91.84,10.58,10.58,0,0,1,3,5.52,5.44,5.44,0,0,1,.11,2.09,2,2,0,0,1-.47,1.1,1.25,1.25,0,0,1-1.18.41,4.23,4.23,0,0,1-2.07-1.31,18.37,18.37,0,0,0-8.74,2.73,42.25,42.25,0,0,1,1.87,9,14,14,0,0,0,3.23,1.4,15.77,15.77,0,0,0,11.52-.59c.16-.08.39-.14.43-.35a3.84,3.84,0,0,1,1.34-2.22,1.1,1.1,0,0,1,1.37.26,4.7,4.7,0,0,1,1,2,13.77,13.77,0,0,1,0,6.78,5.61,5.61,0,0,1-.76,1.8,2,2,0,0,1-1,.79,1.2,1.2,0,0,1-1.08-.44,5.12,5.12,0,0,1-1-2,15.44,15.44,0,0,0-5.76-1.33,14.6,14.6,0,0,0-3.3.24,16.47,16.47,0,0,0-6,2.28,47.56,47.56,0,0,1-1.5,7.38c-.38,1.24-.82,2.46-1.25,3.67a20.81,20.81,0,0,0,5.53,2.73,18.91,18.91,0,0,0,3.58.71c.12,0,.28.07.37,0A3.68,3.68,0,0,1,114.79,80a1.27,1.27,0,0,1,1.16.61,2.74,2.74,0,0,1,.36,1.52,8.46,8.46,0,0,1-.55,2.62A10.94,10.94,0,0,1,114,87.88a6.76,6.76,0,0,1-1.7,1.59,2.33,2.33,0,0,1-1.56.34,1.45,1.45,0,0,1-1-1,4.68,4.68,0,0,1-.08-1.71.78.78,0,0,0-.2-.64,17.12,17.12,0,0,0-1.69-1.61,18.54,18.54,0,0,0-6.31-3.49,44.39,44.39,0,0,1-5,7.65,15.19,15.19,0,0,0,8.13,11.31,4,4,0,0,1,1.54-.35,1.14,1.14,0,0,1,.85.36,1.31,1.31,0,0,1,.23.84,3,3,0,0,1-.54,1.52,8,8,0,0,1-4.14,3.26,1.81,1.81,0,0,1-1.56-.1,1.15,1.15,0,0,1-.41-1.14,4.6,4.6,0,0,1,.5-1.32,15.17,15.17,0,0,0-7.12-8,16.33,16.33,0,0,0-2.69-1.14,45.45,45.45,0,0,1-10.07,6.43,19,19,0,0,0,4.55,6.69,7.11,7.11,0,0,1,2,.09,1.54,1.54,0,0,1,1,.83,1.93,1.93,0,0,1-.16,1.45A5.76,5.76,0,0,1,87,111.59a11,11,0,0,1-5.26,2.27,4.45,4.45,0,0,1-1.78-.11,1.54,1.54,0,0,1-1.06-1,1.69,1.69,0,0,1,.1-1.06,7.49,7.49,0,0,1,1.12-1.57c.08-.08,0-.19,0-.27a18.49,18.49,0,0,0-.66-3.77,21.39,21.39,0,0,0-1.68-4,43.41,43.41,0,0,1-11.49,2.46,16.44,16.44,0,0,0-2.18,5.53,14.65,14.65,0,0,0,1.25,9.59A4.54,4.54,0,0,1,67.74,121a1,1,0,0,1,.09,1.17,2.32,2.32,0,0,1-1,.83,10,10,0,0,1-3.41.84,14.63,14.63,0,0,1-3.74-.15,7.92,7.92,0,0,1-2.85-.94,1.9,1.9,0,0,1-.92-1.16,1.08,1.08,0,0,1,.4-.92,5,5,0,0,1,2.19-1,14.8,14.8,0,0,0,1.39-7.21,16,16,0,0,0-2.71-8.06,44.18,44.18,0,0,1-9.61-2.39,17.42,17.42,0,0,0-1.47,3.23,16.36,16.36,0,0,0-1,4.9c0,.22.25.36.39.53a2.93,2.93,0,0,1,.9,1.85,1.26,1.26,0,0,1-.55,1,2.58,2.58,0,0,1-1.46.41,8.23,8.23,0,0,1-2.94-.54,10.89,10.89,0,0,1-3.15-1.73,5.84,5.84,0,0,1-1.6-1.76,2.06,2.06,0,0,1-.23-1.37,1.5,1.5,0,0,1,1-.95,5.7,5.7,0,0,1,1.89-.1.68.68,0,0,0,.4-.23,18.7,18.7,0,0,0,3.34-4.42,14.57,14.57,0,0,0,1.08-2.34,40.8,40.8,0,0,1-8.44-5.16,16,16,0,0,0-8.63,7,13.25,13.25,0,0,0-.91,1.9c-.08.18,0,.37.11.53a2.23,2.23,0,0,1,.28,1.63,1.14,1.14,0,0,1-1.17.67,5.11,5.11,0,0,1-2.51-1,8.14,8.14,0,0,1-2.28-2.25,3.13,3.13,0,0,1-.64-1.67,1.14,1.14,0,0,1,.37-1,1.58,1.58,0,0,1,1.27-.2c.3.06.57.19.86.26s.39-.09.57-.18a15.2,15.2,0,0,0,7.59-10.56,40.9,40.9,0,0,1-6.1-8.7,18.75,18.75,0,0,0-7.08,4.94c0,.42.06.85,0,1.27a2,2,0,0,1-.71,1.66,1.54,1.54,0,0,1-1.39.08,4.86,4.86,0,0,1-2-1.51,10.94,10.94,0,0,1-2.54-5.5,4,4,0,0,1,.17-1.85A1.33,1.33,0,0,1,12.48,80a3.93,3.93,0,0,1,2.14,1.24,18.74,18.74,0,0,0,4.15-.83,21.38,21.38,0,0,0,4.2-2A44.47,44.47,0,0,1,20.13,68a18.2,18.2,0,0,0-6.91-2.06,16.22,16.22,0,0,0-7.56,1c-.41.16-.81.33-1.2.52a6.29,6.29,0,0,1-1,2,1.63,1.63,0,0,1-.9.6,1.36,1.36,0,0,1-1.14-.5,5,5,0,0,1-1-2,13.87,13.87,0,0,1-.19-6.18,7,7,0,0,1,.89-2.51,2.15,2.15,0,0,1,1.18-1,1.24,1.24,0,0,1,1.12.45,5,5,0,0,1,1,2.09,15.44,15.44,0,0,0,5.26,1.33,17.36,17.36,0,0,0,6.48-.7,15.57,15.57,0,0,0,3.63-1.51,41.47,41.47,0,0,1,2.15-11,24,24,0,0,0-3.06-1.26,17.92,17.92,0,0,0-4.66-.86,4.1,4.1,0,0,1-2,1.3,1.26,1.26,0,0,1-1.2-.38,2.46,2.46,0,0,1-.53-1.61,8.39,8.39,0,0,1,.58-3,10.64,10.64,0,0,1,1.8-3.2,5.49,5.49,0,0,1,1.58-1.42,2.08,2.08,0,0,1,1.42-.25,1.47,1.47,0,0,1,.95,1,6.71,6.71,0,0,1,.1,2,19.39,19.39,0,0,0,6.3,4.37,44,44,0,0,1,7.14-11.05.4.4,0,0,0,.07-.42,15.29,15.29,0,0,0-7.62-9.63c-.28-.15-.58,0-.86.12a2,2,0,0,1-1.43,0,1,1,0,0,1-.52-.8A2.45,2.45,0,0,1,20.35,22a7.88,7.88,0,0,1,4.34-3.62,2.11,2.11,0,0,1,1.29,0,1,1,0,0,1,.68.86,3,3,0,0,1-.5,1.72A14,14,0,0,0,29.43,26a16.3,16.3,0,0,0,5.3,3.57.38.38,0,0,0,.44-.05,42.83,42.83,0,0,1,9.33-5.86,12.32,12.32,0,0,0-1.12-2.8,18.79,18.79,0,0,0-3.69-5,.82.82,0,0,0-.67-.14,3.62,3.62,0,0,1-1.79-.21,1.31,1.31,0,0,1-.79-1.17,3,3,0,0,1,.93-2,10.89,10.89,0,0,1,5.5-3,4.83,4.83,0,0,1,2.56,0,1.43,1.43,0,0,1,1,1.09,2.19,2.19,0,0,1-.22,1.07A5.16,5.16,0,0,1,45.11,13a18.67,18.67,0,0,0,3,9.17,43.38,43.38,0,0,1,10.5-2.34,17.48,17.48,0,0,0,2.3-7.62A16,16,0,0,0,60.72,9a14.45,14.45,0,0,0-1.56-4.55A5,5,0,0,1,56.49,3,1,1,0,0,1,56.35,2a1.83,1.83,0,0,1,.73-.73A7.32,7.32,0,0,1,59.69.31Zm1.71.5a9.18,9.18,0,0,0-3.3.88,2.31,2.31,0,0,0-.76.73,3.3,3.3,0,0,0,1.82,1.13,15.42,15.42,0,0,0,6,.45A10.33,10.33,0,0,0,68,3.31a1.48,1.48,0,0,0,.9-.88,1.42,1.42,0,0,0-.79-.77A7.71,7.71,0,0,0,66.5,1.1,15.09,15.09,0,0,0,61.4.81ZM60.26,4.69a5,5,0,0,0,.48.88h0A9.75,9.75,0,0,1,61.86,9,17.2,17.2,0,0,1,60,19.56,16.78,16.78,0,0,1,56.39,24h0a19.92,19.92,0,0,1-2.47,1.92A9.29,9.29,0,0,1,52.15,27c.87-.91,1.9-1.66,2.73-2.6a3.38,3.38,0,0,0,.74-.67,17,17,0,0,0,2-2.39l-.33,0A41.12,41.12,0,0,0,36.72,30a1.43,1.43,0,0,0-.23.26,22.25,22.25,0,0,0,2.9.59c.57.08,1.14.14,1.7.26a11.15,11.15,0,0,1-2.45,0,17.65,17.65,0,0,1-3.93-.9,16.48,16.48,0,0,1-7.12-5.41,9,9,0,0,1-1.43-2.49c-.1-.31-.2-.62-.32-.93a2.32,2.32,0,0,0-.35.35A9.48,9.48,0,0,1,24.1,23a6.65,6.65,0,0,0-.87.72l.87.41a15.17,15.17,0,0,1,5.46,5.7,15.39,15.39,0,0,1,1.14,2.47,14.31,14.31,0,0,1,.68,3.79c0,.52-.05,1,0,1.56h0a7.29,7.29,0,0,1-.22,1.4c-.05-.34,0-.7-.06-1.05a22,22,0,0,0-.17-2.3,9.48,9.48,0,0,0-1.14,1.31,45,45,0,0,0-4.52,7.34A39.33,39.33,0,0,0,21.61,56h0c-.18.89-.22,1.81-.31,2.71a9.51,9.51,0,0,0,1.42-1c.87-.7,1.7-1.44,2.5-2.21a16.86,16.86,0,0,1,1.23-1.16,11.79,11.79,0,0,1-1.68,2.3A16.26,16.26,0,0,1,21,59.85,14.88,14.88,0,0,1,16,62.11a18.81,18.81,0,0,1-4.84.64,15.28,15.28,0,0,1-5.75-1v0a6.43,6.43,0,0,0-.71-.32c.07.67.16,1.35.17,2a21.4,21.4,0,0,1-.19,3.2c.49-.27,1-.52,1.48-.81.32-.1.64-.21,1-.3a16.19,16.19,0,0,1,4.65-.61,19.14,19.14,0,0,1,5.26.78A15.84,15.84,0,0,1,21.86,68a18.06,18.06,0,0,1,2.62,2.15,20,20,0,0,1,1.59,1.84,7.25,7.25,0,0,1,1,1.55c-.87-.71-1.6-1.6-2.48-2.3h0a29.5,29.5,0,0,0-2.91-2.31,41.4,41.4,0,0,0,7.2,17.22,18.3,18.3,0,0,0,2,2.47C31,87.7,31,86.84,31,86a6.18,6.18,0,0,1,.47,2.55,13.08,13.08,0,0,1-.62,4,15.64,15.64,0,0,1-3.25,5.68,13.3,13.3,0,0,1-4.33,3.33,12.1,12.1,0,0,1,2.53,2.21,11.42,11.42,0,0,1,2.75-4.59,16.7,16.7,0,0,1,5-3.72A11.15,11.15,0,0,1,36,94.61c.57-.13,1.12-.31,1.69-.4a17.26,17.26,0,0,1,2.69-.14,2,2,0,0,1,.83.13c-1.21.24-2.46.31-3.66.64a39.49,39.49,0,0,0,5.57,3.55A41.62,41.62,0,0,0,56,102.73a7.68,7.68,0,0,0-.5-.63,29.14,29.14,0,0,0-2.37-2.47,4.08,4.08,0,0,1-.89-.92,12.85,12.85,0,0,1,3.33,2.34,21.52,21.52,0,0,1,2.27,2.31,14.38,14.38,0,0,1,2.6,5.29,17.27,17.27,0,0,1,.41,7.08,10.76,10.76,0,0,1-1,3.46,22.21,22.21,0,0,1,4.39.07,10.55,10.55,0,0,1-1-2.39,17.08,17.08,0,0,1,0-7.79,15.38,15.38,0,0,1,2.39-5.45,16,16,0,0,1,2-2.23,14.84,14.84,0,0,1,2.26-1.85,6.33,6.33,0,0,1,1.75-1c-.7.81-1.54,1.47-2.27,2.25a29.28,29.28,0,0,0-2,2.3,41.28,41.28,0,0,0,12.34-3.23,40.39,40.39,0,0,0,9.79-6c-1.14-.29-2.33-.33-3.47-.59a9.85,9.85,0,0,1,2.92,0A17.47,17.47,0,0,1,92.4,94a13,13,0,0,1,3.06,1.52,16.06,16.06,0,0,1,5.27,5.51c.29.56.47,1.17.71,1.76h0a11.82,11.82,0,0,1,2.47-2.21,13.63,13.63,0,0,1-5.08-4.24,14.23,14.23,0,0,1-2.73-5.77,11.83,11.83,0,0,1-.29-3.45,6.85,6.85,0,0,1,.34-2.07c.07.6.06,1.21.09,1.82a40.83,40.83,0,0,0,8-19c-.54.42-1.06.87-1.57,1.31-.37.29-.7.63-1,1a16.44,16.44,0,0,1-1.48,1.41,11.55,11.55,0,0,1,1.58-2.23A13.13,13.13,0,0,1,104.12,67a18.45,18.45,0,0,1,2.49-1.73,17.05,17.05,0,0,1,6.16-1.89,13,13,0,0,1,2.57-.11,14.64,14.64,0,0,1,4.77,1v0l.68.31c0-.65-.11-1.3-.12-1.95a21.19,21.19,0,0,1,.18-3,2.14,2.14,0,0,0-.64.36,12.82,12.82,0,0,1-5.12,1.25,17.7,17.7,0,0,1-7.93-1.47,11.42,11.42,0,0,1-2-1.12c-.84-.59-1.65-1.2-2.44-1.85a16.35,16.35,0,0,1-2.07-2.33,8.22,8.22,0,0,1-1-1.47,48.5,48.5,0,0,0,4.71,4.13,32.08,32.08,0,0,0-1-5.15,18,18,0,0,0-.6-2.18,40.62,40.62,0,0,0-5.59-11.17,6.12,6.12,0,0,0-.84-1.06c0,.59,0,1.18-.06,1.78a2.37,2.37,0,0,1-.18-.53c-.12-1-.17-2.08-.24-3.12A9.21,9.21,0,0,1,96,34a14.64,14.64,0,0,1,.44-2.17,15,15,0,0,1,2.84-5.22,13.76,13.76,0,0,1,4.07-3.49c.25-.11.5-.23.74-.36a15.37,15.37,0,0,1-1.79-1.43c-.3-.28-.54-.61-.84-.89a3,3,0,0,0-.27.73A13.66,13.66,0,0,1,97,26.65a14.7,14.7,0,0,1-5.33,2.91,12.64,12.64,0,0,1-3.5.64c-.57,0-1.15.06-1.73,0l-.09-.11a17.69,17.69,0,0,0,2.28-.35l-.42-.34a42.06,42.06,0,0,0-17.45-7.65A12.2,12.2,0,0,0,69,21.52a21.78,21.78,0,0,0,2.57,2.86c.48.5,1,1,1.5,1.44s1.13.71,1.65,1.14a9.74,9.74,0,0,1-4.89-3,13.7,13.7,0,0,1-1-1.14,20.24,20.24,0,0,1-3.07-4.7,17.17,17.17,0,0,1-1.17-9.52,10.89,10.89,0,0,1,.9-3h0a4,4,0,0,0,.42-.86A24.74,24.74,0,0,1,60.26,4.69ZM39.61,11.34a6.14,6.14,0,0,0-2.35,2.23,1,1,0,0,0,.26,1.29,3.93,3.93,0,0,0,1.56.21c-.29-.32-.67-.54-.94-.88a11,11,0,0,1,2.75,1.89,12,12,0,0,1,1.5,1.68,21.66,21.66,0,0,1,2.93,5.57c.68-.28,1.35-.6,2-.86a18,18,0,0,1-2.86-8.31,8,8,0,0,1,.42-3.34,6.76,6.76,0,0,1,0,1.35,2,2,0,0,0,.68-1.58h0A1.31,1.31,0,0,0,44.4,10,8.59,8.59,0,0,0,39.61,11.34ZM79.9,10.28a.93.93,0,0,0-.22.82,3.21,3.21,0,0,0,.67,1.09c0-.46,0-.92,0-1.38l.08,0c.09.42.22.82.28,1.24a12.28,12.28,0,0,1-.16,4.1,19.7,19.7,0,0,1-2.49,6.15l2,.82a20.12,20.12,0,0,1,2.81-5.3,10.74,10.74,0,0,1,4.18-3.53c-.27.29-.59.52-.88.79a3.18,3.18,0,0,0,1.72-.29h0A1.07,1.07,0,0,0,88,13.49,6.85,6.85,0,0,0,85.1,11a8.41,8.41,0,0,0-4-1.07A2.09,2.09,0,0,0,79.9,10.28ZM101.61,18a.59.59,0,0,0-.38.76,5,5,0,0,0,1.41,2.18A8,8,0,0,0,105,22.56a2.4,2.4,0,0,0,1.18.23.57.57,0,0,0,.51-.5,1.82,1.82,0,0,0-.3-1.06,7.14,7.14,0,0,0-3.27-3A2.4,2.4,0,0,0,101.61,18ZM25,18.89a6.08,6.08,0,0,0-2.66,1.44,6.11,6.11,0,0,0-1.6,2,1.9,1.9,0,0,0-.21.88.6.6,0,0,0,.6.5,2.71,2.71,0,0,0,.85-.15A7,7,0,0,0,24.4,22,5,5,0,0,0,26,19.77a.75.75,0,0,0-.07-.7A1,1,0,0,0,25,18.89ZM14.49,38.75A5.55,5.55,0,0,0,13,40.2a9.58,9.58,0,0,0-1.84,5.09,2.76,2.76,0,0,0,.2,1.2.73.73,0,0,0,.64.45,2.22,2.22,0,0,0,1.35-.66,11.69,11.69,0,0,1-1.45,0,3.78,3.78,0,0,1,1.39-.41,11,11,0,0,1,2.75,0,17.91,17.91,0,0,1,6.17,1.93l.56-1.38L23,46a18.5,18.5,0,0,1-5.72-3.8,8.79,8.79,0,0,1-1.88-2.71c.32.28.57.62.87.92A4,4,0,0,0,16.11,39a.82.82,0,0,0-.5-.53A1.38,1.38,0,0,0,14.49,38.75Zm96.64,0a2.73,2.73,0,0,0-.29,1.62,12.49,12.49,0,0,1,.85-.93,10.43,10.43,0,0,1-3.26,4,20.42,20.42,0,0,1-5.4,3c.09.22.18.44.28.66.19.44.33.9.53,1.33a18.64,18.64,0,0,1,5.74-2.28,12.55,12.55,0,0,1,4-.23,4.39,4.39,0,0,1,1.63.44,11.69,11.69,0,0,1-1.45,0,2.26,2.26,0,0,0,1.31.66.78.78,0,0,0,.73-.56,3.43,3.43,0,0,0,.14-1.27,9.72,9.72,0,0,0-1.51-4.44,6.49,6.49,0,0,0-1.54-1.76,2,2,0,0,0-1-.46A.75.75,0,0,0,111.13,38.76Zm11.69,18.42a1.72,1.72,0,0,0-.72.85,9.62,9.62,0,0,0-.74,3.89,12.35,12.35,0,0,0,.46,3.68,3.06,3.06,0,0,0,.69,1.26.66.66,0,0,0,.48.26.83.83,0,0,0,.63-.4,5.4,5.4,0,0,0,.75-1.78,12.17,12.17,0,0,0-.17-6.14,3.81,3.81,0,0,0-.76-1.43A.57.57,0,0,0,122.82,57.18ZM2.21,58.83a2.25,2.25,0,0,0-1,1.34,11.73,11.73,0,0,0-.43,5.88,6.09,6.09,0,0,0,1,2.64.76.76,0,0,0,.76.37,1.51,1.51,0,0,0,.78-.81,9,9,0,0,0,.81-3.57,14,14,0,0,0-.34-3.87A4.13,4.13,0,0,0,2.94,59,.66.66,0,0,0,2.21,58.83Zm99.67,21.78a22.36,22.36,0,0,1,3.77,1.77,15.73,15.73,0,0,1,4,3.23,8.08,8.08,0,0,1,1.57,2.57c-.31-.27-.53-.62-.83-.9a2.67,2.67,0,0,0,.26,1.55.8.8,0,0,0,.86.29,2.88,2.88,0,0,0,1.08-.6,8.51,8.51,0,0,0,2.13-2.88,8.12,8.12,0,0,0,.89-3.23,3.14,3.14,0,0,0-.15-1.14.75.75,0,0,0-.66-.5,2.19,2.19,0,0,0-1.33.61c.46,0,.92,0,1.38.05a2.13,2.13,0,0,1-.9.3,12.67,12.67,0,0,1-5.5-.5,20.83,20.83,0,0,1-5.61-2.73C102.52,79.21,102.19,79.9,101.88,80.61Zm-79.76-.77a16.55,16.55,0,0,1-6.35,2,7.23,7.23,0,0,1-3.45-.36,12.75,12.75,0,0,1,1.38-.07,2.08,2.08,0,0,0-1.23-.6.73.73,0,0,0-.7.46A3.32,3.32,0,0,0,11.63,83a9.81,9.81,0,0,0,1,3,8.82,8.82,0,0,0,1.93,2.53,3,3,0,0,0,1.07.63.82.82,0,0,0,.91-.25,2.55,2.55,0,0,0,.28-1.61,9.39,9.39,0,0,1-.84.94,8,8,0,0,1,1.42-2.37,12.58,12.58,0,0,1,1.95-1.91,19.94,19.94,0,0,1,4.86-2.85c-.26-.64-.59-1.24-.85-1.88C22.93,79.38,22.53,79.62,22.12,79.84Zm83.4,20.83a6.81,6.81,0,0,0-2.63,1.58,6,6,0,0,0-1.45,1.84,1.93,1.93,0,0,0-.21.94.54.54,0,0,0,.48.42,2.23,2.23,0,0,0,1.13-.2A7.19,7.19,0,0,0,106,102.8a3.36,3.36,0,0,0,.66-1.37.67.67,0,0,0-.15-.65A1.11,1.11,0,0,0,105.52,100.67ZM45,100.79a18.64,18.64,0,0,1-4.11,6.34A8.26,8.26,0,0,1,38.13,109a9,9,0,0,1,.9-.84,2.74,2.74,0,0,0-1.55.27.73.73,0,0,0-.34.69,2.15,2.15,0,0,0,.55,1.13,7.54,7.54,0,0,0,2.45,1.89,8.88,8.88,0,0,0,3.59,1.09,3.37,3.37,0,0,0,1.34-.14.76.76,0,0,0,.54-.67,1.92,1.92,0,0,0-.64-1.32c0,.47,0,.93,0,1.4a8.07,8.07,0,0,1-.41-4.22,18.14,18.14,0,0,1,2.25-6.61C46.18,101.37,45.57,101.08,45,100.79Zm33.64,1a18.72,18.72,0,0,1,2,5.72,11,11,0,0,1,0,4.12,1.88,1.88,0,0,1-.26.73,4.24,4.24,0,0,1,0-1.33,2.06,2.06,0,0,0-.65,1.14.67.67,0,0,0,.17.62,1.79,1.79,0,0,0,1.22.39,8.3,8.3,0,0,0,3.87-1,7.79,7.79,0,0,0,2.53-1.87,2.43,2.43,0,0,0,.64-1.08.79.79,0,0,0-.27-.84,2.57,2.57,0,0,0-1.57-.3c.3.3.65.55.92.88a10.21,10.21,0,0,1-3.57-2.71A19.29,19.29,0,0,1,80.46,101Zm-57.66-.22a.58.58,0,0,0-.37.7A4.66,4.66,0,0,0,22,104.54a6.75,6.75,0,0,0,2.77,1.75,1.44,1.44,0,0,0,1.08,0,.68.68,0,0,0,.19-.75,4.39,4.39,0,0,0-.62-1.22,8.23,8.23,0,0,0-2.86-2.41A2.31,2.31,0,0,0,20.94,101.59Zm38.51,18.73a5.87,5.87,0,0,0-1.45.4,2.4,2.4,0,0,0-1.07.87,3.74,3.74,0,0,0,1.41.9,10.27,10.27,0,0,0,2.13.48,11.8,11.8,0,0,0,4.35-.25,3.94,3.94,0,0,0,2.08-1.12,3.34,3.34,0,0,0-1.77-1.06A12.26,12.26,0,0,0,59.45,120.32Z"/><path class="cls-1" d="M61.86,1.24a11.81,11.81,0,0,1,4.58.42c.27.09.6.26.65.57s-.32.45-.57.54a8.92,8.92,0,0,1-2.67.37,15,15,0,0,1-3.79-.34c-.34-.1-.75-.17-.94-.5s.13-.49.34-.6A6.11,6.11,0,0,1,61.86,1.24Zm-1.5.63a1.56,1.56,0,0,0-.67.33l.39.16a4.17,4.17,0,0,0,1.17.28,17.85,17.85,0,0,0,3.27.07A5.21,5.21,0,0,0,66,2.45l.48-.25a7.69,7.69,0,0,0-2.22-.5A12.41,12.41,0,0,0,60.36,1.87Z"/><path class="cls-1" d="M102.33,18.58a1.49,1.49,0,0,1,1.27.34,5.87,5.87,0,0,1,2.28,2.38.4.4,0,0,1-.26.58,2.14,2.14,0,0,1-1.24-.49,6.77,6.77,0,0,1-2.15-2.24A.42.42,0,0,1,102.33,18.58Zm.11.24.11.18a2,2,0,0,0,.46.82,10.83,10.83,0,0,0,1.11,1,3.08,3.08,0,0,0,1.26.67h0l.23,0a4.24,4.24,0,0,0-.9-1.32A4.54,4.54,0,0,0,102.44,18.82Z"/><path class="cls-1" d="M24.49,19.45a.51.51,0,0,1,.57.22c.07.13,0,.28-.06.4A5.68,5.68,0,0,1,23.27,22a3,3,0,0,1-1.57.78.34.34,0,0,1-.35-.27.68.68,0,0,1,.08-.46,4.3,4.3,0,0,1,.9-1.18A5.86,5.86,0,0,1,24.49,19.45Zm0,.37a4.4,4.4,0,0,0-1.23.7,5.31,5.31,0,0,0-1.61,2l.21,0,0,0a2.68,2.68,0,0,0,1.38-.72,4.39,4.39,0,0,0,1.56-1.93A1.91,1.91,0,0,0,24.47,19.82Z"/><path class="cls-1" d="M77.37,38.39a5.59,5.59,0,0,1,3.7.13,8.59,8.59,0,0,1,4,3.27A10.5,10.5,0,0,1,86,43.5a9.48,9.48,0,0,1,.39,6.69,6,6,0,0,1-1.87,2.75,5.08,5.08,0,0,1-3.07,1.13,6.22,6.22,0,0,1-3.18-.83,9.09,9.09,0,0,1-3.54-3.73,12,12,0,0,1-.91-2.3A9.64,9.64,0,0,1,73.63,43a6.84,6.84,0,0,1,1.3-2.86A5.21,5.21,0,0,1,77.37,38.39ZM77,39.51a4.39,4.39,0,0,0-2.15,2.32,7.12,7.12,0,0,0-.41,3.6,3.79,3.79,0,0,0,.06.67,9.07,9.07,0,0,0,1.29,3.36,7.09,7.09,0,0,0,4.06,3.15,4.51,4.51,0,0,0,3.48-.47,5,5,0,0,0,2-2.6,7.55,7.55,0,0,0,.23-4.16,8.66,8.66,0,0,0-3-4.94,5.65,5.65,0,0,0-2.45-1.18A4.83,4.83,0,0,0,77,39.51Z"/><path class="cls-1" d="M43.54,43.63a5.79,5.79,0,0,1,3.17.14,5.65,5.65,0,0,1,2.86,2.28,8.11,8.11,0,0,1,1.23,4.23,11.07,11.07,0,0,1-2.06,6.51A8.94,8.94,0,0,1,44.86,60a5.93,5.93,0,0,1-3.83.27,5.48,5.48,0,0,1-2.88-2,7.52,7.52,0,0,1-1.43-3.46,10.63,10.63,0,0,1,.76-5.54,10.51,10.51,0,0,1,3-4.09A7.66,7.66,0,0,1,43.54,43.63Zm.16,1A5.3,5.3,0,0,0,42,45.3a7.94,7.94,0,0,0-2.58,2.38,9.4,9.4,0,0,0-1.73,5.19A6.82,6.82,0,0,0,38.84,57a4.7,4.7,0,0,0,2.72,1.87,5.18,5.18,0,0,0,3.27-.33,7.59,7.59,0,0,0,2.78-2.12,9.41,9.41,0,0,0,2.12-5.25l.07,0a1.68,1.68,0,0,1,0-.67,6.25,6.25,0,0,0-1.14-4.23,4.52,4.52,0,0,0-2.29-1.57A5.36,5.36,0,0,0,43.7,44.66Z"/><path class="cls-1" d="M123.12,58.7a.33.33,0,0,1,.37.09,1.3,1.3,0,0,1,.32.57,7.93,7.93,0,0,1,.32,2.37A8,8,0,0,1,123.7,65c-.1.23-.26.49-.53.52a.89.89,0,0,1-.47-.52,5,5,0,0,1-.24-1,12.07,12.07,0,0,1,.15-4.28A1.43,1.43,0,0,1,123.12,58.7Zm-.08.69a8.1,8.1,0,0,0-.37,3,6.08,6.08,0,0,0,.36,2.36l.18.31a3.35,3.35,0,0,0,.4-1.19,11.91,11.91,0,0,0,.13-3,3.87,3.87,0,0,0-.52-1.79Z"/><path class="cls-1" d="M2,60.54c.21-.12.46.05.56.24a5.29,5.29,0,0,1,.48,2.29,11.4,11.4,0,0,1-.34,3.73,1.05,1.05,0,0,1-.48.69c-.2.06-.37-.1-.49-.24a2.81,2.81,0,0,1-.4-1.17,13.91,13.91,0,0,1-.15-2.81A7.28,7.28,0,0,1,1.6,61.2,1.4,1.4,0,0,1,2,60.54Zm-.27,1.63a11.19,11.19,0,0,0-.17,2.45,5.12,5.12,0,0,0,.57,2.49,1,1,0,0,0,.19-.45,2.6,2.6,0,0,0,.31-1.06,15.35,15.35,0,0,0,0-3.32,4,4,0,0,0-.21-.83c-.08-.17-.16-.35-.26-.52A3,3,0,0,0,1.77,62.17Z"/><path class="cls-1" d="M77.46,70.89a7.3,7.3,0,0,1,4.85-2.47,5.44,5.44,0,0,1,3.63,1.13,6.41,6.41,0,0,1,1.77,2.14,9,9,0,0,1,1,3.6A11.24,11.24,0,0,1,86.8,82a8.59,8.59,0,0,1-4,3.33,5.69,5.69,0,0,1-3.9.12,5.84,5.84,0,0,1-2.77-2,9,9,0,0,1-1.45-6.53A11,11,0,0,1,77.46,70.89Zm1.89-.44a8.52,8.52,0,0,0-1.92,2.14,7.13,7.13,0,0,0-.85,1.46,8.93,8.93,0,0,0-.33,6.84,5.73,5.73,0,0,0,1.85,2.49,4.65,4.65,0,0,0,3.05.92,5.71,5.71,0,0,0,3.07-1.14,8.13,8.13,0,0,0,2.22-2.49A9.33,9.33,0,0,0,87.54,74a6.25,6.25,0,0,0-1.26-2.6,6,6,0,0,0-.59-.64,4.54,4.54,0,0,0-2.89-1.36A5.13,5.13,0,0,0,79.35,70.45Z"/><path class="cls-1" d="M41.66,69.83a7.07,7.07,0,0,1,4.34.09,10.41,10.41,0,0,1,4.82,3.44A9.67,9.67,0,0,1,53,79.17a7.65,7.65,0,0,1-.14,1.51,5.68,5.68,0,0,1-1.5,2.85,5.49,5.49,0,0,1-3.18,1.56,8.29,8.29,0,0,1-5.7-1.51,10.86,10.86,0,0,1-3.88-4.68,8.52,8.52,0,0,1-.7-4.34,6,6,0,0,1,1.21-3A5.33,5.33,0,0,1,41.66,69.83Zm1.3.75a5.33,5.33,0,0,0-2,.68,4.31,4.31,0,0,0-1.9,2.32,5.86,5.86,0,0,0,.11,3.94c.17.39.3.81.5,1.19a7.46,7.46,0,0,0,1.05,1.76,8.65,8.65,0,0,0,4.9,3.25,5.67,5.67,0,0,0,3.31-.21,4.63,4.63,0,0,0,2.26-2,5.68,5.68,0,0,0,.68-3.18,8.21,8.21,0,0,0-1.29-3.8A9.15,9.15,0,0,0,46.29,71,6.33,6.33,0,0,0,43,70.58Z"/><path class="cls-1" d="M105.21,101.58c.29-.18.84,0,.69.43a5.3,5.3,0,0,1-2.23,2.43,2,2,0,0,1-1.17.45.37.37,0,0,1-.31-.52,4.13,4.13,0,0,1,1-1.4A5.79,5.79,0,0,1,105.21,101.58Zm.14.34a2.19,2.19,0,0,0-1,.48,10.2,10.2,0,0,0-1.21,1.06,2.39,2.39,0,0,0-.52.81h0c0,.11-.09.21-.12.31a3.66,3.66,0,0,0,1.52-.74,5.57,5.57,0,0,0,1.64-2A.62.62,0,0,0,105.35,101.92Z"/><path class="cls-1" d="M21.54,102.49a1,1,0,0,1,.8.14,7.47,7.47,0,0,1,2.29,1.93,1.66,1.66,0,0,1,.46,1,.53.53,0,0,1-.63.25,3.62,3.62,0,0,1-1.13-.6,5.44,5.44,0,0,1-1.94-2.1A.43.43,0,0,1,21.54,102.49Zm.09.28a5,5,0,0,0,1.48,1.85,3.35,3.35,0,0,0,1.67.86,2.59,2.59,0,0,0-.17-.38,4.14,4.14,0,0,0-1.21-1.39,3.3,3.3,0,0,0-1.33-.82v0A3.29,3.29,0,0,0,21.63,102.77Z"/><path class="cls-1" d="M60.76,120.93a12.84,12.84,0,0,1,3.86.29,1.43,1.43,0,0,1,.73.35c.07.08.15.18.11.29a.87.87,0,0,1-.61.52,10,10,0,0,1-3.09.32,7,7,0,0,1-2.89-.51c-.2-.09-.41-.27-.38-.51s.24-.29.4-.38A5.15,5.15,0,0,1,60.76,120.93Zm-1.47.64h0a.61.61,0,0,0-.21.24,5.94,5.94,0,0,0,2.16.47,9.88,9.88,0,0,0,2.82-.11,2.9,2.9,0,0,0,.91-.32l-.24-.18a3.16,3.16,0,0,0-1.28-.34c-.84-.06-1.67-.08-2.51-.06A5.23,5.23,0,0,0,59.29,121.57Z"/><path class="cls-2" d="M61.4.81a15.09,15.09,0,0,1,5.1.29,7.71,7.71,0,0,1,1.59.56,1.42,1.42,0,0,1,.79.77,1.48,1.48,0,0,1-.9.88A10.33,10.33,0,0,1,65.13,4a15.42,15.42,0,0,1-6-.45,3.3,3.3,0,0,1-1.82-1.13,2.31,2.31,0,0,1,.76-.73A9.18,9.18,0,0,1,61.4.81Zm.46.43a6.11,6.11,0,0,0-2.4.46c-.21.11-.48.35-.34.6s.6.4.94.5a15,15,0,0,0,3.79.34,8.92,8.92,0,0,0,2.67-.37c.25-.09.53-.25.57-.54s-.38-.48-.65-.57A11.81,11.81,0,0,0,61.86,1.24Z"/><path class="cls-2" d="M60.36,1.87A12.41,12.41,0,0,1,64.3,1.7a7.69,7.69,0,0,1,2.22.5L66,2.45a8.23,8.23,0,0,0-3.29-.55,7.12,7.12,0,0,0-2.67.46l-.39-.16A1.56,1.56,0,0,1,60.36,1.87Z"/><path class="cls-2" d="M60.75,5.57a4.11,4.11,0,0,1,.78.07,9.21,9.21,0,0,0,2.57.1,6.89,6.89,0,0,1,1.36-.13,10.89,10.89,0,0,0-.9,3,17.17,17.17,0,0,0,1.17,9.52,20.24,20.24,0,0,0,3.07,4.7,13.7,13.7,0,0,0,1,1.14,17.5,17.5,0,0,1-1.75-.16,38,38,0,0,0-3.85-.2,47,47,0,0,0-6,.25,10.5,10.5,0,0,1-1.77.16A16.78,16.78,0,0,0,60,19.56,17.2,17.2,0,0,0,61.86,9,9.75,9.75,0,0,0,60.75,5.57Z"/><path class="cls-2" d="M41.59,11.17a7.4,7.4,0,0,1,3.56-.58h.48A2,2,0,0,1,45,12.17a6.76,6.76,0,0,0,0-1.35,8,8,0,0,0-.42,3.34,18,18,0,0,0,2.86,8.31c-.69.26-1.36.58-2,.86a21.66,21.66,0,0,0-2.93-5.57,12,12,0,0,0-1.5-1.68,11,11,0,0,0-2.75-1.89c.27.34.65.56.94.88a3.93,3.93,0,0,1-1.56-.21,4.19,4.19,0,0,1,.7-1.38A8.48,8.48,0,0,1,41.59,11.17Z"/><path class="cls-2" d="M79.68,11.1l.67-.29c0,.46,0,.92,0,1.38A3.21,3.21,0,0,1,79.68,11.1Z"/><path class="cls-2" d="M80.43,10.79a7.33,7.33,0,0,1,4.13,1A8.54,8.54,0,0,1,87.2,13.8c.27.3.47.65.72,1h0a3.18,3.18,0,0,1-1.72.29c.29-.27.61-.5.88-.79A10.74,10.74,0,0,0,82.9,17.8a20.12,20.12,0,0,0-2.81,5.3l-2-.82a19.7,19.7,0,0,0,2.49-6.15,12.28,12.28,0,0,0,.16-4.1C80.65,11.61,80.52,11.21,80.43,10.79Z"/><path class="cls-2" d="M101.61,18a2.4,2.4,0,0,1,1.5.27,7.14,7.14,0,0,1,3.27,3,1.82,1.82,0,0,1,.3,1.06.57.57,0,0,1-.51.5,2.4,2.4,0,0,1-1.18-.23,8,8,0,0,1-2.35-1.63,5,5,0,0,1-1.41-2.18A.59.59,0,0,1,101.61,18Zm.72.59a.42.42,0,0,0-.1.57,6.77,6.77,0,0,0,2.15,2.24,2.14,2.14,0,0,0,1.24.49.4.4,0,0,0,.26-.58,5.87,5.87,0,0,0-2.28-2.38A1.49,1.49,0,0,0,102.33,18.58Z"/><path class="cls-2" d="M25,18.89a1,1,0,0,1,.88.18.75.75,0,0,1,.07.7A5,5,0,0,1,24.4,22,7,7,0,0,1,22,23.57a2.71,2.71,0,0,1-.85.15.6.6,0,0,1-.6-.5,1.9,1.9,0,0,1,.21-.88,6.11,6.11,0,0,1,1.6-2A6.08,6.08,0,0,1,25,18.89Zm-.54.56a5.86,5.86,0,0,0-2.16,1.44,4.3,4.3,0,0,0-.9,1.18.68.68,0,0,0-.08.46.34.34,0,0,0,.35.27A3,3,0,0,0,23.27,22,5.68,5.68,0,0,0,25,20.07c.05-.12.13-.27.06-.4A.51.51,0,0,0,24.49,19.45Z"/><path class="cls-2" d="M102.44,18.82a4.54,4.54,0,0,1,2.28,1.43,4.24,4.24,0,0,1,.9,1.32l-.23,0h0a6.77,6.77,0,0,0-1.91-2,4.47,4.47,0,0,0-.92-.48Z"/><path class="cls-2" d="M23.24,20.52a4.4,4.4,0,0,1,1.23-.7l.23,0c-.31.22-.66.38-1,.61a7.38,7.38,0,0,0-1.87,1.95l0,0-.21,0A5.31,5.31,0,0,1,23.24,20.52Z"/><path class="cls-2" d="M101.17,21.2c.21.07.33.27.47.42a16.32,16.32,0,0,0,1.69,1.53,13.76,13.76,0,0,0-4.07,3.49,15,15,0,0,0-2.84,5.22A14.64,14.64,0,0,0,96,34a9.21,9.21,0,0,0-.12,1.66c.07,1,.12,2.08.24,3.12l0,.13c-.31-.16-.49-.49-.72-.74a40.2,40.2,0,0,0-8.58-7.68,1.82,1.82,0,0,1-.31-.31c.58.05,1.16,0,1.73,0a12.64,12.64,0,0,0,3.5-.64A14.7,14.7,0,0,0,97,26.65,13.66,13.66,0,0,0,101.17,21.2Z"/><path class="cls-2" d="M36.72,30a41.12,41.12,0,0,1,20.58-8.6l.33,0a17,17,0,0,1-2,2.39,3.38,3.38,0,0,1-.74.67c-.91.13-1.81.36-2.71.58a40.86,40.86,0,0,0-11.62,5.14,7.55,7.55,0,0,1-1.16.69,22.25,22.25,0,0,1-2.9-.59A1.43,1.43,0,0,1,36.72,30Z"/><path class="cls-2" d="M69,21.52a12.2,12.2,0,0,1,1.79.24,42.06,42.06,0,0,1,17.45,7.65l.42.34a17.69,17.69,0,0,1-2.28.35,4,4,0,0,1-1.29-.66,41.34,41.34,0,0,0-11.61-4.72,9.57,9.57,0,0,0-1.91-.34A21.78,21.78,0,0,1,69,21.52Z"/><path class="cls-2" d="M25,23.36c.4-.33.73-.73,1.13-1.05a9,9,0,0,0,1.43,2.49,16.48,16.48,0,0,0,7.12,5.41,17.65,17.65,0,0,0,3.93.9l.21.06a2.83,2.83,0,0,1-.76.66,44.58,44.58,0,0,0-6,5.1,4,4,0,0,1-.79.75c0-.52.08-1,0-1.56a14.31,14.31,0,0,0-.68-3.79,15.39,15.39,0,0,0-1.14-2.47,15.17,15.17,0,0,0-5.46-5.7A7.85,7.85,0,0,1,25,23.36Z"/><path class="cls-2" d="M50.1,29.42a2.75,2.75,0,0,1,1.49.36,1.37,1.37,0,0,1,.54,1.54,3.46,3.46,0,0,1-.84,1.35,11.38,11.38,0,0,1-2.55,1.92A15.66,15.66,0,0,1,46,35.86a8.9,8.9,0,0,1-3.3.61,2,2,0,0,1-1.51-.62,1.69,1.69,0,0,1-.28-1.14,2.21,2.21,0,0,1,.64-1.28,10,10,0,0,1,2.53-2A17.91,17.91,0,0,1,47.23,30,10,10,0,0,1,50.1,29.42Z"/><path class="cls-2" d="M29.73,37.05a9.48,9.48,0,0,1,1.14-1.31A22,22,0,0,1,31,38c-.32.49-.74.9-1.1,1.36A40.92,40.92,0,0,0,21.8,55.67c0,.11-.07.25-.19.31a39.33,39.33,0,0,1,3.6-11.59A45,45,0,0,1,29.73,37.05Z"/><path class="cls-2" d="M41.11,37a.57.57,0,0,1,.62.2.7.7,0,0,1,0,.55,2.82,2.82,0,0,1-.56,1A5.59,5.59,0,0,1,39.64,40a1.82,1.82,0,0,1-1.06.3.51.51,0,0,1-.48-.38,1.18,1.18,0,0,1,.24-.92,5.08,5.08,0,0,1,2-1.67A4.36,4.36,0,0,1,41.11,37Z"/><path class="cls-2" d="M96.34,37.56a6.12,6.12,0,0,1,.84,1.06,40.62,40.62,0,0,1,5.59,11.17,18,18,0,0,1,.6,2.18,2.4,2.4,0,0,0-.11.23c-.22-.5-.37-1-.57-1.53a42.58,42.58,0,0,0-2.9-6.1,45,45,0,0,0-3.51-5.23C96.32,38.74,96.33,38.15,96.34,37.56Z"/><path class="cls-2" d="M11.2,45.29A9.58,9.58,0,0,1,13,40.2a33.22,33.22,0,0,0,9.77,6.2l-.56,1.38a17.91,17.91,0,0,0-6.17-1.93,11,11,0,0,0-2.75,0,3.78,3.78,0,0,0-1.39.41,11.69,11.69,0,0,0,1.45,0,2.22,2.22,0,0,1-1.35.66.73.73,0,0,1-.64-.45A2.76,2.76,0,0,1,11.2,45.29Z"/><path class="cls-2" d="M109.75,44a38.7,38.7,0,0,0,4.64-3.31,9.72,9.72,0,0,1,1.51,4.44,3.43,3.43,0,0,1-.14,1.27.78.78,0,0,1-.73.56,2.26,2.26,0,0,1-1.31-.66,11.69,11.69,0,0,0,1.45,0,4.39,4.39,0,0,0-1.63-.44,12.55,12.55,0,0,0-4,.23,18.64,18.64,0,0,0-5.74,2.28c-.2-.43-.34-.89-.53-1.33.25-.07.51-.15.75-.24A36.67,36.67,0,0,0,109.75,44Z"/><path class="cls-3" d="M60.08,2.36a7.12,7.12,0,0,1,2.67-.46A8.23,8.23,0,0,1,66,2.45a5.21,5.21,0,0,1-1.52.26,17.85,17.85,0,0,1-3.27-.07A4.17,4.17,0,0,1,60.08,2.36Z"/><path class="cls-3" d="M102.55,19a4.47,4.47,0,0,1,.92.48,6.77,6.77,0,0,1,1.91,2,3.08,3.08,0,0,1-1.26-.67,10.83,10.83,0,0,1-1.11-1A2,2,0,0,1,102.55,19Z"/><path class="cls-3" d="M24.47,19.82a1.91,1.91,0,0,1,.33-.06,4.39,4.39,0,0,1-1.56,1.93,2.68,2.68,0,0,1-1.38.72,7.38,7.38,0,0,1,1.87-1.95c.31-.23.66-.39,1-.61Z"/><path class="cls-3" d="M122.67,62.41a8.1,8.1,0,0,1,.37-3,6.18,6.18,0,0,1,.4,1.86,8.41,8.41,0,0,1-.41,3.52A6.08,6.08,0,0,1,122.67,62.41Z"/><path class="cls-3" d="M2.46,61.45a4,4,0,0,1,.21.83,15.35,15.35,0,0,1,0,3.32,2.6,2.6,0,0,1-.31,1.06A8,8,0,0,1,2,63.51,6.65,6.65,0,0,1,2.46,61.45Z"/><path class="cls-3" d="M104.33,102.4a2.19,2.19,0,0,1,1-.48,5.63,5.63,0,0,1-2.75,2.35,2.39,2.39,0,0,1,.52-.81A10.2,10.2,0,0,1,104.33,102.4Z"/><path class="cls-3" d="M22.07,102.89a3.3,3.3,0,0,1,1.33.82,4.14,4.14,0,0,1,1.21,1.39A4.67,4.67,0,0,1,22.07,102.89Z"/><path class="cls-3" d="M59.29,121.57a5.23,5.23,0,0,1,1.62-.31c.84,0,1.67,0,2.51.06a3.16,3.16,0,0,1,1.28.34,8.82,8.82,0,0,1-3.11.32A7.78,7.78,0,0,1,59.29,121.57Z"/><path class="cls-4" d="M60.26,4.69a24.74,24.74,0,0,0,5.64.06,4,4,0,0,1-.42.86h0a6.89,6.89,0,0,0-1.36.13,9.21,9.21,0,0,1-2.57-.1,4.11,4.11,0,0,0-.78-.07h0A5,5,0,0,1,60.26,4.69Z"/><path class="cls-4" d="M101.17,21.2a3,3,0,0,1,.27-.73c.3.28.54.61.84.89a15.37,15.37,0,0,0,1.79,1.43c-.24.13-.49.25-.74.36a16.32,16.32,0,0,1-1.69-1.53C101.5,21.47,101.38,21.27,101.17,21.2Z"/><path class="cls-4" d="M25.49,21.73a2.32,2.32,0,0,1,.35-.35c.12.31.22.62.32.93-.4.32-.73.72-1.13,1.05a7.85,7.85,0,0,0-.93.8l-.87-.41A6.65,6.65,0,0,1,24.1,23,9.48,9.48,0,0,0,25.49,21.73Z"/><path class="cls-4" d="M58.16,23.87a47,47,0,0,1,6-.25,38,38,0,0,1,3.85.2,17.5,17.5,0,0,0,1.75.16,9.74,9.74,0,0,0,4.89,3c-.52-.43-1.17-.67-1.65-1.14s-1-.94-1.5-1.44a9.57,9.57,0,0,1,1.91.34,41.34,41.34,0,0,1,11.61,4.72,4,4,0,0,0,1.29.66l.09.11a1.82,1.82,0,0,0,.31.31,40.2,40.2,0,0,1,8.58,7.68c.23.25.41.58.72.74l0-.13a2.37,2.37,0,0,0,.18.53,45,45,0,0,1,3.51,5.23,42.58,42.58,0,0,1,2.9,6.1c.2.51.35,1,.57,1.53a2.4,2.4,0,0,1,.11-.23,32.08,32.08,0,0,1,1,5.15A48.5,48.5,0,0,1,99.65,53a8.22,8.22,0,0,0,1,1.47,16.35,16.35,0,0,0,2.07,2.33c.79.65,1.6,1.26,2.44,1.85a11.42,11.42,0,0,0,2,1.12,17.7,17.7,0,0,0,7.93,1.47A12.82,12.82,0,0,0,120.22,60c0,.59-.18,1.17-.21,1.76a14.59,14.59,0,0,0,.1,2.47,14.64,14.64,0,0,0-4.77-1,13,13,0,0,0-2.57.11,17.05,17.05,0,0,0-6.16,1.89A18.45,18.45,0,0,0,104.12,67a13.13,13.13,0,0,0-2.38,2.33,11.55,11.55,0,0,0-1.58,2.23,16.44,16.44,0,0,0,1.48-1.41c.35-.32.68-.66,1-1a5,5,0,0,1-.33,1.36A41,41,0,0,1,76.91,96.4a41.15,41.15,0,0,1-40-7.3A41,41,0,0,1,24.75,71.72a3.13,3.13,0,0,1-.12-.53c.88.7,1.61,1.59,2.48,2.3a7.25,7.25,0,0,0-1-1.55,20,20,0,0,0-1.59-1.84A18.06,18.06,0,0,0,21.86,68,15.84,15.84,0,0,0,17,65.65a19.14,19.14,0,0,0-5.26-.78,16.19,16.19,0,0,0-4.65.61c-.33.09-.65.2-1,.3a3.75,3.75,0,0,1-.67,0,11.71,11.71,0,0,0,.06-3.13c0-.31-.1-.63-.14-.94a15.28,15.28,0,0,0,5.75,1A18.81,18.81,0,0,0,16,62.11,14.88,14.88,0,0,0,21,59.85a16.26,16.26,0,0,0,3.72-3.25,11.79,11.79,0,0,0,1.68-2.3,16.86,16.86,0,0,0-1.23,1.16c-.8.77-1.63,1.51-2.5,2.21a9.51,9.51,0,0,1-1.42,1c.09-.9.13-1.82.31-2.71h0c.12-.06.15-.2.19-.31A40.92,40.92,0,0,1,29.94,39.4c.36-.46.78-.87,1.1-1.36,0,.35,0,.71.06,1.05a7.29,7.29,0,0,0,.22-1.4h0a4,4,0,0,0,.79-.75,44.58,44.58,0,0,1,6-5.1,2.83,2.83,0,0,0,.76-.66l-.21-.06a11.15,11.15,0,0,0,2.45,0c-.56-.12-1.13-.18-1.7-.26a7.55,7.55,0,0,0,1.16-.69A40.86,40.86,0,0,1,52.17,25c.9-.22,1.8-.45,2.71-.58-.83.94-1.86,1.69-2.73,2.6a9.29,9.29,0,0,0,1.76-1.07A19.92,19.92,0,0,0,56.38,24h0A10.5,10.5,0,0,0,58.16,23.87ZM50.1,29.42a10,10,0,0,0-2.87.54,17.91,17.91,0,0,0-3.17,1.48,10,10,0,0,0-2.53,2,2.21,2.21,0,0,0-.64,1.28,1.69,1.69,0,0,0,.28,1.14,2,2,0,0,0,1.51.62,8.9,8.9,0,0,0,3.3-.61,15.66,15.66,0,0,0,2.76-1.27,11.38,11.38,0,0,0,2.55-1.92,3.46,3.46,0,0,0,.84-1.35,1.37,1.37,0,0,0-.54-1.54A2.75,2.75,0,0,0,50.1,29.42Zm-9,7.57a4.36,4.36,0,0,0-.77.33,5.08,5.08,0,0,0-2,1.67,1.18,1.18,0,0,0-.24.92.51.51,0,0,0,.48.38,1.82,1.82,0,0,0,1.06-.3,5.59,5.59,0,0,0,1.53-1.29,2.82,2.82,0,0,0,.56-1,.7.7,0,0,0,0-.55A.57.57,0,0,0,41.11,37Zm36.26,1.4a5.21,5.21,0,0,0-2.44,1.72A6.84,6.84,0,0,0,73.63,43a9.64,9.64,0,0,0,.14,4.24,1.14,1.14,0,0,0,0,.32,10.86,10.86,0,0,0,1.16,3,9.29,9.29,0,0,0,3.51,3.58,6.27,6.27,0,0,0,3.57.81,5.16,5.16,0,0,0,3.14-1.43,6.36,6.36,0,0,0,1.67-2.78,9.69,9.69,0,0,0-.54-6.66A1.64,1.64,0,0,0,86,43.5,10.5,10.5,0,0,0,85,41.79a8.59,8.59,0,0,0-4-3.27A5.59,5.59,0,0,0,77.37,38.39ZM43.54,43.63a7.66,7.66,0,0,0-3,1.54,10.51,10.51,0,0,0-3,4.09,10.63,10.63,0,0,0-.76,5.54c0,.11,0,.22,0,.34a6.87,6.87,0,0,0,1.88,4.78,5.37,5.37,0,0,0,2.89,1.46,6.66,6.66,0,0,0,4-.68,10,10,0,0,0,4.1-4,10.11,10.11,0,0,0,1.37-6,.73.73,0,0,0-.1-.39,8.11,8.11,0,0,0-1.23-4.23,5.65,5.65,0,0,0-2.86-2.28A5.79,5.79,0,0,0,43.54,43.63Zm50,13.43a3,3,0,0,0-2.07,2.15A6.83,6.83,0,0,0,91.39,63a7.06,7.06,0,0,0,1.71,3.28A3.66,3.66,0,0,0,95,67.36a2.32,2.32,0,0,0,1.9-.49,3.92,3.92,0,0,0,1.25-2.3,7.61,7.61,0,0,0-.45-4.24,6.41,6.41,0,0,0-1.62-2.42A3,3,0,0,0,93.53,57.06ZM92.12,67.52a1.24,1.24,0,0,0-.7,1.14A2.53,2.53,0,0,0,92,70.54a1.08,1.08,0,0,0,.92.39.88.88,0,0,0,.64-.53A2.19,2.19,0,0,0,93.73,69,2.31,2.31,0,0,0,93,67.72.91.91,0,0,0,92.12,67.52ZM77.46,70.89a11,11,0,0,0-2.77,6,9,9,0,0,0,1.45,6.53.66.66,0,0,0,.06.2,5.79,5.79,0,0,0,3.31,2.74,5.67,5.67,0,0,0,3.87-.26,8.59,8.59,0,0,0,3.87-3.48,10.75,10.75,0,0,0,1.52-6.87,1,1,0,0,0-.11-.41,9,9,0,0,0-1-3.6,6.41,6.41,0,0,0-1.77-2.14,5.44,5.44,0,0,0-3.63-1.13A7.3,7.3,0,0,0,77.46,70.89Zm-35.8-1.06a5.33,5.33,0,0,0-2.53,1.75,6,6,0,0,0-1.21,3,2.17,2.17,0,0,0-.13.76,9.86,9.86,0,0,0,1.84,6.05A11.27,11.27,0,0,0,44,85.18a7.4,7.4,0,0,0,4.06.72,5.19,5.19,0,0,0,2.81-1A5.11,5.11,0,0,0,52.71,82a4.43,4.43,0,0,0,.17-1.3A7.65,7.65,0,0,0,53,79.17a9.67,9.67,0,0,0-2.2-5.81A10.41,10.41,0,0,0,46,69.92,7.07,7.07,0,0,0,41.66,69.83Z"/><path class="cls-4" d="M77,39.51a4.83,4.83,0,0,1,3.16-.25c.38.21.81.32,1.18.55a7.64,7.64,0,0,1,3.55,5.09,6.58,6.58,0,0,1-.3,3.8,4.4,4.4,0,0,1-2,2.26,4.33,4.33,0,0,1-3.27.3A6.79,6.79,0,0,1,75.41,48a8.05,8.05,0,0,1-.63-1.44c-.12-.36-.17-.74-.31-1.09a7.12,7.12,0,0,1,.41-3.6A4.39,4.39,0,0,1,77,39.51Z"/><path class="cls-4" d="M43.7,44.66a5.36,5.36,0,0,1,2.64,0,4.52,4.52,0,0,1,2.29,1.57,6.25,6.25,0,0,1,1.14,4.23,1.68,1.68,0,0,0,0,.67l-.07,0,0-.05a9.14,9.14,0,0,1-1,2.83,7.92,7.92,0,0,1-1.89,2.26,6,6,0,0,1-3.37,1.39A4.46,4.46,0,0,1,40,56.34a5.52,5.52,0,0,1-1.5-3.22,8.13,8.13,0,0,1,1.21-5.24,7.52,7.52,0,0,1,2.92-2.76C43,44.94,43.36,44.83,43.7,44.66Z"/><path class="cls-4" d="M122.82,57.18a.57.57,0,0,1,.62.19,3.81,3.81,0,0,1,.76,1.43,12.17,12.17,0,0,1,.17,6.14,5.4,5.4,0,0,1-.75,1.78.83.83,0,0,1-.63.4.66.66,0,0,1-.48-.26,3.06,3.06,0,0,1-.69-1.26,12.35,12.35,0,0,1-.46-3.68A9.62,9.62,0,0,1,122.1,58,1.72,1.72,0,0,1,122.82,57.18Zm.3,1.52a1.43,1.43,0,0,0-.51,1,12.07,12.07,0,0,0-.15,4.28,5,5,0,0,0,.24,1,.89.89,0,0,0,.47.52c.27,0,.43-.29.53-.52a8,8,0,0,0,.43-3.23,7.93,7.93,0,0,0-.32-2.37,1.3,1.3,0,0,0-.32-.57A.33.33,0,0,0,123.12,58.7Z"/><path class="cls-4" d="M2.21,58.83a.66.66,0,0,1,.73.21,4.13,4.13,0,0,1,.86,1.77,14,14,0,0,1,.34,3.87,9,9,0,0,1-.81,3.57,1.51,1.51,0,0,1-.78.81.76.76,0,0,1-.76-.37,6.09,6.09,0,0,1-1-2.64,11.73,11.73,0,0,1,.43-5.88A2.25,2.25,0,0,1,2.21,58.83ZM2,60.54a1.4,1.4,0,0,0-.44.66,7.28,7.28,0,0,0-.38,2.07,13.91,13.91,0,0,0,.15,2.81,2.81,2.81,0,0,0,.4,1.17c.12.14.29.3.49.24a1.05,1.05,0,0,0,.48-.69,11.4,11.4,0,0,0,.34-3.73,5.29,5.29,0,0,0-.48-2.29C2.5,60.59,2.25,60.42,2,60.54Z"/><path class="cls-4" d="M123,59.39l.18-.33a3.87,3.87,0,0,1,.52,1.79,11.91,11.91,0,0,1-.13,3,3.35,3.35,0,0,1-.4,1.19l-.18-.31a8.41,8.41,0,0,0,.41-3.52A6.18,6.18,0,0,0,123,59.39Z"/><path class="cls-4" d="M1.77,62.17a3,3,0,0,1,.43-1.24c.1.17.18.35.26.52A6.65,6.65,0,0,0,2,63.51a8,8,0,0,0,.33,3.15,1,1,0,0,1-.19.45,5.12,5.12,0,0,1-.57-2.49A11.19,11.19,0,0,1,1.77,62.17Z"/><path class="cls-4" d="M79.35,70.45a5.13,5.13,0,0,1,3.45-1.09,4.54,4.54,0,0,1,2.89,1.36,6,6,0,0,1,.59.64c.17.41.43.77.59,1.18a8.22,8.22,0,0,1-.52,6.93,7.14,7.14,0,0,1-1.95,2.28,5.19,5.19,0,0,1-3.14,1.12,4.39,4.39,0,0,1-2.76-1,5.75,5.75,0,0,1-1.9-3,8.29,8.29,0,0,1,.33-5.18c.15-.38.36-.74.5-1.13A8.52,8.52,0,0,1,79.35,70.45Z"/><path class="cls-4" d="M41,71.26a5.33,5.33,0,0,1,2-.68c.46,0,.92,0,1.37.09A7.33,7.33,0,0,1,47.44,72a8.05,8.05,0,0,1,3.21,4.69,5.4,5.4,0,0,1-.38,3.67,4.39,4.39,0,0,1-2.08,2,5.4,5.4,0,0,1-3.39.28,8,8,0,0,1-4.49-3,9.67,9.67,0,0,0-.65-.89c-.2-.38-.33-.8-.5-1.19a5.86,5.86,0,0,1-.11-3.94A4.31,4.31,0,0,1,41,71.26Z"/><path class="cls-5" d="M39.61,11.34A8.59,8.59,0,0,1,44.4,10a1.31,1.31,0,0,1,1.21.63h-.46a7.4,7.4,0,0,0-3.56.58,8.48,8.48,0,0,0-3.37,2.31,4.19,4.19,0,0,0-.7,1.38,1,1,0,0,1-.26-1.29A6.14,6.14,0,0,1,39.61,11.34Z"/><path class="cls-5" d="M79.9,10.28a2.09,2.09,0,0,1,1.19-.34,8.41,8.41,0,0,1,4,1.07A6.85,6.85,0,0,1,88,13.49a1.07,1.07,0,0,1-.08,1.27c-.25-.31-.45-.66-.72-1a8.54,8.54,0,0,0-2.64-2.06,7.33,7.33,0,0,0-4.13-1l-.08,0-.67.29A.93.93,0,0,1,79.9,10.28Z"/><path class="cls-5" d="M14.49,38.75a1.38,1.38,0,0,1,1.12-.27.82.82,0,0,1,.5.53,4,4,0,0,1,.18,1.37c-.3-.3-.55-.64-.87-.92a8.79,8.79,0,0,0,1.88,2.71A18.5,18.5,0,0,0,23,46l-.21.43A33.22,33.22,0,0,1,13,40.2,5.55,5.55,0,0,1,14.49,38.75Z"/><path class="cls-5" d="M111.13,38.76a.75.75,0,0,1,.73-.31,2,2,0,0,1,1,.46,6.49,6.49,0,0,1,1.54,1.76A38.7,38.7,0,0,1,109.75,44a36.67,36.67,0,0,1-5.69,2.81c-.24.09-.5.17-.75.24-.1-.22-.19-.44-.28-.66a20.42,20.42,0,0,0,5.4-3,10.43,10.43,0,0,0,3.26-4,12.49,12.49,0,0,0-.85.93A2.73,2.73,0,0,1,111.13,38.76Z"/><path class="cls-6" d="M80.19,39.26a5.65,5.65,0,0,1,2.45,1.18,8.66,8.66,0,0,1,3,4.94,7.55,7.55,0,0,1-.23,4.16,5,5,0,0,1-2,2.6,4.51,4.51,0,0,1-3.48.47,7.09,7.09,0,0,1-4.06-3.15,9.07,9.07,0,0,1-1.29-3.36,3.79,3.79,0,0,1-.06-.67c.14.35.19.73.31,1.09A8.05,8.05,0,0,0,75.41,48a6.79,6.79,0,0,0,3.93,3.3,4.33,4.33,0,0,0,3.27-.3,4.4,4.4,0,0,0,2-2.26,6.58,6.58,0,0,0,.3-3.8,7.64,7.64,0,0,0-3.55-5.09C81,39.58,80.57,39.47,80.19,39.26Z"/><path class="cls-6" d="M86,43.5a1.64,1.64,0,0,1,.33.57,9.69,9.69,0,0,1,.54,6.66,6.36,6.36,0,0,1-1.67,2.78A5.16,5.16,0,0,1,82,54.94a6.27,6.27,0,0,1-3.57-.81,9.29,9.29,0,0,1-3.51-3.58,10.86,10.86,0,0,1-1.16-3,1.14,1.14,0,0,1,0-.32,12,12,0,0,0,.91,2.3,9.09,9.09,0,0,0,3.54,3.73,6.22,6.22,0,0,0,3.18.83,5.08,5.08,0,0,0,3.07-1.13,6,6,0,0,0,1.87-2.75A9.48,9.48,0,0,0,86,43.5Z"/><path class="cls-6" d="M42,45.3a5.3,5.3,0,0,1,1.74-.64c-.34.17-.72.28-1.06.46a7.52,7.52,0,0,0-2.92,2.76,8.13,8.13,0,0,0-1.21,5.24A5.52,5.52,0,0,0,40,56.34a4.46,4.46,0,0,0,3.41,1.29,6,6,0,0,0,3.37-1.39A7.92,7.92,0,0,0,48.68,54a9.14,9.14,0,0,0,1-2.83l0,.05a9.41,9.41,0,0,1-2.12,5.25,7.59,7.59,0,0,1-2.78,2.12,5.18,5.18,0,0,1-3.27.33A4.7,4.7,0,0,1,38.84,57a6.82,6.82,0,0,1-1.19-4.16,9.4,9.4,0,0,1,1.73-5.19A7.94,7.94,0,0,1,42,45.3Z"/><path class="cls-6" d="M50.8,50.28a.73.73,0,0,1,.1.39,10.11,10.11,0,0,1-1.37,6,10,10,0,0,1-4.1,4,6.66,6.66,0,0,1-4,.68,5.37,5.37,0,0,1-2.89-1.46,6.87,6.87,0,0,1-1.88-4.78c0-.12,0-.23,0-.34a7.52,7.52,0,0,0,1.43,3.46,5.48,5.48,0,0,0,2.88,2A5.93,5.93,0,0,0,44.86,60a8.94,8.94,0,0,0,3.88-3.16A11.07,11.07,0,0,0,50.8,50.28Z"/><path class="cls-6" d="M93.53,57.06a3,3,0,0,1,2.58.85,6.41,6.41,0,0,1,1.62,2.42,7.61,7.61,0,0,1,.45,4.24,3.92,3.92,0,0,1-1.25,2.3,2.32,2.32,0,0,1-1.9.49,3.66,3.66,0,0,1-1.93-1.12A7.06,7.06,0,0,1,91.39,63a6.83,6.83,0,0,1,.07-3.75A3,3,0,0,1,93.53,57.06Z"/><path class="cls-6" d="M120.22,60a2.14,2.14,0,0,1,.64-.36,21.19,21.19,0,0,0-.18,3c0,.65.09,1.3.12,1.95l-.68-.31v0a14.59,14.59,0,0,1-.1-2.47C120,61.15,120.2,60.57,120.22,60Z"/><path class="cls-6" d="M4.66,61.37a6.43,6.43,0,0,1,.71.32v0c0,.31.09.63.14.94a11.71,11.71,0,0,1-.06,3.13,3.75,3.75,0,0,0,.67,0c-.48.29-1,.54-1.48.81a21.4,21.4,0,0,0,.19-3.2C4.82,62.72,4.73,62,4.66,61.37Z"/><path class="cls-6" d="M92.12,67.52a.91.91,0,0,1,.85.2A2.31,2.31,0,0,1,93.73,69a2.19,2.19,0,0,1-.13,1.36.88.88,0,0,1-.64.53,1.08,1.08,0,0,1-.92-.39,2.53,2.53,0,0,1-.62-1.88A1.24,1.24,0,0,1,92.12,67.52Z"/><path class="cls-6" d="M102.69,69.17c.51-.44,1-.89,1.57-1.31a40.83,40.83,0,0,1-8,19c0-.61,0-1.22-.09-1.82a6.85,6.85,0,0,0-.34,2.07,11.83,11.83,0,0,0,.29,3.45,14.23,14.23,0,0,0,2.73,5.77,13.63,13.63,0,0,0,5.08,4.24,11.82,11.82,0,0,0-2.47,2.21h0c-.24-.59-.42-1.2-.71-1.76a16.06,16.06,0,0,0-5.27-5.51A13,13,0,0,0,92.4,94,17.47,17.47,0,0,0,89,93.22a9.85,9.85,0,0,0-2.92,0c1.14.26,2.33.3,3.47.59a40.39,40.39,0,0,1-9.79,6,41.28,41.28,0,0,1-12.34,3.23,29.28,29.28,0,0,1,2-2.3c.73-.78,1.57-1.44,2.27-2.25a6.33,6.33,0,0,0-1.75,1,14.84,14.84,0,0,0-2.26,1.85,16,16,0,0,0-2,2.23,15.38,15.38,0,0,0-2.39,5.45,17.08,17.08,0,0,0,0,7.79,10.55,10.55,0,0,0,1,2.39,22.21,22.21,0,0,0-4.39-.07,10.76,10.76,0,0,0,1-3.46,17.27,17.27,0,0,0-.41-7.08,14.38,14.38,0,0,0-2.6-5.29,21.52,21.52,0,0,0-2.27-2.31,12.85,12.85,0,0,0-3.33-2.34,4.08,4.08,0,0,0,.89.92,29.14,29.14,0,0,1,2.37,2.47,7.68,7.68,0,0,1,.5.63A41.62,41.62,0,0,1,43.1,98.39a39.49,39.49,0,0,1-5.57-3.55c1.2-.33,2.45-.4,3.66-.64a2,2,0,0,0-.83-.13,17.26,17.26,0,0,0-2.69.14c-.57.09-1.12.27-1.69.4a11.15,11.15,0,0,0-2.39.85,16.7,16.7,0,0,0-5,3.72,11.42,11.42,0,0,0-2.75,4.59,12.1,12.1,0,0,0-2.53-2.21,13.3,13.3,0,0,0,4.33-3.33,15.64,15.64,0,0,0,3.25-5.68,13.08,13.08,0,0,0,.62-4A6.18,6.18,0,0,0,31,86c0,.86,0,1.72-.11,2.58a18.3,18.3,0,0,1-2-2.47,41.4,41.4,0,0,1-7.2-17.22,29.5,29.5,0,0,1,2.91,2.31h0a3.13,3.13,0,0,0,.12.53A41,41,0,0,0,61.52,98.64,41.5,41.5,0,0,0,76.91,96.4a41,41,0,0,0,25.45-25.87A5,5,0,0,0,102.69,69.17Z"/><path class="cls-6" d="M43,70.58a6.33,6.33,0,0,1,3.33.41,9.15,9.15,0,0,1,4.28,3.59,8.21,8.21,0,0,1,1.29,3.8,5.68,5.68,0,0,1-.68,3.18,4.63,4.63,0,0,1-2.26,2,5.67,5.67,0,0,1-3.31.21,8.65,8.65,0,0,1-4.9-3.25,7.46,7.46,0,0,1-1.05-1.76,9.67,9.67,0,0,1,.65.89,8,8,0,0,0,4.49,3,5.4,5.4,0,0,0,3.39-.28,4.39,4.39,0,0,0,2.08-2,5.4,5.4,0,0,0,.38-3.67A8.05,8.05,0,0,0,47.44,72a7.33,7.33,0,0,0-3.11-1.3C43.88,70.6,43.42,70.61,43,70.58Z"/><path class="cls-6" d="M86.28,71.36A6.25,6.25,0,0,1,87.54,74a9.33,9.33,0,0,1-1.1,6.71,8.13,8.13,0,0,1-2.22,2.49,5.71,5.71,0,0,1-3.07,1.14,4.65,4.65,0,0,1-3.05-.92,5.73,5.73,0,0,1-1.85-2.49,8.93,8.93,0,0,1,.33-6.84,7.13,7.13,0,0,1,.85-1.46c-.14.39-.35.75-.5,1.13a8.29,8.29,0,0,0-.33,5.18,5.75,5.75,0,0,0,1.9,3,4.39,4.39,0,0,0,2.76,1,5.19,5.19,0,0,0,3.14-1.12,7.14,7.14,0,0,0,1.95-2.28,8.22,8.22,0,0,0,.52-6.93C86.71,72.13,86.45,71.77,86.28,71.36Z"/><path class="cls-6" d="M37.79,75.32a2.17,2.17,0,0,1,.13-.76,8.52,8.52,0,0,0,.7,4.34,10.86,10.86,0,0,0,3.88,4.68,8.29,8.29,0,0,0,5.7,1.51,5.49,5.49,0,0,0,3.18-1.56,5.68,5.68,0,0,0,1.5-2.85,4.43,4.43,0,0,1-.17,1.3,5.11,5.11,0,0,1-1.83,2.88,5.19,5.19,0,0,1-2.81,1A7.4,7.4,0,0,1,44,85.18a11.27,11.27,0,0,1-4.38-3.81A9.86,9.86,0,0,1,37.79,75.32Z"/><path class="cls-6" d="M88.66,75.29a1,1,0,0,1,.11.41,10.75,10.75,0,0,1-1.52,6.87,8.59,8.59,0,0,1-3.87,3.48,5.67,5.67,0,0,1-3.87.26,5.79,5.79,0,0,1-3.31-2.74.66.66,0,0,1-.06-.2,5.84,5.84,0,0,0,2.77,2,5.69,5.69,0,0,0,3.9-.12,8.59,8.59,0,0,0,4-3.33A11.24,11.24,0,0,0,88.66,75.29Z"/><path class="cls-6" d="M101.88,80.61c.31-.71.64-1.4,1-2.11a20.83,20.83,0,0,0,5.61,2.73,12.67,12.67,0,0,0,5.5.5,2.13,2.13,0,0,0,.9-.3c-.46-.06-.92,0-1.38-.05a2.19,2.19,0,0,1,1.33-.61.75.75,0,0,1,.66.5,3.14,3.14,0,0,1,.15,1.14,8.12,8.12,0,0,1-.89,3.23,8.51,8.51,0,0,1-2.13,2.88,2.88,2.88,0,0,1-1.08.6.8.8,0,0,1-.86-.29,2.67,2.67,0,0,1-.26-1.55c.3.28.52.63.83.9a8.08,8.08,0,0,0-1.57-2.57,15.73,15.73,0,0,0-4-3.23A22.36,22.36,0,0,0,101.88,80.61Z"/><path class="cls-6" d="M22.12,79.84c.41-.22.81-.46,1.23-.67.26.64.59,1.24.85,1.88a19.94,19.94,0,0,0-4.86,2.85,12.58,12.58,0,0,0-1.95,1.91A8,8,0,0,0,16,88.18a9.39,9.39,0,0,0,.84-.94,2.55,2.55,0,0,1-.28,1.61.82.82,0,0,1-.91.25,3,3,0,0,1-1.07-.63,8.82,8.82,0,0,1-1.93-2.53,9.81,9.81,0,0,1-1-3,3.32,3.32,0,0,1,.14-1.74.73.73,0,0,1,.7-.46,2.08,2.08,0,0,1,1.23.6,12.75,12.75,0,0,0-1.38.07,7.23,7.23,0,0,0,3.45.36A16.55,16.55,0,0,0,22.12,79.84Z"/><path class="cls-6" d="M105.52,100.67a1.11,1.11,0,0,1,1,.11.67.67,0,0,1,.15.65,3.36,3.36,0,0,1-.66,1.37,7.19,7.19,0,0,1-3.16,2.45,2.23,2.23,0,0,1-1.13.2.54.54,0,0,1-.48-.42,1.93,1.93,0,0,1,.21-.94,6,6,0,0,1,1.45-1.84A6.81,6.81,0,0,1,105.52,100.67Zm-.31.91a5.79,5.79,0,0,0-2,1.39,4.13,4.13,0,0,0-1,1.4.37.37,0,0,0,.31.52,2,2,0,0,0,1.17-.45A5.3,5.3,0,0,0,105.9,102C106.05,101.63,105.5,101.4,105.21,101.58Z"/><path class="cls-6" d="M45,100.79c.61.29,1.22.58,1.85.84a18.14,18.14,0,0,0-2.25,6.61,8.07,8.07,0,0,0,.41,4.22c0-.47,0-.93,0-1.4a1.92,1.92,0,0,1,.64,1.32.76.76,0,0,1-.54.67,3.37,3.37,0,0,1-1.34.14,8.88,8.88,0,0,1-3.59-1.09,7.54,7.54,0,0,1-2.45-1.89,2.15,2.15,0,0,1-.55-1.13.73.73,0,0,1,.34-.69,2.74,2.74,0,0,1,1.55-.27,9,9,0,0,0-.9.84,8.26,8.26,0,0,0,2.72-1.83A18.64,18.64,0,0,0,45,100.79Z"/><path class="cls-6" d="M78.6,101.81l1.86-.77a19.29,19.29,0,0,0,3.18,5.25A10.21,10.21,0,0,0,87.21,109c-.27-.33-.62-.58-.92-.88a2.57,2.57,0,0,1,1.57.3.79.79,0,0,1,.27.84,2.43,2.43,0,0,1-.64,1.08A7.79,7.79,0,0,1,85,112.21a8.3,8.3,0,0,1-3.87,1,1.79,1.79,0,0,1-1.22-.39.67.67,0,0,1-.17-.62,2.06,2.06,0,0,1,.65-1.14,4.24,4.24,0,0,0,0,1.33,1.88,1.88,0,0,0,.26-.73,11,11,0,0,0,0-4.12A18.72,18.72,0,0,0,78.6,101.81Z"/><path class="cls-6" d="M20.94,101.59a2.31,2.31,0,0,1,1.58.3,8.23,8.23,0,0,1,2.86,2.41,4.39,4.39,0,0,1,.62,1.22.68.68,0,0,1-.19.75,1.44,1.44,0,0,1-1.08,0A6.75,6.75,0,0,1,22,104.54a4.66,4.66,0,0,1-1.39-2.25A.58.58,0,0,1,20.94,101.59Zm.6.9a.43.43,0,0,0-.15.6,5.44,5.44,0,0,0,1.94,2.1,3.62,3.62,0,0,0,1.13.6.53.53,0,0,0,.63-.25,1.66,1.66,0,0,0-.46-1,7.47,7.47,0,0,0-2.29-1.93A1,1,0,0,0,21.54,102.49Z"/><path class="cls-6" d="M105.35,101.92a.62.62,0,0,1,.27,0,5.57,5.57,0,0,1-1.64,2,3.66,3.66,0,0,1-1.52.74c0-.1.08-.2.12-.31h0A5.63,5.63,0,0,0,105.35,101.92Z"/><path class="cls-6" d="M21.63,102.77a3.29,3.29,0,0,1,.43.09v0a4.67,4.67,0,0,0,2.54,2.21,2.59,2.59,0,0,1,.17.38,3.35,3.35,0,0,1-1.67-.86A5,5,0,0,1,21.63,102.77Z"/><path class="cls-6" d="M59.45,120.32a12.26,12.26,0,0,1,5.68.22,3.34,3.34,0,0,1,1.77,1.06,3.94,3.94,0,0,1-2.08,1.12,11.8,11.8,0,0,1-4.35.25,10.27,10.27,0,0,1-2.13-.48,3.74,3.74,0,0,1-1.41-.9,2.4,2.4,0,0,1,1.07-.87A5.87,5.87,0,0,1,59.45,120.32Zm1.31.61a5.15,5.15,0,0,0-1.87.37c-.16.09-.35.19-.4.38s.18.42.38.51a7,7,0,0,0,2.89.51,10,10,0,0,0,3.09-.32.87.87,0,0,0,.61-.52c0-.11,0-.21-.11-.29a1.43,1.43,0,0,0-.73-.35A12.84,12.84,0,0,0,60.76,120.93Z"/><path class="cls-6" d="M59.26,121.56h0a7.78,7.78,0,0,0,2.3.41,8.82,8.82,0,0,0,3.11-.32l.24.18a2.9,2.9,0,0,1-.91.32,9.88,9.88,0,0,1-2.82.11,5.94,5.94,0,0,1-2.16-.47A.61.61,0,0,1,59.26,121.56Z"/></svg>